<?xml version="1.0" encoding="utf-8"?>
<!-- Generator: Adobe Illustrator 24.1.1, SVG Export Plug-In . SVG Version: 6.00 Build 0)  -->
<svg version="1.1" id="Layer_1" xmlns="http://www.w3.org/2000/svg" xmlns:xlink="http://www.w3.org/1999/xlink" x="0px" y="0px"
	 viewBox="0 0 25 25" style="enable-background:new 0 0 25 25;" xml:space="preserve">
<style type="text/css">
	.st0{filter:url(#Adobe_OpacityMaskFilter);}
	.st1{fill-rule:evenodd;clip-rule:evenodd;fill:#FFFFFF;}
	.st2{mask:url(#prefix__b_1_);}
	.st3{fill-rule:evenodd;clip-rule:evenodd;fill:#D8D8D8;}
	.st4{filter:url(#Adobe_OpacityMaskFilter_1_);}
	.st5{mask:url(#prefix__d_1_);}
	.st6{fill:#898989;}
</style>
<g transform="translate(13 13)">
	<defs>
		<filter id="Adobe_OpacityMaskFilter" filterUnits="userSpaceOnUse" x="-13" y="-13" width="25" height="26.5">
			<feColorMatrix  type="matrix" values="1 0 0 0 0  0 1 0 0 0  0 0 1 0 0  0 0 0 1 0"/>
		</filter>
	</defs>
	<mask maskUnits="userSpaceOnUse" x="-13" y="-13" width="25" height="26.5" id="prefix__b_1_">
		<g class="st0">
			<circle id="prefix__a_1_" class="st1" cx="-0.5" cy="-0.5" r="12.5"/>
		</g>
	</mask>
	<g class="st2">
		<g>
			<circle id="prefix__c_1_" class="st3" cx="-0.5" cy="-0.5" r="12.5"/>
		</g>
		<defs>
			<filter id="Adobe_OpacityMaskFilter_1_" filterUnits="userSpaceOnUse" x="-11" y="-12" width="21" height="25.5">
				<feColorMatrix  type="matrix" values="1 0 0 0 0  0 1 0 0 0  0 0 1 0 0  0 0 0 1 0"/>
			</filter>
		</defs>
		<mask maskUnits="userSpaceOnUse" x="-11" y="-12" width="21" height="25.5" id="prefix__d_1_">
			<g class="st4">
				<circle id="prefix__c_2_" class="st1" cx="-0.5" cy="-0.5" r="12.5"/>
			</g>
		</mask>
		<g class="st5">
			<path class="st6" d="M10,13.5h-21v-1.1c0-1.3,0.7-2.5,1.8-3.1l4.5-2.4c0.7-0.4,1.2-1.2,1.2-2v-2l-0.1-0.1c0,0-1.2-1.5-1.7-3.5
				l0-0.2l-0.2-0.1C-5.8-1.3-6-1.7-6-2v-2c0-0.3,0.1-0.5,0.3-0.7l0.2-0.1V-8l0-0.1c0,0-0.2-1.4,0.8-2.5c0.8-0.9,2.2-1.4,4.2-1.4
				c2,0,3.4,0.5,4.2,1.4c0.4,0.5,0.6,1,0.7,1.4l0,0.1l0,0.1l0,0.1c0,0,0,0.1,0,0.1c0,0.1,0,0.1,0,0.2v0c0,0.1,0,0.1,0,0.2v0l0,0.1v0
				c0,0.1,0,0.2,0,0.2l0,3.2l0.2,0.1C4.9-4.5,5-4.3,5-4v2c0,0.4-0.3,0.8-0.7,0.9L4-1L4-0.7c-0.3,1-0.8,2-1.4,2.9
				C2.4,2.3,2.2,2.5,2.1,2.7L2,2.8v2.1C2,5,2,5.1,2,5.2c0,0,0,0.1,0,0.1c0,0.1,0,0.2,0.1,0.3c0,0,0,0,0,0.1c0,0.1,0.1,0.2,0.1,0.3
				c0,0,0,0,0,0c0.1,0.1,0.2,0.3,0.3,0.4l0.1,0.1h0C2.9,6.7,3.1,6.8,3.3,7l4.8,2.4c1.2,0.6,1.9,1.8,1.9,3.1C10,12.5,10,13.5,10,13.5
				z"/>
		</g>
	</g>
</g>
</svg>
