<svg xmlns="http://www.w3.org/2000/svg" width="12" height="11" viewBox="0 0 12 11">
    <g fill="none" fill-rule="evenodd">
        <g fill="#FFF" fill-rule="nonzero">
            <g>
                <g>
                    <path d="M9.492 2.3h2.016v6H9.492v-6zM7.5 2.3c.272 0 .508.1.708.3.2.2.3.436.3.708V8.3c0 .256-.1.492-.3.708l-3.288 3.3-.54-.54c-.136-.152-.204-.324-.204-.516v-.168l.492-2.292H1.5c-.272 0-.508-.096-.708-.288-.2-.192-.3-.424-.3-.696l.024-.048H.492V6.8c0-.144.024-.268.072-.372l1.524-3.516c.072-.184.19-.332.354-.444.164-.112.35-.168.558-.168h4.5z" transform="translate(-238 -614) translate(186 598) translate(52 14)"/>
                </g>
            </g>
        </g>
    </g>
</svg>
