<svg xmlns="http://www.w3.org/2000/svg" xmlns:xlink="http://www.w3.org/1999/xlink" width="125" height="111" viewBox="0 0 125 111">
  <defs>
    <clipPath id="clip-path">
      <rect id="Rectangle_63883" data-name="Rectangle 63883" width="22" height="22" transform="translate(43.756 1661.756)" fill="#fff" stroke="#707070" stroke-width="1"/>
    </clipPath>
    <radialGradient id="radial-gradient" cx="0.5" cy="0.501" r="0.81" gradientTransform="translate(0.258 0.2) scale(0.485 0.6)" gradientUnits="objectBoundingBox">
      <stop offset="0" stop-color="#fc0300"/>
      <stop offset="1" stop-color="#e40d0b"/>
    </radialGradient>
    <clipPath id="clip-path-2">
      <rect id="Rectangle_63884" data-name="Rectangle 63884" width="23" height="23" transform="translate(42.293 1660.293)" fill="#fff" stroke="#707070" stroke-width="1"/>
    </clipPath>
    <clipPath id="clip-path-3">
      <rect id="Rectangle_63889" data-name="Rectangle 63889" width="13" height="13" transform="translate(42.293 1660.293)" fill="#fff" stroke="#707070" stroke-width="1"/>
    </clipPath>
    <clipPath id="clip-path-5">
      <rect id="Rectangle_63886" data-name="Rectangle 63886" width="17" height="17" transform="translate(42.792 1660.792)" fill="#fff" stroke="#707070" stroke-width="1"/>
    </clipPath>
    <clipPath id="clip-path-6">
      <rect id="Rectangle_63882" data-name="Rectangle 63882" width="35" height="35" transform="translate(43.223 1661.223)" fill="#fff" stroke="#707070" stroke-width="1"/>
    </clipPath>
  </defs>
  <g id="bg_emoji" transform="translate(-24 -1612)">
    <g id="Mask_Group_23753" data-name="Mask Group 23753" transform="translate(-19.756 15.244)" opacity="0.2" clip-path="url(#clip-path)">
      <g id="funny" transform="translate(44.271 1662.271)">
        <g id="Group_24586" data-name="Group 24586">
          <path id="Path_85410" data-name="Path 85410" d="M14.906,0H6.165A6.172,6.172,0,0,0,0,6.165v8.741a6.172,6.172,0,0,0,6.165,6.165h8.741a6.172,6.172,0,0,0,6.165-6.165V6.165A6.172,6.172,0,0,0,14.906,0Z" transform="translate(0)" fill="#ffd345"/>
          <path id="Path_85411" data-name="Path 85411" d="M29.091,35.759h-7.9a.66.66,0,0,0-.658.658,4.609,4.609,0,1,0,9.218,0A.66.66,0,0,0,29.091,35.759Z" transform="translate(-14.605 -25.437)" fill="#3d210c"/>
          <path id="Path_85412" data-name="Path 85412" d="M31.124,43.4a4.607,4.607,0,0,1-7.342,0,4.748,4.748,0,0,1,7.342,0Z" transform="translate(-16.918 -29.636)" fill="url(#radial-gradient)"/>
          <g id="Group_24585" data-name="Group 24585" transform="translate(4.56 6.128)">
            <path id="Path_85413" data-name="Path 85413" d="M17.752,21.23h-1.3a.658.658,0,0,0,0,1.317h1.3a.658.658,0,0,0,0-1.317Z" transform="translate(-15.798 -21.23)" fill="#402711"/>
            <path id="Path_85414" data-name="Path 85414" d="M50.1,21.23h-1.3a.658.658,0,0,0,0,1.317h1.3a.658.658,0,0,0,0-1.317Z" transform="translate(-38.811 -21.23)" fill="#402711"/>
          </g>
        </g>
      </g>
    </g>
    <g id="Mask_Group_23754" data-name="Mask Group 23754" transform="translate(83.707 10.707)" opacity="0.2" clip-path="url(#clip-path-2)">
      <g id="funny-2" data-name="funny" transform="translate(43.145 1661.145)">
        <g id="Group_24588" data-name="Group 24588">
          <path id="Path_85415" data-name="Path 85415" d="M15.065,0H6.231A6.238,6.238,0,0,0,0,6.231v8.834A6.238,6.238,0,0,0,6.231,21.3h8.834A6.238,6.238,0,0,0,21.3,15.065V6.231A6.238,6.238,0,0,0,15.065,0Z" transform="translate(0)" fill="#ffd345"/>
          <path id="Path_85416" data-name="Path 85416" d="M29.183,35.759H21.2a.667.667,0,0,0-.665.665,4.658,4.658,0,0,0,9.317,0A.667.667,0,0,0,29.183,35.759Z" transform="translate(-14.542 -25.327)" fill="#3d210c"/>
          <path id="Path_85417" data-name="Path 85417" d="M31.2,43.417a4.656,4.656,0,0,1-7.42,0,4.8,4.8,0,0,1,7.42,0Z" transform="translate(-16.844 -29.508)" fill="url(#radial-gradient)"/>
          <g id="Group_24587" data-name="Group 24587" transform="translate(4.608 6.193)">
            <path id="Path_85418" data-name="Path 85418" d="M17.773,21.23h-1.31a.665.665,0,1,0,0,1.331h1.31a.665.665,0,1,0,0-1.331Z" transform="translate(-15.798 -21.23)" fill="#402711"/>
            <path id="Path_85419" data-name="Path 85419" d="M50.124,21.23h-1.31a.665.665,0,1,0,0,1.331h1.31a.665.665,0,1,0,0-1.331Z" transform="translate(-38.711 -21.23)" fill="#402711"/>
          </g>
        </g>
      </g>
    </g>
    <g id="Mask_Group_23757" data-name="Mask Group 23757" transform="translate(91.707 -29.293)" opacity="0.2" clip-path="url(#clip-path-3)">
      <g id="funny-3" data-name="funny" transform="translate(42.775 1660.775)">
        <g id="Group_24600" data-name="Group 24600">
          <path id="Path_85430" data-name="Path 85430" d="M8.515,0H3.522A3.526,3.526,0,0,0,0,3.522V8.515a3.526,3.526,0,0,0,3.522,3.522H8.515a3.526,3.526,0,0,0,3.522-3.522V3.522A3.526,3.526,0,0,0,8.515,0Z" transform="translate(0)" fill="#ffd345"/>
          <path id="Path_85431" data-name="Path 85431" d="M25.421,35.759H20.907a.377.377,0,0,0-.376.376,2.633,2.633,0,0,0,5.266,0A.377.377,0,0,0,25.421,35.759Z" transform="translate(-17.146 -29.863)" fill="#3d210c"/>
          <path id="Path_85432" data-name="Path 85432" d="M27.976,42.653a2.632,2.632,0,0,1-4.194,0,2.712,2.712,0,0,1,4.194,0Z" transform="translate(-19.861 -34.792)" fill="url(#radial-gradient)"/>
          <g id="Group_24599" data-name="Group 24599" transform="translate(2.605 3.5)">
            <path id="Path_85433" data-name="Path 85433" d="M16.914,21.23h-.741a.376.376,0,0,0,0,.752h.741a.376.376,0,0,0,0-.752Z" transform="translate(-15.798 -21.23)" fill="#402711"/>
            <path id="Path_85434" data-name="Path 85434" d="M49.265,21.23h-.741a.376.376,0,1,0,0,.752h.741a.376.376,0,1,0,0-.752Z" transform="translate(-42.814 -21.23)" fill="#402711"/>
          </g>
        </g>
      </g>
    </g>
    <g id="Mask_Group_23759" data-name="Mask Group 23759" transform="translate(47.707 -48.293)" opacity="0.1" clip-path="url(#clip-path-3)">
      <g id="funny-4" data-name="funny" transform="translate(42.775 1660.775)">
        <g id="Group_24605" data-name="Group 24605">
          <path id="Path_85440" data-name="Path 85440" d="M8.515,0H3.522A3.526,3.526,0,0,0,0,3.522V8.515a3.526,3.526,0,0,0,3.522,3.522H8.515a3.526,3.526,0,0,0,3.522-3.522V3.522A3.526,3.526,0,0,0,8.515,0Z" transform="translate(0)" fill="#ffd345"/>
          <path id="Path_85441" data-name="Path 85441" d="M25.421,35.759H20.907a.377.377,0,0,0-.376.376,2.633,2.633,0,0,0,5.266,0A.377.377,0,0,0,25.421,35.759Z" transform="translate(-17.146 -29.863)" fill="#3d210c"/>
          <path id="Path_85442" data-name="Path 85442" d="M27.976,42.653a2.632,2.632,0,0,1-4.194,0,2.712,2.712,0,0,1,4.194,0Z" transform="translate(-19.861 -34.792)" fill="url(#radial-gradient)"/>
          <g id="Group_24604" data-name="Group 24604" transform="translate(2.605 3.5)">
            <path id="Path_85443" data-name="Path 85443" d="M16.914,21.23h-.741a.376.376,0,0,0,0,.752h.741a.376.376,0,0,0,0-.752Z" transform="translate(-15.798 -21.23)" fill="#402711"/>
            <path id="Path_85444" data-name="Path 85444" d="M49.265,21.23h-.741a.376.376,0,1,0,0,.752h.741a.376.376,0,1,0,0-.752Z" transform="translate(-42.814 -21.23)" fill="#402711"/>
          </g>
        </g>
      </g>
    </g>
    <g id="Mask_Group_23756" data-name="Mask Group 23756" transform="translate(21.207 -16.792)" opacity="0.15" clip-path="url(#clip-path-5)">
      <g id="funny-5" data-name="funny" transform="translate(42.986 1660.986)">
        <g id="Group_24592" data-name="Group 24592">
          <path id="Path_85425" data-name="Path 85425" d="M11.752,0H4.861A4.866,4.866,0,0,0,0,4.861v6.892a4.866,4.866,0,0,0,4.861,4.861h6.892a4.866,4.866,0,0,0,4.861-4.861V4.861A4.866,4.866,0,0,0,11.752,0Z" transform="translate(0)" fill="#ffd345"/>
          <path id="Path_85426" data-name="Path 85426" d="M27.28,35.759H21.05a.521.521,0,0,0-.519.519,3.634,3.634,0,1,0,7.268,0A.521.521,0,0,0,27.28,35.759Z" transform="translate(-15.859 -27.621)" fill="#3d210c"/>
          <path id="Path_85427" data-name="Path 85427" d="M29.571,43.031a3.633,3.633,0,0,1-5.789,0,3.743,3.743,0,0,1,5.789,0Z" transform="translate(-18.37 -32.18)" fill="url(#radial-gradient)"/>
          <g id="Group_24591" data-name="Group 24591" transform="translate(3.595 4.831)">
            <path id="Path_85428" data-name="Path 85428" d="M17.339,21.23H16.317a.519.519,0,1,0,0,1.038h1.022a.519.519,0,1,0,0-1.038Z" transform="translate(-15.798 -21.23)" fill="#402711"/>
            <path id="Path_85429" data-name="Path 85429" d="M49.69,21.23H48.668a.519.519,0,1,0,0,1.038H49.69a.519.519,0,1,0,0-1.038Z" transform="translate(-40.786 -21.23)" fill="#402711"/>
          </g>
        </g>
      </g>
    </g>
    <g id="Mask_Group_23752" data-name="Mask Group 23752" transform="translate(28.777 26.777)" opacity="0.3" clip-path="url(#clip-path-6)">
      <g id="funny-6" data-name="funny" transform="translate(43.057 1661.057)">
        <g id="Group_24584" data-name="Group 24584">
          <path id="Path_85405" data-name="Path 85405" d="M24.994,0H10.337A10.349,10.349,0,0,0,0,10.337V24.994A10.349,10.349,0,0,0,10.337,35.331H24.994A10.349,10.349,0,0,0,35.331,24.994V10.337A10.349,10.349,0,0,0,24.994,0Z" transform="translate(0)" fill="#ffd345"/>
          <path id="Path_85406" data-name="Path 85406" d="M34.885,35.759H21.635a1.107,1.107,0,0,0-1.1,1.1,7.729,7.729,0,1,0,15.457,0A1.107,1.107,0,0,0,34.885,35.759Z" transform="translate(-10.594 -18.452)" fill="#3d210c"/>
          <path id="Path_85407" data-name="Path 85407" d="M36.093,44.573a7.726,7.726,0,0,1-12.311,0,7.961,7.961,0,0,1,12.311,0Z" transform="translate(-12.272 -21.498)" fill="url(#radial-gradient)"/>
          <g id="Group_24583" data-name="Group 24583" transform="translate(7.646 10.275)">
            <path id="Path_85408" data-name="Path 85408" d="M19.075,21.23H16.9a1.1,1.1,0,1,0,0,2.208h2.174a1.1,1.1,0,0,0,0-2.208Z" transform="translate(-15.798 -21.23)" fill="#402711"/>
            <path id="Path_85409" data-name="Path 85409" d="M51.426,21.23H49.253a1.1,1.1,0,0,0,0,2.208h2.174a1.1,1.1,0,1,0,0-2.208Z" transform="translate(-32.491 -21.23)" fill="#402711"/>
          </g>
        </g>
      </g>
    </g>
  </g>
</svg>
