<svg xmlns="http://www.w3.org/2000/svg" width="180" height="180" viewBox="0 0 180 180">
    <g fill="none" fill-rule="evenodd">
        <g>
            <g>
                <g>
                    <g>
                        <g>
                            <g>
                                <path fill="#FFD600" fill-rule="nonzero" d="M120.969.531L88.124.163H34.09c-6.015 0-11.16 4.32-12.201 10.244-.251 1.428-.377 2.245-.379 2.451l-.61 80.505H2.648C1.223 93.363 0 94.395 0 95.823v11.485c.033 10.812 8.549 19.694 19.35 20.183l79.656.057c.645-.052.91 0 1.319 0 11.234-.018 20.288-9.085 20.288-20.264v-58.07l.356-48.683z" transform="translate(-180 -128) translate(0 78) translate(180 50) translate(19 16) translate(22 20) matrix(-1 0 0 1 121 0)"/>
                                <path fill="#FFEE93" fill-rule="nonzero" d="M20.331 122.388h-.016c-8.346-.011-15.117-6.76-15.155-15.107v-8.758h74.819v8.722c.003 5.384 2.154 10.545 5.973 14.34.271.271.608.48.891.803H20.331z" transform="translate(-180 -128) translate(0 78) translate(180 50) translate(19 16) translate(22 20) matrix(-1 0 0 1 121 0)"/>
                                <path fill="#FFEE93" d="M95.36 38.252H44.179c-2.608 0-4.724 1.565-4.724 3.494 0 1.93 2.116 3.495 4.724 3.495h51.18c2.61 0 4.725-1.565 4.725-3.495 0-1.929-2.116-3.494-4.724-3.494zM95.36 56.44H44.18c-2.608 0-4.725 1.565-4.725 3.495 0 1.93 2.117 3.495 4.724 3.495H95.36c2.61 0 4.724-1.565 4.724-3.495 0-1.93-2.113-3.495-4.724-3.495zM95.36 73.576H44.18c-2.608 0-4.725 1.567-4.725 3.495 0 1.93 2.117 3.494 4.724 3.494H95.36c2.61 0 4.724-1.564 4.724-3.494 0-1.929-2.113-3.495-4.724-3.495z" transform="translate(-180 -128) translate(0 78) translate(180 50) translate(19 16) translate(22 20) matrix(-1 0 0 1 121 0)"/>
                            </g>
                        </g>
                        <g transform="translate(-180 -128) translate(0 78) translate(180 50) translate(19 16)">
                            <circle cx="28.5" cy="28.5" r="28.5" fill="#ED2324"/>
                            <path fill="#FF7677" d="M27.672 33c.3.479.48.958.48 1.467 0 1.289-.99 2.278-2.398 2.278-.749 0-1.528-.21-1.977-.9l-4.136-6.352h-2.817v6.053c0 .63-.39 1.02-.988 1.02h-2.817c-.63 0-1.019-.39-1.019-1.02v-17.56c0-1.318 1.109-2.397 2.427-2.397h6.323c4.285 0 7.372 2.967 7.372 7.072 0 2.128-1.349 4.285-3.327 5.604l2.877 4.734zm-6.982-7.762c1.438 0 2.607-1.169 2.607-2.637 0-1.438-1.169-2.607-2.607-2.607h-3.866v5.244h3.866zm18.13-4.795c4.524 0 8.18 3.656 8.18 8.241 0 4.525-3.656 8.18-8.18 8.18-1.439 0-2.758-.419-3.926-1.318V41.3c0 1.258-.96 2.097-2.128 2.097-1.198 0-2.157-.839-2.157-2.097V28.924c0-4.855 3.686-8.48 8.21-8.48zm.09 12.227c2.247 0 4.015-1.768 4.015-3.986 0-2.277-1.768-4.045-4.016-4.045-2.187 0-4.015 1.768-4.015 4.045 0 2.218 1.828 3.986 4.015 3.986z"/>
                        </g>
                    </g>
                </g>
            </g>
        </g>
    </g>
</svg>
