<svg xmlns="http://www.w3.org/2000/svg" width="48" height="50" viewBox="0 0 48 50">
    <g fill="none" fill-rule="evenodd">
        <path d="M0 0H18.794V20H0z" transform="translate(14.276 15)"/>
        <g fill="#898989" fill-rule="nonzero">
            <path d="M17.393 2.418h-1.534V1.381C15.86.618 15.235 0 14.465 0h-.056c-.77 0-1.394.618-1.394 1.381v1.037H5.821V1.381C5.821.618 5.197 0 4.427 0h-.056c-.77 0-1.394.618-1.394 1.381v1.037H1.444c-.77 0-1.395.619-1.395 1.381v14.807c0 .763.625 1.381 1.395 1.381h15.949c.77 0 1.394-.618 1.394-1.38V3.798c0-.762-.624-1.38-1.394-1.38zm-.948 15.387H2.392V6.59h14.053v11.215z" transform="translate(14.276 15)"/>
            <path d="M4.302 11.665h2.425c.124 0 .224-.1.224-.221V9.04c0-.122-.1-.221-.224-.221H4.302c-.124 0-.223.099-.223.22v2.404c0 .122.1.22.223.22zM8.205 11.665h2.426c.123 0 .223-.1.223-.221V9.04c0-.122-.1-.221-.223-.221H8.205c-.123 0-.223.099-.223.22v2.404c0 .122.1.22.223.22zM12.11 11.665h2.425c.123 0 .223-.1.223-.221V9.04c0-.122-.1-.221-.223-.221h-2.426c-.123 0-.223.099-.223.22v2.404c0 .122.1.22.223.22zM4.302 15.532h2.425c.124 0 .224-.099.224-.22v-2.404c0-.122-.1-.22-.224-.22H4.302c-.124 0-.223.098-.223.22v2.403c0 .122.1.221.223.221zM8.205 15.532h2.426c.123 0 .223-.099.223-.22v-2.404c0-.122-.1-.22-.223-.22H8.205c-.123 0-.223.098-.223.22v2.403c0 .122.1.221.223.221z" transform="translate(14.276 15)"/>
        </g>
    </g>
</svg>
