<svg xmlns="http://www.w3.org/2000/svg" width="40" height="40" viewBox="0 0 40 40">
  <g id="billing" transform="translate(-30 -30)">
    <path id="Path_16" data-name="Path 16" d="M0,0H40V40H0Z" transform="translate(30 30)" fill="none" fill-rule="evenodd"/>
    <path id="Path_17" data-name="Path 17" d="M39.89,19.945A19.945,19.945,0,1,1,19.945,0,19.944,19.944,0,0,1,39.89,19.945Z" transform="translate(30 30)" fill="#ed2324" fill-rule="evenodd"/>
    <g id="Group_14" data-name="Group 14">
      <path id="Path_18" data-name="Path 18" d="M17.231-.076l-4.678.053H3.432a.384.384,0,0,1-.368-.384L2.977-13.3H.377A.361.361,0,0,1,0-13.65v-1.637a2.888,2.888,0,0,1,2.756-2.875L14.1-18.17a1.447,1.447,0,0,0,.188,0,2.889,2.889,0,0,1,2.89,2.887V-7.01l.05,6.934ZM11.393-14.034v-1.243a2.881,2.881,0,0,1,.85-2.042c.04-.039.087-.069.127-.115H2.894A2.162,2.162,0,0,0,.735-15.282v1.248H11.393ZM12.349-.758,16.5-.8l-.053-6.123v-8.363h0A2.151,2.151,0,0,0,14.3-17.434a2.169,2.169,0,0,0-2.17,2.157v1.627a.341.341,0,0,1-.1.252.34.34,0,0,1-.251.1H3.712L3.8-.76h8.552Z" transform="translate(59.273 40) rotate(180)" fill="#fff" stroke="#fff" stroke-width="0.4"/>
      <path id="Path_19" data-name="Path 19" d="M14.01-3.455H6.72c-.371,0-.672-.224-.672-.5s.3-.5.672-.5h7.29c.373,0,.674.224.674.5s-.3.5-.673.5Zm0-2.59H6.721c-.372,0-.673-.224-.673-.5s.3-.5.673-.5h7.29c.372,0,.673.223.673.5S14.383-6.045,14.011-6.045Zm0-2.441H6.721c-.372,0-.673-.225-.673-.5s.3-.5.673-.5h7.29c.372,0,.673.224.673.5S14.383-8.486,14.011-8.486Z" transform="translate(59.273 40) rotate(180)" fill="#fff" fill-rule="evenodd"/>
    </g>
  </g>
</svg>
