<?xml version="1.0" encoding="UTF-8"?>
<svg width="20px" height="20px" viewBox="0 0 20 20" version="1.1" xmlns="http://www.w3.org/2000/svg" xmlns:xlink="http://www.w3.org/1999/xlink">
    <!-- Generator: sketchtool 62 (101010) - https://sketch.com -->
    <title>61024C06-0B41-4806-A2B4-5299235BF477</title>
    <desc>Created with sketchtool.</desc>
    <g id="for-developer" stroke="none" stroke-width="1" fill="none" fill-rule="evenodd">
        <g id="icon" transform="translate(-477.000000, -401.000000)">
            <g id="icon/system/checked-green" transform="translate(477.000000, 401.000000)">
                <rect id="Rectangle" x="0" y="0" width="20" height="20"></rect>
                <path d="M19.9445983,9.97229917 C19.9445983,15.4803324 15.4803324,19.9445983 9.97229917,19.9445983 C4.46426593,19.9445983 0,15.4803324 0,9.97229917 C0,4.46426593 4.46426593,0 9.97229917,0 C15.4803324,0 19.9445983,4.46426593 19.9445983,9.97229917 Z" id="Combined-Shape" fill="#B0E01F"></path>
                <path d="M6.66666667,7 C7.0348565,7 7.33333333,7.29847683 7.33333333,7.66666667 L7.333,10.333 L13.3333333,10.3333333 C13.7015232,10.3333333 14,10.6318102 14,11 C14,11.3681898 13.7015232,11.6666667 13.3333333,11.6666667 L6.66666667,11.6666667 C6.29847683,11.6666667 6,11.3681898 6,11 L6,7.66666667 C6,7.29847683 6.29847683,7 6.66666667,7 Z" id="Combined-Shape" stroke="#FFFFFF" stroke-width="0.5" fill="#FFFFFF" transform="translate(10.000000, 9.333333) rotate(-45.000000) translate(-10.000000, -9.333333) "></path>
            </g>
        </g>
    </g>
</svg>