<svg xmlns="http://www.w3.org/2000/svg" width="50" height="50" viewBox="0 0 50 50">
    <g fill="none" fill-rule="evenodd">
        <path d="M5 5H25V25H5z" transform="translate(10 10)"/>
        <path fill="#211E20" d="M7.929 7.929c.39-.39 1.024-.39 1.414 0L15 13.586l5.657-5.657c.39-.39 1.024-.39 1.414 0 .39.39.39 1.024 0 1.414L16.414 15l5.657 5.657c.39.39.39 1.024 0 1.414-.39.39-1.024.39-1.414 0L15 16.414l-5.657 5.657c-.39.39-1.024.39-1.414 0-.39-.39-.39-1.024 0-1.414L13.586 15 7.929 9.343c-.39-.39-.39-1.024 0-1.414z" transform="translate(10 10)"/>
    </g>
</svg>
