<svg xmlns="http://www.w3.org/2000/svg" width="50" height="50" viewBox="0 0 50 50">
    <g fill="none" fill-rule="evenodd">
        <path d="M0 0H20V20H0z" transform="translate(15 15)"/>
        <path fill="#FFA88E" fill-rule="nonzero" d="M10.966 1.583l2.255 4.438c.157.309.46.523.811.572l5.045.712c.883.124 1.236 1.179.597 1.783l-3.65 3.455c-.254.24-.37.586-.31.925l.862 4.878c.15.855-.773 1.506-1.563 1.103L10.5 17.146c-.313-.16-.689-.16-1.002 0L4.987 19.45c-.79.403-1.714-.248-1.563-1.103l.862-4.878c.06-.339-.056-.685-.31-.925L.326 9.088C-.313 8.483.04 7.43.923 7.305l5.045-.712c.35-.05.654-.263.81-.572l2.256-4.438c.395-.777 1.537-.777 1.932 0z" transform="translate(15 15)"/>
    </g>
</svg>
