<svg xmlns="http://www.w3.org/2000/svg" xmlns:xlink="http://www.w3.org/1999/xlink" width="354" height="300" viewBox="0 0 354 300">
  <defs>
    <clipPath id="clip-path">
      <rect id="Rectangle_64640" data-name="Rectangle 64640" width="185.7" height="216.287" transform="matrix(0.995, 0.105, -0.105, 0.995, 14.813, -4.113)" fill="none"/>
    </clipPath>
    <clipPath id="clip-path-2">
      <rect id="Rectangle_64628" data-name="Rectangle 64628" width="134.778" height="8.76" transform="translate(44.393 207.527)" fill="#2f3044"/>
    </clipPath>
    <clipPath id="clip-path-3">
      <rect id="Rectangle_64638" data-name="Rectangle 64638" width="119.615" height="120.655" transform="translate(43.836 65.441)" fill="none"/>
    </clipPath>
    <clipPath id="clip-path-4">
      <rect id="Rectangle_64639" data-name="Rectangle 64639" width="118.947" height="18.698" transform="translate(38.067 64.432)" fill="none"/>
    </clipPath>
  </defs>
  <g id="coupon_no_reward_img" transform="translate(-30 -209)">
    <path id="Rectangle_64686" data-name="Rectangle 64686" d="M30,0H324a30,30,0,0,1,30,30V300a0,0,0,0,1,0,0H0a0,0,0,0,1,0,0V30A30,30,0,0,1,30,0Z" transform="translate(30 209)" fill="#ffd345"/>
    <g id="no_reward" transform="translate(108.301 263.713)">
      <g id="Group_25549" data-name="Group 25549">
        <g id="Group_25546" data-name="Group 25546">
          <g id="Group_25545" data-name="Group 25545" clip-path="url(#clip-path)">
            <g id="Group_25538" data-name="Group 25538" transform="translate(-6.326 -2.756)" opacity="0.25">
              <g id="Group_25537" data-name="Group 25537">
                <g id="Group_25536" data-name="Group 25536" clip-path="url(#clip-path-2)">
                  <path id="Path_87742" data-name="Path 87742" d="M179.171,211.907c0,2.419-30.171,4.38-67.389,4.38s-67.389-1.961-67.389-4.38,30.171-4.38,67.389-4.38,67.389,1.961,67.389,4.38" fill="#2f3044"/>
                </g>
              </g>
            </g>
            <path id="Path_87743" data-name="Path 87743" d="M48.787,128.476c-6.184,12-16.36,27.2-10.971,41.192.782,2.029-2.271,3.542-3.06,1.494-5.954-15.455,4.327-31.246,11.2-44.574,1.005-1.949,3.829-.04,2.835,1.888" transform="matrix(0.995, 0.105, -0.105, 0.995, 14.813, -4.113)" fill="#263f54"/>
            <path id="Path_87744" data-name="Path 87744" d="M161.409,108.195c5.442,4.592,8.417,12.09,11.44,18.358a92.905,92.905,0,0,1,7.957,22.624c.414,2.142-2.867,3.058-3.283.906a89.4,89.4,0,0,0-7.614-21.811c-2.883-5.976-5.731-13.3-10.908-17.669-1.677-1.415.742-3.814,2.408-2.408" transform="matrix(0.995, 0.105, -0.105, 0.995, 14.813, -4.113)" fill="#263f54"/>
            <path id="Path_87745" data-name="Path 87745" d="M81.084,174.1a1.7,1.7,0,0,0-3.359-.56,183.9,183.9,0,0,0-2.313,30.82,6.527,6.527,0,0,1-6.486-1.2,1.7,1.7,0,0,0-2.179,2.618,10.015,10.015,0,0,0,9.619,1.868,1.833,1.833,0,0,0,2.449-1.724A178.851,178.851,0,0,1,81.084,174.1" fill="#263f54"/>
            <path id="Path_87746" data-name="Path 87746" d="M147.26,203.708a6.529,6.529,0,0,1-6.338,1.83,183.853,183.853,0,0,0-5.327-30.444,1.7,1.7,0,0,0-3.287.887,179.01,179.01,0,0,1,5.382,31.447A1.833,1.833,0,0,0,140.3,208.9a10.01,10.01,0,0,0,9.388-2.8,1.7,1.7,0,0,0-2.425-2.391" fill="#263f54"/>
            <path id="Path_87747" data-name="Path 87747" d="M87.626,58.275A58.689,58.689,0,0,0,58.051,42.632c-18.13-3.368-36.388-22.658-36.388-22.658a21.986,21.986,0,0,0,.251,7.9s-5.22-.358-7.237-2.564c0,0,6.652,16.4,42.007,23.536,20.39,4.218,30.942,9.433,30.942,9.433" transform="matrix(0.995, 0.105, -0.105, 0.995, 14.813, -4.113)" fill="#c0c0ca"/>
            <path id="Path_87748" data-name="Path 87748" d="M100.089,56.358a58.675,58.675,0,0,1,23.5-23.81C139.872,23.886,151.487,0,151.487,0a21.975,21.975,0,0,1,2.134,7.606s4.871-1.91,6.132-4.62c0,0-1.416,17.636-32.99,35.074-18.179,10.152-26.674,18.3-26.674,18.3" transform="matrix(0.995, 0.105, -0.105, 0.995, 14.813, -4.113)" fill="#c0c0ca"/>
            <path id="Path_87749" data-name="Path 87749" d="M44.444,33.56s-2,20.959,43.461,22c0,0-26.529-33.083-43.461-22" transform="matrix(0.995, 0.105, -0.105, 0.995, 14.813, -4.113)" fill="#a3a3ad"/>
            <path id="Path_87750" data-name="Path 87750" d="M133.835,19.806S142.041,39.195,99,53.856c0,0,15.559-41.287,34.837-34.05" transform="matrix(0.995, 0.105, -0.105, 0.995, 14.813, -4.113)" fill="#a3a3ad"/>
            <path id="Path_87751" data-name="Path 87751" d="M47.143,32.191s5.5,15.235,40.762,23.372c0,0-22.734-32.772-40.762-23.372" transform="matrix(0.995, 0.105, -0.105, 0.995, 14.813, -4.113)" fill="#47464c"/>
            <path id="Path_87752" data-name="Path 87752" d="M131.526,19.385S130.792,35.566,99.533,53.8c0,0,11.988-38.041,31.993-34.413" transform="matrix(0.995, 0.105, -0.105, 0.995, 14.813, -4.113)" fill="#47464c"/>
            <path id="Path_87753" data-name="Path 87753" d="M93.452,54.709S84.964,30.615,70.986,21.4s-27.53,1.843-26.541,12.158c0,0,13.994-12.064,43.461,22Z" transform="matrix(0.995, 0.105, -0.105, 0.995, 14.813, -4.113)" fill="#c0c0ca"/>
            <path id="Path_87754" data-name="Path 87754" d="M84.851,52.022s1.881-5.349,5.168-5.354l.8,5.281-5.382.817Z" transform="matrix(0.995, 0.105, -0.105, 0.995, 14.813, -4.113)" fill="#a3a3ad"/>
            <path id="Path_87755" data-name="Path 87755" d="M93.452,54.709s.852-25.531,11.415-38.521,26.811-6.518,28.968,3.618c0,0-16.974-7.3-34.837,34.05Z" transform="matrix(0.995, 0.105, -0.105, 0.995, 14.813, -4.113)" fill="#c0c0ca"/>
            <path id="Path_87756" data-name="Path 87756" d="M100.773,49.819s-3.383-4.55-6.524-3.58l.8,5.282,5.381-.817Z" transform="matrix(0.995, 0.105, -0.105, 0.995, 14.813, -4.113)" fill="#a3a3ad"/>
            <path id="Path_87757" data-name="Path 87757" d="M89.107,55.378s-2.9-2.946-.99-6.431A5.32,5.32,0,0,1,95.2,46.581a6.522,6.522,0,0,1,3.126,7.379Z" transform="matrix(0.995, 0.105, -0.105, 0.995, 14.813, -4.113)" fill="#c0c0ca"/>
            <path id="Path_87762" data-name="Path 87762" d="M92.8,48.6a3.219,3.219,0,0,1,2.125.875.942.942,0,0,0,1.308-.2.958.958,0,0,0-.2-1.308,4.786,4.786,0,0,0-3.013-1.227.961.961,0,0,0-1.04.818A.945.945,0,0,0,92.8,48.6" transform="matrix(0.995, 0.105, -0.105, 0.995, 14.813, -4.113)" fill="#fff"/>
            <path id="Path_87764" data-name="Path 87764" d="M166.814,169.85,57.239,186.48a3.323,3.323,0,0,1-3.784-2.787L36.327,70.833,152.472,53.206,169.6,166.067a3.322,3.322,0,0,1-2.786,3.783" transform="matrix(0.995, 0.105, -0.105, 0.995, 14.813, -4.113)" fill="#fefefe"/>
            <g id="Group_25541" data-name="Group 25541" transform="matrix(0.995, 0.105, -0.105, 0.995, 14.813, -4.113)" opacity="0.35">
              <g id="Group_25540" data-name="Group 25540">
                <g id="Group_25539" data-name="Group 25539" clip-path="url(#clip-path-3)">
                  <rect id="Rectangle_64629" data-name="Rectangle 64629" width="6.234" height="106.12" transform="translate(43.839 81.177) rotate(-8.627)" fill="#c0dee2"/>
                  <rect id="Rectangle_64630" data-name="Rectangle 64630" width="6.234" height="106.12" transform="translate(55.892 79.348) rotate(-8.627)" fill="#c0dee2"/>
                  <rect id="Rectangle_64631" data-name="Rectangle 64631" width="6.234" height="106.12" transform="translate(67.757 77.547) rotate(-8.627)" fill="#c0dee2"/>
                  <rect id="Rectangle_64632" data-name="Rectangle 64632" width="6.234" height="106.12" transform="translate(80.53 75.609) rotate(-8.627)" fill="#c0dee2"/>
                  <rect id="Rectangle_64633" data-name="Rectangle 64633" width="6.234" height="106.12" transform="translate(92.583 73.78) rotate(-8.627)" fill="#c0dee2"/>
                  <rect id="Rectangle_64634" data-name="Rectangle 64634" width="6.234" height="106.12" transform="translate(104.448 71.979) rotate(-8.627)" fill="#c0dee2"/>
                  <rect id="Rectangle_64635" data-name="Rectangle 64635" width="6.234" height="106.12" transform="translate(117.451 70.006) rotate(-8.627)" fill="#c0dee2"/>
                  <rect id="Rectangle_64636" data-name="Rectangle 64636" width="6.234" height="106.12" transform="translate(129.504 68.176) rotate(-8.627)" fill="#c0dee2"/>
                  <rect id="Rectangle_64637" data-name="Rectangle 64637" width="6.234" height="106.12" transform="translate(141.368 66.376) rotate(-8.627)" fill="#c0dee2"/>
                </g>
              </g>
            </g>
            <path id="Path_87765" data-name="Path 87765" d="M156.4,64.09,34.964,82.774A3.321,3.321,0,0,1,31.175,80L28.844,64.847a3.322,3.322,0,0,1,2.779-3.789L153.062,42.373a3.323,3.323,0,0,1,3.789,2.779L159.182,60.3A3.322,3.322,0,0,1,156.4,64.09" transform="matrix(0.995, 0.105, -0.105, 0.995, 14.813, -4.113)" fill="#c0c0ca"/>
            <g id="Group_25544" data-name="Group 25544" transform="matrix(0.995, 0.105, -0.105, 0.995, 14.813, -4.113)" opacity="0.26">
              <g id="Group_25543" data-name="Group 25543">
                <g id="Group_25542" data-name="Group 25542" clip-path="url(#clip-path-4)">
                  <path id="Path_87766" data-name="Path 87766" d="M38.067,82.3s63.975-12.307,118.947.833l-2.838-18.7Z" fill="#878787"/>
                </g>
              </g>
            </g>
            <path id="Path_87767" data-name="Path 87767" d="M96.876,120.158s7.153-4.311,13.992-2.123,6.909-2.7,6.07-5.016-5.241-6.525-12.457-5.917-12.515,3.733-14.324,7.867c-2.176,4.97,2.236,8.74,6.719,5.189" transform="matrix(0.995, 0.105, -0.105, 0.995, 14.813, -4.113)" fill="#263f54"/>
            <path id="Path_87768" data-name="Path 87768" d="M95.38,121.083s3.624-9.373,8.231-6.62a5.8,5.8,0,0,1,5.839-.868c1.972.823,3.181,4.958,3.181,4.958s-3.038-1.118-9.008-.843c-4.224.647-7.386,3.734-8.243,3.373" transform="matrix(0.995, 0.105, -0.105, 0.995, 14.813, -4.113)" fill="#5ca7bf"/>
            <path id="Path_87769" data-name="Path 87769" d="M87.164,106.711c.338,2.228-.644,4.225-2.194,4.46s-3.08-1.381-3.418-3.608.644-4.225,2.194-4.46,3.08,1.38,3.418,3.608" transform="matrix(0.995, 0.105, -0.105, 0.995, 14.813, -4.113)" fill="#263f54"/>
            <path id="Path_87770" data-name="Path 87770" d="M121.648,101.478c.338,2.228-.644,4.225-2.194,4.46s-3.08-1.38-3.418-3.608.644-4.225,2.194-4.46,3.08,1.38,3.418,3.608" transform="matrix(0.995, 0.105, -0.105, 0.995, 14.813, -4.113)" fill="#263f54"/>
            <path id="Path_87771" data-name="Path 87771" d="M85.872,105.033a.559.559,0,1,1-.637-.469.56.56,0,0,1,.637.469" transform="matrix(0.995, 0.105, -0.105, 0.995, 14.813, -4.113)" fill="#fefefe"/>
            <path id="Path_87772" data-name="Path 87772" d="M120.59,99.764a.559.559,0,1,1-.637-.469.56.56,0,0,1,.637.469" transform="matrix(0.995, 0.105, -0.105, 0.995, 14.813, -4.113)" fill="#fefefe"/>
            <path id="Path_87773" data-name="Path 87773" d="M79.134,102.125c2.048.2,4.211-.66,4.61-2.873.106-.594-.823-.7-.93-.111-.305,1.694-2.067,2.2-3.57,2.055a.468.468,0,0,0-.11.929" transform="matrix(0.995, 0.105, -0.105, 0.995, 14.813, -4.113)" fill="#263f54"/>
            <path id="Path_87774" data-name="Path 87774" d="M121.914,95.16a2.907,2.907,0,0,1-3.488-1.367c-.279-.529-1.137-.154-.855.381a3.866,3.866,0,0,0,4.724,1.841c.567-.2.185-1.055-.381-.855" transform="matrix(0.995, 0.105, -0.105, 0.995, 14.813, -4.113)" fill="#263f54"/>
            <path id="Path_87775" data-name="Path 87775" d="M109.547,125.525c-2.943-.973-5.886-.3-8.627.973a.468.468,0,0,0,.381.855c2.5-1.16,5.2-1.85,7.9-.959.571.189.918-.68.346-.869" transform="matrix(0.995, 0.105, -0.105, 0.995, 14.813, -4.113)" fill="#263f54"/>
            <path id="Path_87777" data-name="Path 87777" d="M156.408,58.266q-.788-5.178-1.573-10.358a1.4,1.4,0,0,0-2.774.422q.786,5.178,1.571,10.357a1.4,1.4,0,0,0,2.776-.421" transform="matrix(0.995, 0.105, -0.105, 0.995, 14.813, -4.113)" fill="#fff"/>
            <path id="Path_87778" data-name="Path 87778" d="M148.532,49.18a1.4,1.4,0,0,0-.421-2.775,1.4,1.4,0,0,0,.421,2.775" transform="matrix(0.995, 0.105, -0.105, 0.995, 14.813, -4.113)" fill="#fff"/>
            <path id="Path_87779" data-name="Path 87779" d="M169.02,44.607a17.019,17.019,0,0,0,9.35-15.749c-.032-1.122-1.78-1.127-1.747,0A15.311,15.311,0,0,1,168.138,43.1c-1,.507-.12,2.015.882,1.508" transform="matrix(0.995, 0.105, -0.105, 0.995, 14.813, -4.113)" fill="#263f54"/>
            <path id="Path_87780" data-name="Path 87780" d="M170.723,48.572A20.79,20.79,0,0,1,182.4,45.5c1.124.034,1.123-1.713,0-1.748a22.574,22.574,0,0,0-12.56,3.309c-.959.583-.082,2.1.882,1.509" transform="matrix(0.995, 0.105, -0.105, 0.995, 14.813, -4.113)" fill="#263f54"/>
            <path id="Path_87781" data-name="Path 87781" d="M173.887,52.935a23.714,23.714,0,0,1,10.745,1.022c1.069.356,1.527-1.331.464-1.685a24.8,24.8,0,0,0-11.209-1.084c-1.1.144-1.113,1.893,0,1.747" transform="matrix(0.995, 0.105, -0.105, 0.995, 14.813, -4.113)" fill="#263f54"/>
            <path id="Path_87782" data-name="Path 87782" d="M.84,56.481A32.237,32.237,0,0,1,22.079,62.5c.917.655,1.79-.86.882-1.508A33.733,33.733,0,0,0,.84,54.734c-1.116.076-1.124,1.824,0,1.747" transform="matrix(0.995, 0.105, -0.105, 0.995, 14.813, -4.113)" fill="#263f54"/>
            <path id="Path_87783" data-name="Path 87783" d="M3.141,68.561a91.425,91.425,0,0,1,15-.455c1.123.058,1.12-1.689,0-1.747a91.424,91.424,0,0,0-15,.455c-1.105.125-1.117,1.873,0,1.747" transform="matrix(0.995, 0.105, -0.105, 0.995, 14.813, -4.113)" fill="#263f54"/>
            <path id="Path_87784" data-name="Path 87784" d="M3.962,88.307A43.719,43.719,0,0,1,21.4,72.973c1.009-.5.125-2-.882-1.509A45.445,45.445,0,0,0,2.454,87.425c-.62.942.892,1.818,1.508.882" transform="matrix(0.995, 0.105, -0.105, 0.995, 14.813, -4.113)" fill="#263f54"/>
          </g>
        </g>
      </g>
    </g>
  </g>
</svg>
