<svg xmlns="http://www.w3.org/2000/svg" xmlns:xlink="http://www.w3.org/1999/xlink" width="353.999" height="300.776" viewBox="0 0 353.999 300.776">
  <defs>
    <clipPath id="clip-path">
      <rect id="Rectangle_64055" data-name="Rectangle 64055" width="353.999" height="297.066" fill="none"/>
    </clipPath>
  </defs>
  <g id="coupon_success_img" transform="translate(-30.001 -209.248)">
    <g id="popup_success_bg" transform="translate(-6.564 147)">
      <path id="Path_86278" data-name="Path 86278" d="M174.966,146.884a4.933,4.933,0,0,1-4.254-2.192.615.615,0,1,1,1.048-.642c1.1,1.8,3.8,2,5.485.976a6.933,6.933,0,0,0,2.97-5.571,20.28,20.28,0,0,0-1.08-6.817.433.433,0,0,1-.012-.043,8.421,8.421,0,0,1-2.675.52,5.737,5.737,0,0,1-3.872-1.17,3.611,3.611,0,0,1-1.142-4.013,3.076,3.076,0,0,1,2.139-1.774,4.531,4.531,0,0,1,3.809.76,8.07,8.07,0,0,1,2.493,3.948,10.885,10.885,0,0,0,4.984-8.832c.1-5.351-3.209-10.091-6-13.126a.615.615,0,1,1,.9-.832c2.943,3.2,6.429,8.224,6.324,13.981a11.955,11.955,0,0,1-5.834,10.028c.021.073.041.146.063.219a21.269,21.269,0,0,1,1.123,7.235,8.153,8.153,0,0,1-3.557,6.539,5.616,5.616,0,0,1-2.917.806m-.309-19.633a2.986,2.986,0,0,0-.772.1,1.875,1.875,0,0,0-1.318,1.057,2.4,2.4,0,0,0,.8,2.6,4.486,4.486,0,0,0,3.045.881,7.045,7.045,0,0,0,2.35-.481,7.031,7.031,0,0,0-2.134-3.515,3.272,3.272,0,0,0-1.969-.64" transform="translate(36.698 17.951)" fill="#ff41aa"/>
      <path id="Path_86279" data-name="Path 86279" d="M240.217,269.1a.615.615,0,0,1-.281-1.162c2.941-1.509,4.735-5.267,4.8-10.053a12.606,12.606,0,0,0-.307-3.134,5.172,5.172,0,0,1-3.847,2,4.219,4.219,0,0,1-3.058-1.379,3.352,3.352,0,0,1-.9-2.664,3.266,3.266,0,0,1,2.165-2.621,4.735,4.735,0,0,1,4.643.618,5.712,5.712,0,0,1,1.09,1.187c.865-3.172-.858-6.636-2.048-8.527-.554-.883-1.176-1.76-1.779-2.608a24.819,24.819,0,0,1-3.769-6.706c-1.155-3.672-.089-8.5,3.651-9.9a.614.614,0,1,1,.431,1.151c-2.968,1.114-3.9,5.235-2.909,8.385a23.491,23.491,0,0,0,3.6,6.363c.611.863,1.243,1.755,1.815,2.664,1.446,2.3,3.589,6.722,1.775,10.658a12.267,12.267,0,0,1,.678,4.528c-.069,5.249-2.112,9.411-5.465,11.131a.619.619,0,0,1-.28.068m.361-18.119a3.62,3.62,0,0,0-1.339.252,2.092,2.092,0,0,0-1.4,1.631,2.142,2.142,0,0,0,.6,1.691,2.951,2.951,0,0,0,2.123.971,4.219,4.219,0,0,0,3.365-2.206,4.817,4.817,0,0,0-1.276-1.658,3.294,3.294,0,0,0-2.07-.681" transform="translate(91.791 -28.786)" fill="#ffaf00"/>
      <path id="Path_86280" data-name="Path 86280" d="M122.569,304.261a.615.615,0,0,1-.429-1.055,17.607,17.607,0,0,0,5.236-12.412,16.963,16.963,0,0,0-.612-4.453,8.1,8.1,0,0,1-3.438.186,8.322,8.322,0,0,1-6.146-4.842,5.192,5.192,0,0,1,.087-4.259,2.773,2.773,0,0,1,1.964-1.493c1.182-.226,2.4.3,3.731,1.582a18.554,18.554,0,0,1,4.612,7.235,6.851,6.851,0,0,0,2.228-1.62c2.171-2.405,2.624-6.431,1.209-10.77a15.959,15.959,0,0,0-4.285-7.023,9.98,9.98,0,0,0-7.42-2.7.614.614,0,0,1-.117-1.223,11.037,11.037,0,0,1,8.363,3.01,17.185,17.185,0,0,1,4.628,7.556c1.552,4.762,1,9.237-1.466,11.973a8.091,8.091,0,0,1-2.774,1.975,18.39,18.39,0,0,1,.665,4.865A18.6,18.6,0,0,1,123,304.087a.611.611,0,0,1-.429.175m-2.811-27.149a1.708,1.708,0,0,0-.3.027,1.571,1.571,0,0,0-1.109.867,3.966,3.966,0,0,0-.039,3.2,7.067,7.067,0,0,0,5.218,4.11,6.9,6.9,0,0,0,2.87-.145,17.459,17.459,0,0,0-4.291-6.772,3.66,3.66,0,0,0-2.35-1.286" transform="translate(-44.904 58.763)" fill="#fff9dc"/>
      <path id="Path_86281" data-name="Path 86281" d="M265.8,112.544a.614.614,0,0,1-.349-1.12,7.291,7.291,0,0,0,2.745-6.413,12.041,12.041,0,0,0-.879-3.743,8.39,8.39,0,0,1-3.648.489,6.769,6.769,0,0,1-5.151-2.858,4.019,4.019,0,0,1-.639-3.577,3.121,3.121,0,0,1,1.726-1.763,4.36,4.36,0,0,1,3.321-.026,8.605,8.605,0,0,1,3.738,3.746c.492.809.913,1.583,1.271,2.33a5.881,5.881,0,0,0,1.294-1.019c2.479-2.617,2.735-7.175.594-10.6a14.125,14.125,0,0,0-9.69-5.969.615.615,0,0,1-.5-.713.607.607,0,0,1,.712-.5,15.348,15.348,0,0,1,10.519,6.527c2.426,3.887,2.106,9.087-.745,12.1a7.163,7.163,0,0,1-1.686,1.312,13.3,13.3,0,0,1,.988,4.19,8.416,8.416,0,0,1-3.274,7.5.615.615,0,0,1-.348.108m-4.5-18.1a3,3,0,0,0-1.2.242,1.9,1.9,0,0,0-1.063,1.058,2.862,2.862,0,0,0,.508,2.472,5.554,5.554,0,0,0,4.233,2.316,7.222,7.222,0,0,0,3.047-.4c-.338-.707-.74-1.442-1.208-2.213a7.532,7.532,0,0,0-3.16-3.25,3.01,3.01,0,0,0-1.157-.224" transform="translate(56.651 14.428)" fill="#ff0e41"/>
      <path id="Path_86282" data-name="Path 86282" d="M93.737,152.029a.614.614,0,0,1-.186-1.2,8.994,8.994,0,0,0,6.113-7.717,8.428,8.428,0,0,0-.023-1.516,9.334,9.334,0,0,1-9.058-2.267c-1.218-1.246-2.063-3.227-1.2-4.84,1.053-1.975,3.858-2.08,5.964-1.035a10.252,10.252,0,0,1,5.233,6.5,7.746,7.746,0,0,0,.787-.415,9.816,9.816,0,0,0,4.427-9.308c-.4-3.989-2.875-7.246-5.489-10.695-2.537-3.346-5.16-6.8-5.719-11a12.579,12.579,0,0,1,5.873-12.15.614.614,0,1,1,.629,1.055A11.319,11.319,0,0,0,95.8,108.368c.516,3.876,2.927,7.055,5.48,10.422,2.6,3.432,5.293,6.982,5.733,11.313A11.069,11.069,0,0,1,102,140.588a9.232,9.232,0,0,1-1.173.6,9.489,9.489,0,0,1,.063,2.021A10.249,10.249,0,0,1,93.924,152a.621.621,0,0,1-.187.028m-1.13-18a2.286,2.286,0,0,0-2.142,1.042c-.568,1.064.092,2.476,1,3.4a8.209,8.209,0,0,0,7.958,1.9,9,9,0,0,0-4.623-5.818,5.061,5.061,0,0,0-2.189-.53" transform="translate(18.001 15.735)" fill="#fceed4"/>
      <path id="Path_86283" data-name="Path 86283" d="M301,205.073a4.784,4.784,0,0,1-.544-.031.615.615,0,0,1,.14-1.222c2.455.28,4.571-1.989,5.014-4.285.418-2.165-.2-4.628-1.822-7.325-.639-1.06-1.383-2.092-2.1-3.09a40.773,40.773,0,0,1-2.467-3.7c-1.173-2.074-2.387-5.194-1.516-8.293a7.815,7.815,0,0,1,8.879-5.379.615.615,0,0,1-.253,1.2,6.632,6.632,0,0,0-7.443,4.509c-.757,2.692.344,5.485,1.4,7.355a40.18,40.18,0,0,0,2.394,3.588c.734,1.019,1.492,2.071,2.157,3.174,1.788,2.965,2.453,5.721,1.977,8.192-.515,2.671-2.927,5.305-5.816,5.305" transform="translate(65.752 29.498)" fill="#2661bd"/>
      <path id="Path_86284" data-name="Path 86284" d="M58.585,220.8a.7.7,0,0,1-.133-.014.614.614,0,0,1-.468-.733c.452-2.05-.8-4.1-2-6.078-1.288-2.114-2.591-4.8-1.509-7.273a4.835,4.835,0,0,1,.6-1.008,11.688,11.688,0,0,1,.784-12.094c2.767-3.912,7.719-6.339,13.587-6.658a.606.606,0,0,1,.648.58.614.614,0,0,1-.58.647c-5.411.3-10.141,2.591-12.651,6.142a10.638,10.638,0,0,0-.885,10.444,10.3,10.3,0,0,1,1.949-1.264,7.651,7.651,0,0,1,3.643-1.037,3.888,3.888,0,0,1,3.465,1.977,3.218,3.218,0,0,1,.026,2.716,4.137,4.137,0,0,1-2.456,2.3,5.951,5.951,0,0,1-5.476-1.342,8.6,8.6,0,0,1-1.313-1.321,3.663,3.663,0,0,0-.214.413c-.854,1.953.3,4.281,1.4,6.093,1.3,2.134,2.742,4.5,2.184,7.031a.616.616,0,0,1-.6.482m-1.957-14.984a7.345,7.345,0,0,0,1.271,1.332,4.86,4.86,0,0,0,4.325,1.125,2.87,2.87,0,0,0,1.7-1.6,2.005,2.005,0,0,0,.007-1.693,2.715,2.715,0,0,0-2.383-1.3,6.448,6.448,0,0,0-3.061.9,8.709,8.709,0,0,0-1.858,1.232" transform="translate(9.913 32.257)" fill="#2f3044"/>
      <path id="Path_86385" data-name="Path 86385" d="M65.24,186.942a.7.7,0,0,1,.133.013.614.614,0,0,1,.468.733c-.452,2.05.8,4.1,2,6.078,1.288,2.114,2.591,4.8,1.509,7.273a4.834,4.834,0,0,1-.6,1.008,11.688,11.688,0,0,1-.784,12.094c-2.767,3.912-7.719,6.339-13.587,6.658a.606.606,0,0,1-.648-.58.614.614,0,0,1,.58-.647c5.411-.3,10.14-2.591,12.65-6.142a10.638,10.638,0,0,0,.885-10.444A10.3,10.3,0,0,1,65.9,204.25a7.651,7.651,0,0,1-3.643,1.037,3.888,3.888,0,0,1-3.465-1.976,3.218,3.218,0,0,1-.026-2.716,4.137,4.137,0,0,1,2.456-2.3,5.951,5.951,0,0,1,5.476,1.342,8.6,8.6,0,0,1,1.313,1.321,3.665,3.665,0,0,0,.214-.413c.854-1.953-.3-4.281-1.4-6.093-1.3-2.134-2.742-4.5-2.184-7.031a.616.616,0,0,1,.6-.482M67.2,201.926a7.347,7.347,0,0,0-1.271-1.332,4.859,4.859,0,0,0-4.325-1.125,2.87,2.87,0,0,0-1.7,1.6,2.005,2.005,0,0,0-.007,1.693,2.715,2.715,0,0,0,2.383,1.3,6.448,6.448,0,0,0,3.061-.9,8.708,8.708,0,0,0,1.858-1.232" transform="translate(121.648 -96.178)" fill="#2f3044"/>
      <g id="Group_24795" data-name="Group 24795" transform="translate(36.565 62.248)">
        <g id="Group_24794" data-name="Group 24794" clip-path="url(#clip-path)">
          <path id="Path_86285" data-name="Path 86285" d="M71.9,339.591c.242-.438.671-.78,1.859-1.158a2.6,2.6,0,0,0-1.195-1.107,4.679,4.679,0,0,0-1.879,1.389,2.413,2.413,0,0,1,1.216.876" transform="translate(-22.768 27.405)" fill="#fff"/>
          <path id="Path_86287" data-name="Path 86287" d="M55.512,322.893a1.776,1.776,0,0,1,.653,1.73,6.1,6.1,0,0,0,2.241-1.58,1.62,1.62,0,0,0-.7-1.492,4.494,4.494,0,0,1-2.189,1.342" transform="translate(-26.246 24.485)" fill="#fff"/>
          <path id="Path_86288" data-name="Path 86288" d="M271,329.175a3.035,3.035,0,0,0-.562,2.748,11.884,11.884,0,0,1,5.166.9,4.073,4.073,0,0,1,.949-2.754,14.263,14.263,0,0,0-5.553-.9" transform="translate(22.992 25.896)" fill="#fff"/>
          <path id="Path_86289" data-name="Path 86289" d="M48.491,286.474a2.372,2.372,0,0,1-1.007.956.626.626,0,0,1,.215.465,2.866,2.866,0,0,0,1.214-.967,1.179,1.179,0,0,0-.423-.454" transform="translate(-28.085 -1.291)" fill="#fff"/>
          <path id="Path_86291" data-name="Path 86291" d="M77.638,73.085a2.931,2.931,0,0,1-1.1.518,8.675,8.675,0,0,1,1.45,1.883A1.663,1.663,0,0,0,79.1,75.1a10.249,10.249,0,0,0-1.46-2.016" transform="translate(-21.427 -50.431)" fill="#fff"/>
          <path id="Path_86292" data-name="Path 86292" d="M302.191,220.224a5.216,5.216,0,0,0-.772-3.306,8.521,8.521,0,0,1-2.351-.924c.177.787-.1,1.274-.966,2.063a14.6,14.6,0,0,1,4.089,2.168" transform="translate(29.347 -23.978)" fill="#fff"/>
          <path id="Path_86293" data-name="Path 86293" d="M78.693,286.542a2.593,2.593,0,0,0-1.41,1.141,16,16,0,0,1,3.928,4.25,2.7,2.7,0,0,1,1.489-.877,14.193,14.193,0,0,0-4.007-4.514" transform="translate(-21.256 -1.278)" fill="#fff"/>
          <path id="Path_86294" data-name="Path 86294" d="M235.374,76.649a1.54,1.54,0,0,0-1.378.607,2.17,2.17,0,0,0,.622,1.314,3.579,3.579,0,0,1,1.905.11,5.672,5.672,0,0,1-1.149-2.031" transform="translate(14.656 -49.771)" fill="#fff"/>
          <path id="Path_86295" data-name="Path 86295" d="M66.487,127.955a1.618,1.618,0,0,0-.325-1.018,1.891,1.891,0,0,1-1.068.435,2.429,2.429,0,0,0,.144,1.014,3.544,3.544,0,0,1,1.249-.431" transform="translate(-24.051 -40.463)" fill="#fff"/>
          <path id="Path_86297" data-name="Path 86297" d="M72.993,251.9a2.084,2.084,0,0,1-.135-1.536,7.941,7.941,0,0,0-2.4.911,3.392,3.392,0,0,0,.667,1.333,4.636,4.636,0,0,1,1.866-.709" transform="translate(-22.82 -17.617)" fill="#fff"/>
          <path id="Path_86298" data-name="Path 86298" d="M308.6,279.908a7.212,7.212,0,0,0-3.635-.876,3.2,3.2,0,0,0-.509,2.133,6.582,6.582,0,0,1,3.571.891,2.245,2.245,0,0,1,.573-2.149" transform="translate(30.799 -2.671)" fill="#fff"/>
          <path id="Path_86301" data-name="Path 86301" d="M315.26,199.975a2.337,2.337,0,0,0-.521-1.424,3.8,3.8,0,0,1-1.092-.289c.122.339.023.568-.315.961a6.562,6.562,0,0,1,1.927.753" transform="translate(32.838 -27.26)" fill="#fff"/>
          <path id="Path_86302" data-name="Path 86302" d="M290.3,86.666a1.512,1.512,0,0,0,.054,1.1,10.567,10.567,0,0,1,3.664-.274,1.551,1.551,0,0,1,.111-1.041,9.384,9.384,0,0,0-3.829.211" transform="translate(27.54 -47.975)" fill="#fff"/>
          <path id="Path_86303" data-name="Path 86303" d="M287.99,247.412a3.286,3.286,0,0,0,.526-2.825,22.047,22.047,0,0,1-4.729-1.876,3.053,3.053,0,0,1-.581,1.485,19.358,19.358,0,0,1,4.784,3.216" transform="translate(25.934 -19.033)" fill="#fff"/>
          <path id="Path_86305" data-name="Path 86305" d="M137.405,77.572a6.531,6.531,0,0,0,1.116,2.041,2.647,2.647,0,0,0,.868-1.126,2.186,2.186,0,0,1-.706-1.238,1.582,1.582,0,0,1-1.278.324" transform="translate(-7.479 -49.66)" fill="#fff"/>
          <path id="Path_86307" data-name="Path 86307" d="M297.625,152.557a3.2,3.2,0,0,0-3.086.257,4.364,4.364,0,0,0,.263,2.944,7.188,7.188,0,0,1,3.59,1.473,11.4,11.4,0,0,1-.767-4.674" transform="translate(28.502 -35.773)" fill="#fff"/>
          <path id="Path_86312" data-name="Path 86312" d="M86.287,339.737a2.565,2.565,0,0,0-1.576-1.494,16.11,16.11,0,0,1-3.174,2.009,2.31,2.31,0,0,1,.7.965,14.679,14.679,0,0,1,4.049-1.479" transform="translate(-20.281 27.575)" fill="#fff"/>
          <path id="Path_86314" data-name="Path 86314" d="M284.349,294.581a4.642,4.642,0,0,0-.731,2.924,7.181,7.181,0,0,1,1.5,1.626c.179-.694.6-.975,1.609-1.278a12.368,12.368,0,0,1-2.375-3.272" transform="translate(26.02 0.21)" fill="#fff"/>
          <path id="Path_86315" data-name="Path 86315" d="M47.613,181.509a15.042,15.042,0,0,0,4.238-3.01,6.14,6.14,0,0,0-2.826-1.449,5.023,5.023,0,0,1-2.564,1.887,3.211,3.211,0,0,1,1.152,2.573" transform="translate(-28.32 -31.187)" fill="#fff"/>
          <path id="Path_86316" data-name="Path 86316" d="M87.6,333.814a10.974,10.974,0,0,0-.494-3.936,4.748,4.748,0,0,0-2.108,1.3,3.669,3.669,0,0,1,.344,2.406,2.73,2.73,0,0,1,2.258.235" transform="translate(-19.489 26.027)" fill="#fff"/>
          <path id="Path_86318" data-name="Path 86318" d="M300.24,280.13c-.7-.359-1.246-1-1.85-2.761a3.986,3.986,0,0,0-1.769,1.775,7.01,7.01,0,0,0,2.22,2.793,3.58,3.58,0,0,1,1.4-1.807" transform="translate(29.008 -2.976)" fill="#ffaf00"/>
          <path id="Path_86320" data-name="Path 86320" d="M42.6,80.5a3.451,3.451,0,0,1,.706,2.88,30.488,30.488,0,0,0,8.2-2.31,6.577,6.577,0,0,0-.808-3.556A17.284,17.284,0,0,1,42.6,80.5" transform="translate(-22.024 -13.126)" fill="#ff0e41"/>
          <path id="Path_86321" data-name="Path 86321" d="M273.212,249.443a1.868,1.868,0,0,0-.493,1.256,12.685,12.685,0,0,1,4.218,1.4,1.928,1.928,0,0,1,.645-1.108,11.321,11.321,0,0,0-4.371-1.551" transform="translate(23.53 -17.787)" fill="#ffaf00"/>
          <path id="Path_86322" data-name="Path 86322" d="M286.346,293.535a2.947,2.947,0,0,1,2.767-.968,9.1,9.1,0,0,0-2.527-3.333,2.68,2.68,0,0,0-2.385,1.048,6.62,6.62,0,0,1,2.145,3.253" transform="translate(26.162 -0.781)" fill="#ffaf00"/>
          <path id="Path_86324" data-name="Path 86324" d="M289.888,128.815c1.107.946,2.371,1.089,4.393.835a16.564,16.564,0,0,1,1.444-7.678c-1.486.108-2.519-.279-4.4-1.409a19.833,19.833,0,0,0-1.434,8.252" transform="translate(27.465 -41.642)" fill="#ffaf00"/>
          <path id="Path_86327" data-name="Path 86327" d="M137.079,63.533A3.977,3.977,0,0,0,134,64.685a22.376,22.376,0,0,1,.892,5.393,3.7,3.7,0,0,1,1.791-.327,19.915,19.915,0,0,1,.391-6.218" transform="translate(-8.258 -52.199)" fill="#ff41aa"/>
          <path id="Path_86328" data-name="Path 86328" d="M85.065,64.367a24.825,24.825,0,0,0-4,7.909,10.861,10.861,0,0,0,5.548.034c.118-1.864.93-3.091,2.362-4.884a5.83,5.83,0,0,1-3.915-3.06" transform="translate(-20.389 -52.044)" fill="#ffaf00"/>
          <path id="Path_86330" data-name="Path 86330" d="M306.384,100.319a3.8,3.8,0,0,1,1.486-.5A11.092,11.092,0,0,1,306.3,97.2a2.146,2.146,0,0,0-1.481.335,13.12,13.12,0,0,0,1.561,2.787" transform="translate(30.887 -45.97)" fill="#00d339"/>
          <path id="Path_86332" data-name="Path 86332" d="M257.707,297.424a3.656,3.656,0,0,1,1.53,1.5,1.031,1.031,0,0,1,.742-.319,4.344,4.344,0,0,0-1.548-1.806,1.834,1.834,0,0,0-.725.629" transform="translate(20.09 0.62)" fill="#ffaf00"/>
          <path id="Path_86333" data-name="Path 86333" d="M51.412,181.989a3.209,3.209,0,0,0,.21,2.965,12.652,12.652,0,0,1,5.552-.449,4.276,4.276,0,0,1,.184-3.074,15.153,15.153,0,0,0-5.947.558" transform="translate(-27.249 -30.392)" fill="#ff41aa"/>
          <path id="Path_86335" data-name="Path 86335" d="M277.169,97.662a6.754,6.754,0,0,0,5.5-.649,37.629,37.629,0,0,1,.865-9.147,6.233,6.233,0,0,1-3.059-.18,33.808,33.808,0,0,1-3.31,9.976" transform="translate(31.613 -62.787)" fill="#ff0e41"/>
          <path id="Path_86337" data-name="Path 86337" d="M92.949,275.514a4.242,4.242,0,0,1,.827,1.634,13.824,13.824,0,0,1,3.01-2.153,2.355,2.355,0,0,0-.616-1.651,16.423,16.423,0,0,0-3.222,2.17" transform="translate(-17.666 -3.721)" fill="#ffaf00"/>
          <path id="Path_86338" data-name="Path 86338" d="M209.243,101.17a8.859,8.859,0,0,0-5.285,1.146,12.12,12.12,0,0,1-1.477,3.5c1.259-.264,2.036.154,3.3,1.434a21.225,21.225,0,0,1,3.465-6.076" transform="translate(7.434 -45.234)" fill="#00d339"/>
          <path id="Path_86339" data-name="Path 86339" d="M62.86,287.856a4.153,4.153,0,0,1,2.1-2.1,14.907,14.907,0,0,0-4.33-2.159,6.4,6.4,0,0,0-1.138,2.576,8.7,8.7,0,0,1,3.368,1.679" transform="translate(-25.334 -1.823)" fill="#ff0e41"/>
          <path id="Path_86340" data-name="Path 86340" d="M256.469,276.037c.246.9.835,1.365,1.824,2.1a24.947,24.947,0,0,1,6.795-5.838,3.955,3.955,0,0,1-1.4-2.211,22.23,22.23,0,0,0-7.216,5.954" transform="translate(68.777 37.503)" fill="#008df0"/>
          <path id="Path_86342" data-name="Path 86342" d="M95.818,153.744a2.221,2.221,0,0,0,.97,2.048,3.607,3.607,0,0,0,2.1-.924,4.938,4.938,0,0,1,.176-2.83,9.31,9.31,0,0,1-3.247,1.707" transform="translate(-17.01 -35.816)" fill="#00d339"/>
          <path id="Path_86343" data-name="Path 86343" d="M80.134,227.577a3.088,3.088,0,0,0-1.694-2.629,4.893,4.893,0,0,0-2.7,1.614,6.782,6.782,0,0,1,.273,3.888,12.664,12.664,0,0,1,4.118-2.874" transform="translate(-21.609 -22.321)" fill="#ff0e41"/>
          <path id="Path_86345" data-name="Path 86345" d="M270.79,198.672a8.179,8.179,0,0,0,1.3-2.607,3.56,3.56,0,0,0-1.825,0,2.72,2.72,0,0,1-.769,1.611,1.92,1.92,0,0,1,1.293,1" transform="translate(22.792 -27.689)" fill="#ff0e41"/>
          <path id="Path_86346" data-name="Path 86346" d="M185.307,73.539a18.211,18.211,0,0,0,2.906-5.825,7.969,7.969,0,0,0-4.076-.007,6.073,6.073,0,0,1-1.718,3.6,4.292,4.292,0,0,1,2.889,2.235" transform="translate(2.837 -51.474)" fill="#ff0e41"/>
          <path id="Path_86348" data-name="Path 86348" d="M252.858,96.211a10.1,10.1,0,0,0-1.4,5.4,5.438,5.438,0,0,0,3.41.757,9.248,9.248,0,0,1,1.425-5.306,3.779,3.779,0,0,1-3.434-.852" transform="translate(18.653 -46.15)" fill="#00d339"/>
          <path id="Path_86349" data-name="Path 86349" d="M288.8,237.357a4.483,4.483,0,0,1-1.148,2.432c.419.22.645.42.731.706A5.423,5.423,0,0,0,289.9,237.9a2.41,2.41,0,0,0-1.105-.544" transform="translate(26.952 -20.024)" fill="#00d339"/>
          <path id="Path_86351" data-name="Path 86351" d="M297.519,158.8a2.727,2.727,0,0,1,2.133.577,19.948,19.948,0,0,0,1.356-5.8,5.215,5.215,0,0,0-2.612-.751,11.37,11.37,0,0,1-.876,5.976" transform="translate(29.214 -35.672)" fill="#ff0e41"/>
          <path id="Path_86352" data-name="Path 86352" d="M192.374,91.462a3.929,3.929,0,0,0-2.276.775,5.348,5.348,0,0,1-.463,1.621c.542-.179.908-.036,1.538.469a9.37,9.37,0,0,1,1.2-2.866" transform="translate(4.49 -47.029)" fill="#008df0"/>
          <path id="Path_86353" data-name="Path 86353" d="M212.327,58.509c-1.588.392-3.346.155-6.821-1.73a7.816,7.816,0,0,0-.134,5.09,15.437,15.437,0,0,0,7.432,1.282,7.157,7.157,0,0,1-.477-4.642" transform="translate(8.015 -53.449)" fill="#00d339"/>
          <path id="Path_86354" data-name="Path 86354" d="M51.821,117.925a3.544,3.544,0,0,1,.982-1.877c-.323-.186-.493-.35-.552-.577a4.282,4.282,0,0,0-1.281,1.993,1.891,1.891,0,0,0,.851.461" transform="translate(-27.286 -42.585)" fill="#ffaf00"/>
          <path id="Path_86355" data-name="Path 86355" d="M104,113.1a2.584,2.584,0,0,0,1.764-.082,14.636,14.636,0,0,1-.438-5.443,2.665,2.665,0,0,1-1.664-.165A13.012,13.012,0,0,0,104,113.1" transform="translate(-15.25 -44.077)" fill="#ff41aa"/>
          <path id="Path_86357" data-name="Path 86357" d="M230.432,112.343a5.583,5.583,0,0,0-4.516-.782,31.551,31.551,0,0,1-3,7.028,5.075,5.075,0,0,1,2.372.863,28.716,28.716,0,0,1,5.142-7.108" transform="translate(12.118 -43.34)" fill="#008df0"/>
          <path id="Path_86358" data-name="Path 86358" d="M58.446,136.789a9.32,9.32,0,0,0-3.557,3.5,4.573,4.573,0,0,0,2.243,2.037,8.527,8.527,0,0,1,3.53-3.42c-1.245-.53-1.889-1.022-2.216-2.121" transform="translate(-26.388 -38.639)" fill="#ffaf00"/>
          <path id="Path_86359" data-name="Path 86359" d="M282.958,214.64a9.129,9.129,0,0,0,4.754-3.324,9.594,9.594,0,0,1-4.1-4.439,14.1,14.1,0,0,0-5.049,2.446,17.876,17.876,0,0,1,4.4,5.318" transform="translate(24.869 -25.666)" fill="#00d339"/>
          <path id="Path_86360" data-name="Path 86360" d="M96.687,229.929a10.674,10.674,0,0,0,3.262-1.658,4.232,4.232,0,0,0-1.8-1.291,3.556,3.556,0,0,1-1.981,1.049,2.231,2.231,0,0,1,.519,1.9" transform="translate(-16.929 -21.944)" fill="#ff0e41"/>
          <path id="Path_86362" data-name="Path 86362" d="M279.01,162.952a5.627,5.627,0,0,1-.883,4.054,21.662,21.662,0,0,0,6.9-.558,8.972,8.972,0,0,0-.651-3.93c-1.372.559-2.863.545-5.37.434" transform="translate(24.77 -33.876)" fill="#00d339"/>
          <path id="Path_86363" data-name="Path 86363" d="M153.594,105.253a4.467,4.467,0,0,0,.411,4.586,7.457,7.457,0,0,0,4.706-.391c.193-2.006.915-3.279,2.355-5.335a19.471,19.471,0,0,1-7.472,1.14" transform="translate(-3.872 -44.687)" fill="#ff41aa"/>
          <path id="Path_86364" data-name="Path 86364" d="M270.207,298.495c-1.348,0-2.208.6-3.578,1.634,2.447,2.8,4.178,6.473,5.772,10.908a5.908,5.908,0,0,1,3.592-1.044,29.734,29.734,0,0,0-5.786-11.5" transform="translate(22.135 0.935)" fill="#008df0"/>
          <path id="Path_86365" data-name="Path 86365" d="M77.312,105.125c.481-2.921.908-4.4,2.52-6.368-1.105-.5-1.71-.967-1.978-1.683-1.889,2.016-2.651,3.778-3.444,6.834a6.149,6.149,0,0,0,2.9,1.216" transform="translate(-21.915 -45.99)" fill="#008df0"/>
          <path id="Path_86366" data-name="Path 86366" d="M58.763,245.315a7.386,7.386,0,0,1-2.466,1.891,22.891,22.891,0,0,1,4.732,3.957A4.2,4.2,0,0,0,63.6,249.6a27.1,27.1,0,0,0-4.838-4.283" transform="translate(-26.066 -18.551)" fill="#008df0"/>
          <path id="Path_86367" data-name="Path 86367" d="M234.766,69.688a2.7,2.7,0,0,1,.455,2.281,24.051,24.051,0,0,0,6.515-1.55,5.159,5.159,0,0,0-.511-2.816,13.606,13.606,0,0,1-6.458,2.085" transform="translate(14.833 -51.445)" fill="#ff41aa"/>
          <path id="Path_86370" data-name="Path 86370" d="M279.784,234.606a3.414,3.414,0,0,0,.189-2.985,23.281,23.281,0,0,1-5.131-1.39,3.15,3.15,0,0,1-.414,1.6,20.379,20.379,0,0,1,5.355,2.771" transform="translate(23.922 -21.343)" fill="#ff0e41"/>
          <path id="Path_86371" data-name="Path 86371" d="M295.4,190.539a3.7,3.7,0,0,0-1.194-2.108,4.181,4.181,0,0,1-2.158,1.423,5.558,5.558,0,0,0,.794,2.181,7.84,7.84,0,0,1,2.558-1.5" transform="translate(27.959 -29.08)" fill="#00d339"/>
          <path id="Path_86372" data-name="Path 86372" d="M299.485,267.431a3.949,3.949,0,0,0-2.388,2.341,23.872,23.872,0,0,1,3.211,4.716,3.708,3.708,0,0,1,1.543-1.041,20.856,20.856,0,0,1-2.365-6.016" transform="translate(29.117 -4.815)" fill="#ff41aa"/>
          <path id="Path_86373" data-name="Path 86373" d="M281.879,138.987a6.457,6.457,0,0,0-4.931-2.092,37.932,37.932,0,0,1-5.433,7.223,5.838,5.838,0,0,1,2.462,1.616,34.543,34.543,0,0,1,7.9-6.748" transform="translate(23.254 -38.619)" fill="#ffaf00"/>
          <path id="Path_86374" data-name="Path 86374" d="M262.937,116.776a7.847,7.847,0,0,0,4.674,1.086,11.2,11.2,0,0,1,2.6-2.223c-1.109-.267-1.557-.892-2.042-2.39a19.732,19.732,0,0,1-5.23,3.528" transform="translate(21.289 -42.996)" fill="#008df0"/>
          <path id="Path_86375" data-name="Path 86375" d="M51.62,266.429a17.771,17.771,0,0,1-5.47,4.2,5.61,5.61,0,0,0,2.5,2.565,23.688,23.688,0,0,0,5.9-3.957c-1.845-.694-2.67-1.334-2.928-2.812" transform="translate(-28.391 -5.001)" fill="#008df0"/>
          <path id="Path_86376" data-name="Path 86376" d="M72.337,165.463a9.7,9.7,0,0,0,1.417-3.165,4.27,4.27,0,0,0-2.173.082,3.225,3.225,0,0,1-.833,1.953,2.3,2.3,0,0,1,1.589,1.131" transform="translate(-22.754 -33.935)" fill="#ffaf00"/>
          <path id="Path_86378" data-name="Path 86378" d="M67.739,259.569a1.067,1.067,0,0,1-.093-.915,9.487,9.487,0,0,0-2.625.384,2.045,2.045,0,0,0,.1,1.127,5.408,5.408,0,0,1,2.623-.6" transform="translate(-24.074 -16.082)" fill="#ffaf00"/>
          <path id="Path_86379" data-name="Path 86379" d="M296.628,266.793a18.811,18.811,0,0,0-6.291.734,7,7,0,0,0,2.07,3.133,6.255,6.255,0,0,1,3.845-.512,3.814,3.814,0,0,1,.376-3.355" transform="translate(27.568 -4.936)" fill="#00d339"/>
          <path id="Path_86380" data-name="Path 86380" d="M127.263,77.035a3,3,0,0,1-1.209-2.239,25.529,25.529,0,0,0-6.284,3.567,5.725,5.725,0,0,0,1.441,2.779,14.456,14.456,0,0,1,6.052-4.108" transform="translate(-11.52 -50.114)" fill="#00d339"/>
          <path id="Path_86381" data-name="Path 86381" d="M298.581,59.62a1.8,1.8,0,0,0-.618,1.739,2.962,2.962,0,0,0,1.784.59,4.274,4.274,0,0,1,1.754-1.582,7.71,7.71,0,0,1-2.919-.747" transform="translate(-261.049 -21.994)" fill="#ff41aa"/>
          <path id="Path_86383" data-name="Path 86383" d="M73.673,320.073a2.732,2.732,0,0,0-.638-1.878,18.682,18.682,0,0,1-6.189,2.151,2.791,2.791,0,0,1,.323,1.848,16.613,16.613,0,0,0,6.5-2.12" transform="translate(-23.648 4.581)" fill="#00d339"/>
          <path id="Path_86384" data-name="Path 86384" d="M290.871,186.617a3.818,3.818,0,0,0,.231,2.533,4.537,4.537,0,0,1,2.718-.5,5.81,5.81,0,0,0,.188-2.439,8.561,8.561,0,0,1-3.137.405" transform="translate(27.663 -29.491)" fill="#008df0"/>
        </g>
      </g>
    </g>
    <g id="coupon" transform="matrix(0.927, -0.375, 0.375, 0.927, -138.703, 91.884)">
      <path id="Subtraction_34" data-name="Subtraction 34" d="M53.756,211H10A10.011,10.011,0,0,1,0,201V48A10.011,10.011,0,0,1,10,38H53.756A15.231,15.231,0,0,0,69,53.183,15.231,15.231,0,0,0,84.245,38H128a10.011,10.011,0,0,1,10,10V201a10.011,10.011,0,0,1-10,10H84.245A15.23,15.23,0,0,0,69,195.818,15.23,15.23,0,0,0,53.756,211Z" transform="translate(138 286)" fill="#fd212a"/>
      <g id="Group_25565" data-name="Group 25565" transform="translate(2.195 -16.859)">
        <path id="Rectangle_63903" data-name="Rectangle 63903" d="M0,0H58.277a0,0,0,0,1,0,0V33.093a13,13,0,0,1-13,13H13a13,13,0,0,1-13-13V0A0,0,0,0,1,0,0Z" transform="translate(179.896 391.767)" fill="#ffd345"/>
        <rect id="Rectangle_63904" data-name="Rectangle 63904" width="42.277" height="3.226" transform="translate(179.896 414.314)" fill="#fff"/>
        <rect id="Rectangle_63905" data-name="Rectangle 63905" width="16.003" height="3.226" transform="translate(222.17 414.314)" fill="#fff"/>
        <path id="Path_85726" data-name="Path 85726" d="M716.768,623.881s12.961-5.883,22-3.647l-1.8,1.207.909,2.131a44.425,44.425,0,0,0-21.361.657Z" transform="translate(-506.034 -232.825)" fill="#fff"/>
        <path id="Path_85727" data-name="Path 85727" d="M560.138,528s-1.685-.2-4.2-.549c-6.668-.917-19.158-2.836-21.4-4.612-3.523-2.789,4.824-14.636,8.438-16.281S560.138,528,560.138,528" transform="translate(-351.623 -137.169)" fill="#ffd345"/>
        <path id="Path_85728" data-name="Path 85728" d="M728.968,479.021c.6,2.935-26.673,15.614-26.673,15.614s.5-1.342,1.3-3.443l0,0c2.949-7.674,10.053-25.481,12.387-25.235a2.836,2.836,0,0,1,.815.242c3.585,1.578,11.611,10.122,12.165,12.825" transform="translate(-494.029 -102.941)" fill="#ffd345"/>
        <path id="Path_85729" data-name="Path 85729" d="M723.671,468.806c-1.666,2.893-12.8,22.083-12.972,22.383,2.949-7.674,10.053-25.481,12.387-25.235a1.485,1.485,0,0,1,.815.242c.425.31.69,1.012-.23,2.61" transform="translate(-501.128 -102.941)" fill="#fff"/>
        <path id="Path_85730" data-name="Path 85730" d="M559.34,598.534h0c-6.668-.917-19.158-2.836-21.4-4.612-1.012-2.851,1.614-3.083,3.526-3.284s17.878,7.9,17.878,7.9" transform="translate(-355.018 -208.251)" fill="#fff"/>
        <path id="Path_85731" data-name="Path 85731" d="M671.153,630.859s1.529-3.478,4.538-3.671c3.143-.2,4.928,3.671,4.928,3.671Z" transform="translate(-467.725 -239.118)" fill="#fff"/>
        <rect id="Rectangle_63906" data-name="Rectangle 63906" width="44.236" height="6.34" transform="translate(178.613 391.767)" fill="#fff"/>
        <rect id="Rectangle_63907" data-name="Rectangle 63907" width="16.673" height="6.34" transform="translate(222.849 391.767)" fill="#fff"/>
        <path id="Path_85732" data-name="Path 85732" d="M567.727,639.183s-8.664-2.745-14.511-.93c-6.739,2.092-6.34,10.407-6.34,10.407l1.585-.652,2.14,1s.361-8.8,5.855-10.038c4.751-1.066,11.27.208,11.27.208" transform="translate(-362.755 -247.947)" fill="#fff"/>
        <rect id="Rectangle_63908" data-name="Rectangle 63908" width="3.226" height="46.093" transform="translate(197.302 391.767)" fill="#fff"/>
      </g>
      <g id="Group_25566" data-name="Group 25566" transform="translate(48.195 16.23)">
        <path id="Rectangle_63903-2" data-name="Rectangle 63903" d="M0,0H32.513a0,0,0,0,1,0,0V15.716a10,10,0,0,1-10,10H10a10,10,0,0,1-10-10V0A0,0,0,0,1,0,0Z" transform="translate(179.329 379.054)" fill="#2f3044"/>
        <rect id="Rectangle_63904-2" data-name="Rectangle 63904" width="23.586" height="1.8" transform="translate(179.329 391.633)" fill="#fff"/>
        <rect id="Rectangle_63905-2" data-name="Rectangle 63905" width="8.928" height="1.8" transform="translate(202.914 391.633)" fill="#fff"/>
        <path id="Path_85726-2" data-name="Path 85726" d="M716.653,622.045s7.231-3.282,12.271-2.035l-1.006.673.507,1.189a24.784,24.784,0,0,0-11.917.366Z" transform="translate(-520.119 -243.387)" fill="#fff"/>
        <path id="Path_85727-2" data-name="Path 85727" d="M548.446,518.483s-.94-.114-2.341-.306c-3.72-.512-10.688-1.582-11.939-2.573-1.965-1.556,2.692-8.166,4.707-9.083s9.573,11.962,9.573,11.962" transform="translate(-353.151 -139.952)" fill="#2f3044"/>
        <path id="Path_85728-2" data-name="Path 85728" d="M717.176,473.243c.336,1.637-14.881,8.711-14.881,8.711s.277-.748.727-1.921v0c1.645-4.281,5.609-14.216,6.911-14.079a1.581,1.581,0,0,1,.455.135c2,.88,6.478,5.647,6.787,7.155" transform="translate(-507.138 -102.941)" fill="#2f3044"/>
        <path id="Path_85729-2" data-name="Path 85729" d="M717.936,467.544c-.929,1.614-7.14,12.32-7.237,12.487,1.645-4.281,5.609-14.216,6.911-14.079a.829.829,0,0,1,.455.135c.237.173.385.565-.128,1.456" transform="translate(-514.814 -102.941)" fill="#fff"/>
        <path id="Path_85730-2" data-name="Path 85730" d="M549.778,595.042h0c-3.72-.512-10.688-1.582-11.939-2.573-.565-1.591.9-1.72,1.967-1.832s9.974,4.405,9.974,4.405" transform="translate(-356.822 -216.816)" fill="#fff"/>
        <path id="Path_85731-2" data-name="Path 85731" d="M671.153,629.232s.853-1.941,2.532-2.048c1.754-.112,2.75,2.048,2.75,2.048Z" transform="translate(-478.696 -250.193)" fill="#fff"/>
        <rect id="Rectangle_63906-2" data-name="Rectangle 63906" width="24.68" height="3.537" transform="translate(178.613 379.054)" fill="#fff"/>
        <rect id="Rectangle_63907-2" data-name="Rectangle 63907" width="9.302" height="3.537" transform="translate(203.293 379.054)" fill="#fff"/>
        <path id="Path_85732-2" data-name="Path 85732" d="M558.507,638.5s-4.834-1.531-8.1-.519c-3.76,1.167-3.537,5.806-3.537,5.806l.884-.364,1.194.56s.2-4.912,3.267-5.6a18.6,18.6,0,0,1,6.288.116" transform="translate(-365.188 -259.74)" fill="#fff"/>
        <rect id="Rectangle_63908-2" data-name="Rectangle 63908" width="1.8" height="25.716" transform="translate(189.04 379.054)" fill="#fff"/>
      </g>
      <path id="Subtraction_35" data-name="Subtraction 35" d="M53.756,211H10A10.011,10.011,0,0,1,0,201V135H138v66a10.011,10.011,0,0,1-10,10H84.245A15.231,15.231,0,0,0,69,195.818,15.23,15.23,0,0,0,53.756,211Z" transform="translate(138 286)" fill="#fff"/>
      <g id="Group_25552" data-name="Group 25552" transform="translate(118 184)">
        <g id="Rectangle_64642" data-name="Rectangle 64642" transform="translate(30 252)" fill="#fee" stroke="#fd212a" stroke-width="0.5" stroke-dasharray="3">
          <rect width="118" height="30" rx="3" stroke="none"/>
          <rect x="0.25" y="0.25" width="117.5" height="29.5" rx="2.75" fill="none"/>
        </g>
        <text id="XXXXXXXXX" transform="translate(59 270.5)" fill="#f7caca" font-size="10" font-family="ProximaNova-Bold, Proxima Nova" font-weight="700"><tspan x="0" y="0">XXXXXXXXX</tspan></text>
      </g>
    </g>
  </g>
</svg>
