<svg xmlns="http://www.w3.org/2000/svg" width="50" height="50" viewBox="0 0 50 50">
    <g fill="none" fill-rule="evenodd">
        <path d="M0 0H20V20H0z" transform="translate(15 15)"/>
        <path fill="#2DD5C4" d="M19.945 9.972c0 5.508-4.465 9.973-9.973 9.973C4.464 19.945 0 15.48 0 9.972 0 4.464 4.464 0 9.972 0c5.508 0 9.973 4.464 9.973 9.972z" transform="translate(15 15)"/>
        <path fill="#FFF" d="M9.716 11.379c.105.168.168.337.168.516 0 .452-.347.8-.842.8-.263 0-.537-.074-.695-.316l-1.452-2.232h-.99v2.127c0 .22-.137.358-.347.358h-.99c-.22 0-.357-.137-.357-.358V6.105c0-.463.389-.842.852-.842h2.221c1.505 0 2.59 1.042 2.59 2.484 0 .748-.474 1.506-1.169 1.969l1.01 1.663zM7.263 8.653c.505 0 .916-.41.916-.927 0-.505-.41-.915-.916-.915H5.905v1.842h1.358zm6.369-1.685c1.59 0 2.873 1.285 2.873 2.895 0 1.59-1.284 2.874-2.873 2.874-.506 0-.969-.148-1.38-.463v2.02c0 .443-.336.738-.747.738-.42 0-.758-.295-.758-.737V9.947c0-1.705 1.295-2.979 2.885-2.979zm.031 4.295c.79 0 1.41-.62 1.41-1.4 0-.8-.62-1.42-1.41-1.42-.768 0-1.41.62-1.41 1.42 0 .78.642 1.4 1.41 1.4z" transform="translate(15 15)"/>
    </g>
</svg>
