<svg id="default_image_roundec" xmlns="http://www.w3.org/2000/svg" width="80" height="80" viewBox="0 0 80 80">
  <circle id="Ellipse_1" data-name="Ellipse 1" cx="40" cy="40" r="40" transform="translate(0 0)" fill="#eee"/>
  <g id="Group_2" data-name="Group 2" transform="translate(33 33)">
    <g id="Group_1" data-name="Group 1">
      <path id="Path_1" data-name="Path 1" d="M7.5,0A7.5,7.5,0,1,0,15,7.5,7.5,7.5,0,0,0,7.5,0Zm0,13.828A6.328,6.328,0,1,1,13.828,7.5,6.325,6.325,0,0,1,7.5,13.828Z" transform="translate(0 0)" fill="#aaa"/>
      <path id="Path_2" data-name="Path 2" d="M7.5,3.782a.575.575,0,0,0-.567.582V8.115a.567.567,0,1,0,1.134,0V4.364A.575.575,0,0,0,7.5,3.782Z" transform="translate(0 0)" fill="#aaa"/>
      <circle id="Ellipse_2" data-name="Ellipse 2" cx="1" cy="1" r="1" transform="translate(6.5 9.273)" fill="#aaa"/>
    </g>
  </g>
</svg>
