<?xml version="1.0" encoding="utf-8"?>
<!-- Generator: Adobe Illustrator 25.0.1, SVG Export Plug-In . SVG Version: 6.00 Build 0)  -->
<svg version="1.1" id="Capa_1" xmlns="http://www.w3.org/2000/svg" xmlns:xlink="http://www.w3.org/1999/xlink" x="0px" y="0px"
	 viewBox="0 0 477.9 477.9" style="enable-background:new 0 0 477.9 477.9;" xml:space="preserve">
<style type="text/css">
	.st0{fill:#D1D1D1;}
	.st1{fill:#F9F9F9;}
</style>
<g>
	<g>
		<path class="st0" d="M238.9,0C107,0,0,107,0,238.9s107,238.9,238.9,238.9s238.9-107,238.9-238.9C477.7,107,370.8,0.1,238.9,0z"/>
		<g>
			<g>
				<path class="st1" d="M258.5,239.3l81.5-81.8c5.2-5.2,5.2-14.4,0-19.6c-5.2-5.2-14.3-5.2-19.6,0l-81.5,81.8l-81.5-81.8
					c-5.2-5.2-14.3-5.2-19.6,0s-5.2,14.4,0,19.6l81.5,81.8l-81.5,81.1c-5.2,5.2-5.2,14.4,0,19.6c2.6,2.6,6.5,3.9,9.8,3.9
					s7.2-1.3,9.8-3.9l81.5-81.8l81.5,81.8c2.6,2.6,6.5,3.9,9.8,3.9s7.2-1.3,9.8-3.9c5.2-5.2,5.2-14.4,0-19.6L258.5,239.3z"/>
			</g>
		</g>
	</g>
</g>
</svg>
