<svg xmlns="http://www.w3.org/2000/svg" width="12" height="11" viewBox="0 0 12 11">
    <g fill="none" fill-rule="evenodd">
        <g fill="#FFF" fill-rule="nonzero">
            <g>
                <g>
                    <path d="M11.508 4.792l-.024.048h.024v.96c0 .128-.024.252-.072.372L9.912 9.688c-.064.184-.18.332-.348.444-.168.112-.356.168-.564.168H4.5c-.272 0-.508-.1-.708-.3-.2-.2-.3-.436-.3-.708V4.3c0-.256.1-.492.3-.708L7.08.292l.54.54c.136.136.204.308.204.516v.168l-.492 2.292H10.5c.272 0 .508.096.708.288.2.192.3.424.3.696zM.492 10.3v-6h2.016v6H.492z" transform="translate(-52 -612) translate(22 598) translate(30 14)"/>
                </g>
            </g>
        </g>
    </g>
</svg>
