<?xml version="1.0" encoding="UTF-8"?>
<svg width="30px" height="30px" viewBox="0 0 30 30" version="1.1" xmlns="http://www.w3.org/2000/svg" xmlns:xlink="http://www.w3.org/1999/xlink">
    <!-- Generator: sketchtool 57.1 (101010) - https://sketch.com -->
    <title>3183169C-54FD-46CA-97FE-6D7B7AE470D9</title>
    <desc>Created with sketchtool.</desc>
    <g id="Transaction-History" stroke="none" stroke-width="1" fill="none" fill-rule="evenodd">
        <g transform="translate(-220.000000, -644.000000)" id="history-card/transaction/failed">
            <g transform="translate(12.000000, 598.000000)">
                <g id="Group" transform="translate(208.000000, 24.000000)">
                    <g id="status/failed" transform="translate(0.000000, 22.000000)">
                        <g id="failed">
                            <g id="icon/system/failed">
                                <g transform="translate(6.000000, 6.000000)">
                                    <rect id="Rectangle" x="3" y="3" width="12" height="12"></rect>
                                    <path d="M9,3 C9.47338693,3 9.85714286,3.38375593 9.85714286,3.85714286 L9.857,8.142 L14.1428571,8.14285714 C14.6162441,8.14285714 15,8.52661307 15,9 C15,9.47338693 14.6162441,9.85714286 14.1428571,9.85714286 L9.857,9.857 L9.85714286,14.1428571 C9.85714286,14.6162441 9.47338693,15 9,15 C8.52661307,15 8.14285714,14.6162441 8.14285714,14.1428571 L8.142,9.857 L3.85714286,9.85714286 C3.38375593,9.85714286 3,9.47338693 3,9 C3,8.52661307 3.38375593,8.14285714 3.85714286,8.14285714 L8.142,8.142 L8.14285714,3.85714286 C8.14285714,3.38375593 8.52661307,3 9,3 Z" id="Combined-Shape" stroke="#ED2324" stroke-width="1.5" fill="#ED2324" transform="translate(9.000000, 9.000000) rotate(-45.000000) translate(-9.000000, -9.000000) "></path>
                                </g>
                            </g>
                        </g>
                    </g>
                </g>
            </g>
        </g>
    </g>
</svg>