<svg xmlns="http://www.w3.org/2000/svg" width="50" height="50" viewBox="0 0 50 50">
    <g fill="none" fill-rule="evenodd">
        <g>
            <g>
                <g>
                    <g>
                        <path d="M5 5H25V25H5z" transform="translate(-155 -152) translate(150 147) translate(5 5) translate(10 10)"/>
                        <path fill="#FFF" stroke="#FFF" stroke-width="1.5" d="M8.232 7.626c.39-.39 1.024-.39 1.414 0L15 12.98l5.355-5.354c.39-.39 1.023-.39 1.414 0l.606.606c.39.39.39 1.024 0 1.414L17.02 15l5.355 5.354c.39.39.39 1.023 0 1.414l-.606.606c-.39.39-1.024.39-1.414 0l-5.355-5.354-5.353 5.354c-.39.39-1.023.39-1.414 0l-.606-.606c-.39-.39-.39-1.024 0-1.414L12.979 15 7.626 9.646c-.39-.39-.39-1.023 0-1.414l.606-.606z" transform="translate(-155 -152) translate(150 147) translate(5 5) translate(10 10)"/>
                    </g>
                </g>
            </g>
        </g>
    </g>
</svg>
