<?xml version="1.0" encoding="utf-8"?>
<!-- Generator: Adobe Illustrator 24.3.0, SVG Export Plug-In . SVG Version: 6.00 Build 0)  -->
<svg version="1.1" id="Layer_1" xmlns="http://www.w3.org/2000/svg" xmlns:xlink="http://www.w3.org/1999/xlink" x="0px" y="0px"
	 viewBox="0 0 50 50" style="enable-background:new 0 0 50 50;" xml:space="preserve">
<style type="text/css">
	.st0{fill:none;}
	.st1{fill:none;stroke:#898989;stroke-width:4;}
</style>
<g>
	<g>
		<g>
			<g>
				<g>
					<path class="st0" d="M1.2,1.2h47.5v47.5H1.2V1.2z"/>
					<g>
						<path class="st1" d="M35.7,6c3,0,5.7,1.2,7.6,3.1c1.9,1.9,3.1,4.6,3.1,7.7c0,8.6-8.1,15.5-19.7,25.8l0,0L25,44.3l-1.7-1.7
							C11.7,32.3,3.6,25.4,3.6,16.8c0-3,1.2-5.8,3.1-7.7c1.9-2,4.6-3.1,7.6-3.1c3.4,0,6.7,1.6,8.9,4.2c0.8,0.9,1.4,1.9,1.8,3
							c0.5-1.1,1.1-2.1,1.8-3C29,7.6,32.3,6,35.7,6z"/>
					</g>
				</g>
			</g>
		</g>
	</g>
</g>
</svg>
