<svg xmlns="http://www.w3.org/2000/svg" width="50" height="50" viewBox="0 0 50 50">
    <g fill="none" fill-rule="evenodd">
        <g>
            <g>
                <g>
                    <g>
                        <path d="M5 5H25V25H5z" transform="translate(-256 -531) translate(12 305) translate(244 226) translate(10 10)"/>
                        <path fill="#E0E0E0" d="M30 15c0 8.285-6.715 15-15 15S0 23.285 0 15 6.715 0 15 0s15 6.715 15 15z" transform="translate(-256 -531) translate(12 305) translate(244 226) translate(10 10)"/>
                        <path fill="#ED2324" fill-rule="nonzero" d="M15 22.83L13.88 21.7C9.72 17.994 7 15.495 7 12.433 7 9.934 8.92 8 11.4 8c1.36 0 2.72.645 3.6 1.692C15.88 8.645 17.24 8 18.6 8c2.48 0 4.4 1.934 4.4 4.433 0 3.062-2.72 5.56-6.88 9.268L15 22.829z" transform="translate(-256 -531) translate(12 305) translate(244 226) translate(10 10)"/>
                    </g>
                </g>
            </g>
        </g>
    </g>
</svg>
