<svg xmlns="http://www.w3.org/2000/svg" width="31" height="30" viewBox="0 0 31 30">
    <path fill="#ED2324" fill-rule="nonzero" d="M16.707 3.729l2.82 5.547c.196.386.575.653 1.013.715l6.306.89c1.104.156 1.545 1.473.746 2.23l-4.563 4.317c-.317.3-.462.734-.386 1.157l1.076 6.098c.19 1.068-.965 1.882-1.953 1.378l-5.64-2.878c-.392-.2-.86-.2-1.253 0L9.234 26.06c-.988.505-2.142-.31-1.953-1.378l1.076-6.098a1.284 1.284 0 0 0-.386-1.157L3.408 13.11c-.799-.756-.358-2.074.746-2.23l6.306-.889c.438-.062.817-.329 1.013-.715l2.82-5.547c.493-.972 1.92-.972 2.414 0z"/>
</svg>
