<?xml version="1.0" encoding="utf-8"?>
<!-- Generator: Adobe Illustrator 24.3.0, SVG Export Plug-In . SVG Version: 6.00 Build 0)  -->
<svg version="1.1" id="Layer_1" xmlns="http://www.w3.org/2000/svg" xmlns:xlink="http://www.w3.org/1999/xlink" x="0px" y="0px"
	 viewBox="0 0 50 50" style="enable-background:new 0 0 50 50;" xml:space="preserve">
<style type="text/css">
	.st0{fill:none;}
	.st1{fill-rule:evenodd;clip-rule:evenodd;fill:#FFFFFF;}
</style>
<g>
	<g>
		<g>
			<g>
				<g>
					<path class="st0" d="M2,2h46v46H2V2z"/>
					<g>
						<path class="st1" d="M25,2c12.7,0,23,10.3,23,23S37.7,48,25,48S2,37.7,2,25S12.3,2,25,2z M25,6.6C14.8,6.6,6.6,14.8,6.6,25
							S14.8,43.4,25,43.4S43.4,35.2,43.4,25S35.2,6.6,25,6.6z"/>
						<path class="st1" d="M18.1,21.4c0-0.9,0.3-1.7,0.8-2.6c0.5-0.9,1.3-1.6,2.4-2.2c1.1-0.6,2.3-0.9,3.7-0.9
							c1.3,0,2.5,0.2,3.5,0.7c1,0.5,1.8,1.1,2.3,2c0.5,0.8,0.8,1.7,0.8,2.7c0,0.8-0.2,1.4-0.5,2c-0.3,0.6-0.7,1.1-1.1,1.5
							c-0.4,0.4-1.2,1.1-2.3,2.1c-0.3,0.3-0.5,0.5-0.7,0.7s-0.3,0.4-0.4,0.6c-0.1,0.2-0.2,0.3-0.2,0.5c-0.1,0.2-0.1,0.5-0.2,0.9
							C26,30.5,25.4,31,24.5,31c-0.5,0-0.9-0.2-1.2-0.5c-0.3-0.3-0.5-0.8-0.5-1.4c0-0.8,0.1-1.4,0.4-2c0.2-0.6,0.5-1,0.9-1.5
							c0.4-0.4,0.9-0.9,1.6-1.5c0.6-0.5,1-0.9,1.2-1.1c0.3-0.3,0.5-0.5,0.6-0.9c0.2-0.3,0.3-0.7,0.3-1c0-0.7-0.3-1.3-0.8-1.8
							c-0.5-0.5-1.2-0.7-2.1-0.7c-1,0-1.7,0.3-2.2,0.8c-0.5,0.5-0.9,1.2-1.2,2.2c-0.3,1-0.9,1.5-1.7,1.5c-0.5,0-0.9-0.2-1.3-0.5
							C18.3,22.2,18.1,21.8,18.1,21.4z M24.7,36.2c-0.5,0-1-0.2-1.4-0.5c-0.4-0.4-0.6-0.9-0.6-1.5c0-0.6,0.2-1,0.6-1.4
							c0.4-0.4,0.9-0.6,1.5-0.6c0.6,0,1,0.2,1.4,0.6c0.4,0.4,0.6,0.9,0.6,1.4c0,0.6-0.2,1.1-0.6,1.5C25.7,36,25.2,36.2,24.7,36.2
							L24.7,36.2z"/>
					</g>
				</g>
			</g>
		</g>
	</g>
</g>
</svg>
