<svg xmlns="http://www.w3.org/2000/svg" width="50" height="50" viewBox="0 0 50 50">
    <g fill="none" fill-rule="evenodd">
        <path d="M15 15h20v20H15z"/>
        <g fill="#898989">
            <path d="M25 15c5.523 0 10 4.477 10 10s-4.477 10-10 10-10-4.477-10-10 4.477-10 10-10zm0 2a8 8 0 1 0 0 16 8 8 0 0 0 0-16z"/>
            <path d="M22 23.45c0-.372.12-.748.357-1.129.239-.38.586-.696 1.043-.946.457-.25.99-.375 1.6-.375.566 0 1.066.104 1.5.313.434.21.769.494 1.005.853.236.36.354.75.354 1.172 0 .332-.067.623-.202.873s-.295.466-.48.647a35.06 35.06 0 0 1-1 .917c-.132.121-.239.228-.319.32-.08.092-.14.176-.178.252-.04.076-.07.152-.091.228-.022.076-.054.21-.097.402-.074.406-.306.609-.697.609a.713.713 0 0 1-.513-.2c-.138-.132-.208-.33-.208-.591 0-.328.051-.612.153-.853.101-.24.236-.45.404-.632.168-.182.394-.398.68-.648.25-.219.43-.384.542-.495a1.68 1.68 0 0 0 .28-.372.9.9 0 0 0 .115-.445c0-.313-.116-.577-.349-.791-.232-.215-.532-.323-.899-.323-.43 0-.746.109-.95.326-.202.216-.374.536-.515.958-.133.44-.385.662-.756.662a.743.743 0 0 1-.553-.232c-.15-.154-.226-.321-.226-.5zm2.86 6.421a.922.922 0 0 1-.625-.231c-.177-.155-.266-.37-.266-.648 0-.246.086-.453.258-.62a.87.87 0 0 1 .632-.253c.246 0 .453.084.621.252a.844.844 0 0 1 .252.621c0 .274-.087.488-.263.645a.89.89 0 0 1-.61.234z"/>
        </g>
    </g>
</svg>
