<?xml version="1.0" encoding="utf-8"?>
<!-- Generator: Adobe Illustrator 24.3.0, SVG Export Plug-In . SVG Version: 6.00 Build 0)  -->
<svg version="1.1" id="Layer_1" xmlns="http://www.w3.org/2000/svg" xmlns:xlink="http://www.w3.org/1999/xlink" x="0px" y="0px"
	 viewBox="0 0 50 50" style="enable-background:new 0 0 50 50;" xml:space="preserve">
<style type="text/css">
	.st0{fill:none;}
	.st1{fill-rule:evenodd;clip-rule:evenodd;fill:#898989;}
</style>
<g>
	<g>
		<g>
			<g>
				<g>
					<path class="st0" d="M0.9,0.9h48.2v48.2H0.9V0.9z"/>
					<g>
						<path class="st1" d="M25,0.9c13.3,0,24.1,10.8,24.1,24.1S38.3,49.1,25,49.1S0.9,38.3,0.9,25S11.7,0.9,25,0.9z M25,5.7
							C14.4,5.7,5.7,14.4,5.7,25S14.4,44.3,25,44.3S44.3,35.6,44.3,25S35.6,5.7,25,5.7z"/>
						<path class="st1" d="M17.8,21.3c0-0.9,0.3-1.8,0.9-2.7c0.6-0.9,1.4-1.7,2.5-2.3c1.1-0.6,2.4-0.9,3.9-0.9
							c1.4,0,2.6,0.3,3.6,0.8c1,0.5,1.9,1.2,2.4,2.1c0.6,0.9,0.9,1.8,0.9,2.8c0,0.8-0.2,1.5-0.5,2.1c-0.3,0.6-0.7,1.1-1.2,1.6
							c-0.4,0.4-1.2,1.2-2.4,2.2c-0.3,0.3-0.6,0.5-0.8,0.8s-0.3,0.4-0.4,0.6c-0.1,0.2-0.2,0.4-0.2,0.5c-0.1,0.2-0.1,0.5-0.2,1
							c-0.2,1-0.7,1.5-1.7,1.5c-0.5,0-0.9-0.2-1.2-0.5c-0.3-0.3-0.5-0.8-0.5-1.4c0-0.8,0.1-1.5,0.4-2.1c0.2-0.6,0.6-1.1,1-1.5
							c0.4-0.4,0.9-1,1.6-1.6c0.6-0.5,1-0.9,1.3-1.2c0.3-0.3,0.5-0.6,0.7-0.9c0.2-0.3,0.3-0.7,0.3-1.1c0-0.8-0.3-1.4-0.8-1.9
							c-0.6-0.5-1.3-0.8-2.2-0.8c-1,0-1.8,0.3-2.3,0.8c-0.5,0.5-0.9,1.3-1.2,2.3c-0.3,1.1-0.9,1.6-1.8,1.6c-0.5,0-1-0.2-1.3-0.6
							C18,22.1,17.8,21.7,17.8,21.3z M24.7,36.7c-0.6,0-1.1-0.2-1.5-0.6c-0.4-0.4-0.6-0.9-0.6-1.6c0-0.6,0.2-1.1,0.6-1.5
							c0.4-0.4,0.9-0.6,1.5-0.6c0.6,0,1.1,0.2,1.5,0.6c0.4,0.4,0.6,0.9,0.6,1.5c0,0.7-0.2,1.2-0.6,1.6
							C25.7,36.5,25.2,36.7,24.7,36.7L24.7,36.7z"/>
					</g>
				</g>
			</g>
		</g>
	</g>
</g>
</svg>
