<svg xmlns="http://www.w3.org/2000/svg" width="50" height="50" viewBox="0 0 50 50">
    <g fill="none" fill-rule="evenodd">
        <g>
            <g>
                <path d="M15 15H35V35H15z" transform="translate(-12 -126) translate(12 126)"/>
                <g fill="#898989" fill-rule="nonzero">
                    <path d="M19.695 18.531l-4.842-5.036c1.245-1.48 1.927-3.342 1.927-5.28C16.78 3.684 13.095 0 8.566 0 4.036 0 .35 3.685.35 8.214c0 4.53 3.685 8.215 8.215 8.215 1.7 0 3.32-.513 4.706-1.487l4.879 5.074c.204.212.478.329.772.329.278 0 .542-.106.742-.299.426-.41.44-1.089.03-1.515zM8.565 2.143c3.349 0 6.072 2.723 6.072 6.071s-2.723 6.072-6.071 6.072-6.072-2.724-6.072-6.072 2.724-6.071 6.072-6.071z" transform="translate(-12 -126) translate(12 126) translate(15 15)"/>
                </g>
            </g>
        </g>
    </g>
</svg>
