<svg id="Layer_1" enable-background="new 0 0 512 512" height="512" viewBox="0 0 512 512" width="512" xmlns="http://www.w3.org/2000/svg"><g><path d="m505.168 405.042-205.405-348.124c-9.022-15.295-25.792-24.797-43.763-24.797s-34.739 9.502-43.762 24.796l-205.405 348.122c-9.114 15.439-9.111 34.624.012 50.07 9.031 15.278 25.794 24.77 43.748 24.77h410.813c17.955 0 34.718-9.492 43.751-24.774 9.12-15.442 9.124-34.626.011-50.063z" fill="#ffdc3c"/><path d="m505.157 455.105c9.12-15.442 9.124-34.626.011-50.063l-205.405-348.124c-9.022-15.295-25.792-24.797-43.763-24.797v447.759h205.407c17.954-.001 34.717-9.492 43.75-24.775z" fill="#ffb428"/><path d="m479.326 439.85c-3.655 6.183-10.523 10.03-17.919 10.03h-410.814c-7.396 0-14.264-3.845-17.923-10.035-3.56-6.027-3.562-13.524-.003-19.555l205.408-348.128c3.654-6.194 10.522-10.041 17.924-10.041 7.403 0 14.271 3.847 17.924 10.04l205.407 348.127c3.563 6.033 3.56 13.527-.004 19.562z" fill="#ffff82"/><path d="m479.326 439.85c3.564-6.035 3.567-13.528.005-19.563l-205.407-348.127c-3.653-6.192-10.521-10.04-17.924-10.04v387.759h205.407c7.396 0 14.264-3.846 17.919-10.029z" fill="#ffdc3c"/><path d="m225.155 64.565h.01z"/><circle cx="256" cy="385.588" fill="#004b69" r="30"/><path d="m286 385.588c0-16.542-13.458-30-30-30v60c16.542 0 30-13.458 30-30z" fill="#00283c"/><path d="m256 321.327c-16.223 0-30-13.084-30-30v-100.653c0-16.542 13.458-30 30-30 16.223 0 30 13.084 30 30v100.653c0 16.542-13.458 30-30 30z" fill="#004b69"/><path d="m286 291.327v-100.653c0-16.916-13.777-30-30-30v160.653c16.542 0 30-13.458 30-30z" fill="#00283c"/></g></svg>