<?xml version="1.0" encoding="utf-8"?>
<!-- Generator: Adobe Illustrator 24.1.2, SVG Export Plug-In . SVG Version: 6.00 Build 0)  -->
<svg version="1.1" id="Layer_1" xmlns="http://www.w3.org/2000/svg" xmlns:xlink="http://www.w3.org/1999/xlink" x="0px" y="0px"
	 viewBox="0 0 26 12" style="enable-background:new 0 0 26 12;" xml:space="preserve">
<style type="text/css">
	.st0{fill:none;}
	.st1{fill:#2DD5C4;stroke:#2DD5C4;}
</style>
<g>
	<path class="st0" d="M3-4h20v20H3V-4z"/>
	<path class="st1" d="M23.3,2.2c-2.1-2.1-5.5-2.1-7.6,0l-1.1,1.1c-0.3,0.3-0.3,0.8,0,1c0.3,0.3,0.8,0.3,1,0l1.1-1.1
		c1.5-1.5,4-1.5,5.5,0c1.5,1.5,1.5,4,0,5.5c-1.5,1.5-4,1.5-5.5,0l-6.5-6.5c-2.1-2.1-5.5-2.1-7.6,0c-2.1,2.1-2.1,5.5,0,7.6
		c2.1,2.1,5.5,2.1,7.6,0l1-1c0.3-0.3,0.3-0.8,0-1c-0.3-0.3-0.8-0.3-1,0l-1,1c-1.5,1.5-4,1.5-5.5,0c-1.5-1.5-1.5-4,0-5.5
		c1.5-1.5,4-1.5,5.5,0l6.5,6.5c2.1,2.1,5.5,2.1,7.6,0C25.4,7.7,25.4,4.3,23.3,2.2z"/>
</g>
</svg>
