<?xml version="1.0" encoding="utf-8"?>
<!-- Generator: Adobe Illustrator 24.1.2, SVG Export Plug-In . SVG Version: 6.00 Build 0)  -->
<svg version="1.1" id="Layer_1" xmlns="http://www.w3.org/2000/svg" xmlns:xlink="http://www.w3.org/1999/xlink" x="0px" y="0px"
	 viewBox="0 0 32.5 27.7" style="enable-background:new 0 0 32.5 27.7;" xml:space="preserve">
<style type="text/css">
	.st0{fill:none;}
	.st1{fill:#2DCEF3;stroke:#2DCEF3;}
</style>
<g>
	<path class="st0" d="M4.2,2h24v24h-24C4.2,26,4.2,2,4.2,2z"/>
	<path class="st1" d="M28.7,9.4c-2.5-2.5-6.6-2.5-9.1,0l-1.3,1.3C18,11,18,11.6,18.3,12c0.3,0.3,0.9,0.3,1.3,0l1.3-1.3
		c1.8-1.8,4.8-1.8,6.6,0s1.8,4.8,0,6.6s-4.8,1.8-6.6,0L13,9.4c-2.5-2.5-6.6-2.5-9.1,0s-2.5,6.6,0,9.1s6.6,2.5,9.1,0l1.3-1.3
		c0.3-0.3,0.3-0.9,0-1.3c-0.3-0.3-0.9-0.3-1.3,0l-1.3,1.2c-1.8,1.8-4.8,1.8-6.6,0s-1.8-4.8,0-6.6c1.8-1.8,4.8-1.8,6.6,0l7.9,7.9
		c2.5,2.5,6.6,2.5,9.1,0C31.2,16,31.2,12,28.7,9.4L28.7,9.4z"/>
</g>
</svg>
