<?xml version="1.0" encoding="utf-8"?>
<!-- Generator: Adobe Illustrator 25.1.0, SVG Export Plug-In . SVG Version: 6.00 Build 0)  -->
<svg version="1.1" id="Layer_1" xmlns="http://www.w3.org/2000/svg" xmlns:xlink="http://www.w3.org/1999/xlink" x="0px" y="0px"
	 viewBox="0 0 47 47" style="enable-background:new 0 0 47 47;" xml:space="preserve">
<style type="text/css">
	.st0{fill:none;}
	.st1{fill:#ED2324;stroke:#ED2324;stroke-width:0.9;}
	.st2{fill:#ED2324;stroke:#ED2324;}
</style>
<g transform="translate(-200 -1)">
	<g>
		<path class="st0" d="M213.9,15.5h18.5V34h-18.5V15.5z"/>
		<g>
			<path class="st1" d="M228.8,22.6c-0.2-0.5-0.2-1,0-1.4c0.2-0.5,0.2-0.9,0.1-1.3c-0.1-0.4-0.4-0.7-0.9-1c-0.4-0.2-0.7-0.7-0.8-1.2
				c-0.1-0.5-0.3-0.9-0.7-1.1c-0.4-0.3-0.8-0.4-1.3-0.3c-0.5,0.1-1-0.1-1.4-0.4c-0.3-0.3-0.7-0.4-1.1-0.4c-0.4,0-0.8,0.2-1.2,0.5
				c-0.4,0.3-0.8,0.5-1.3,0.4c-0.5-0.1-0.9,0-1.2,0.3c-0.3,0.2-0.5,0.6-0.6,1.1c-0.1,0.5-0.4,0.9-0.8,1.1c-0.4,0.2-0.7,0.6-0.8,1
				c-0.1,0.4-0.1,0.8,0.1,1.3c0.2,0.5,0.2,1,0,1.4c-0.2,0.5-0.2,0.9-0.1,1.3c0.1,0.4,0.4,0.7,0.8,1c0.4,0.2,0.7,0.7,0.8,1.1
				c0.1,0.5,0.3,0.9,0.7,1.1c0.2,0.1,0.4,0.2,0.6,0.3v6.3c0,0.1,0.1,0.3,0.2,0.3c0.1,0.1,0.3,0,0.4,0l2.6-2.2l2.6,2.2
				c0.1,0.1,0.1,0.1,0.2,0.1c0.1,0,0.1,0,0.2,0c0.1-0.1,0.2-0.2,0.2-0.3v-6.2c0.2,0,0.4-0.1,0.6-0.3c0.3-0.3,0.6-0.6,0.7-1.1
				c0.1-0.5,0.4-0.9,0.8-1.2c0.4-0.2,0.7-0.6,0.8-1C229,23.5,229,23.1,228.8,22.6z M223,31c-0.1-0.1-0.2-0.1-0.2-0.1s-0.2,0-0.2,0.1
				l-2.2,1.9v-5.5c0.5,0,0.9,0.2,1.2,0.5c0.4,0.4,0.8,0.6,1.2,0.6c0.4,0,0.8-0.2,1.2-0.5c0.4-0.3,0.8-0.5,1.3-0.5v5.4L223,31L223,31
				z M228.2,23.7c-0.1,0.2-0.2,0.4-0.5,0.6c-0.6,0.4-1.1,1-1.2,1.7c-0.1,0.3-0.2,0.5-0.4,0.7c-0.1,0.1-0.3,0.2-0.5,0.2
				c-0.1,0-0.1,0-0.2,0c-0.7-0.1-1.4,0.2-1.9,0.6c-0.2,0.2-0.5,0.3-0.7,0.3c-0.2,0-0.5-0.1-0.7-0.4c-0.5-0.5-1.1-0.7-1.7-0.7
				c-0.1,0-0.1,0-0.2,0c0,0-0.1,0-0.1,0c-0.2,0-0.4-0.1-0.5-0.2c-0.2-0.1-0.3-0.4-0.4-0.7c-0.1-0.7-0.6-1.3-1.2-1.6
				c-0.3-0.2-0.4-0.3-0.5-0.5c-0.1-0.2,0-0.5,0.1-0.8c0.3-0.6,0.3-1.4,0-2c-0.1-0.3-0.1-0.5-0.1-0.7c0.1-0.2,0.2-0.4,0.5-0.6
				c0.6-0.3,1-0.9,1.2-1.6c0.1-0.3,0.2-0.5,0.4-0.6c0.2-0.1,0.4-0.2,0.7-0.1c0.7,0.1,1.4-0.1,1.9-0.6c0.2-0.2,0.4-0.3,0.7-0.3
				c0.2,0,0.4,0.1,0.6,0.3c0.5,0.5,1.2,0.7,1.9,0.6c0.3,0,0.6,0,0.8,0.1c0.2,0.1,0.3,0.4,0.4,0.7c0.1,0.7,0.6,1.3,1.2,1.7
				c0.3,0.2,0.5,0.3,0.5,0.6c0.1,0.2,0,0.5-0.1,0.8c-0.3,0.7-0.3,1.4,0,2.1C228.2,23.2,228.3,23.5,228.2,23.7z"/>
			<path class="st2" d="M222.8,18.9c-1.7,0-3.1,1.4-3.1,3.1s1.4,3.1,3.1,3.1c1.7,0,3.1-1.4,3.1-3.1
				C225.9,20.3,224.5,18.9,222.8,18.9z M222.8,24.6c-1.4,0-2.6-1.2-2.6-2.6s1.2-2.6,2.6-2.6c1.4,0,2.6,1.2,2.6,2.6
				S224.2,24.6,222.8,24.6z"/>
		</g>
	</g>
</g>
</svg>
