<svg xmlns="http://www.w3.org/2000/svg" width="47" height="47" viewBox="0 0 47 47">
    <defs>
        <filter id="prefix__a" width="165%" height="474.5%" x="-32.5%" y="-181.8%" filterUnits="objectBoundingBox">
            <feOffset dy="-2" in="SourceAlpha" result="shadowOffsetOuter1"/>
            <feGaussianBlur in="shadowOffsetOuter1" result="shadowBlurOuter1" stdDeviation="25"/>
            <feColorMatrix in="shadowBlurOuter1" result="shadowMatrixOuter1" values="0 0 0 0 0.878431373 0 0 0 0 0.878431373 0 0 0 0 0.878431373 0 0 0 1 0"/>
            <feMerge>
                <feMergeNode in="shadowMatrixOuter1"/>
                <feMergeNode in="SourceGraphic"/>
            </feMerge>
        </filter>
    </defs>
    <g fill="none" fill-rule="evenodd" filter="url(#prefix__a)" transform="translate(-200 -1)">
        <g>
            <path d="M0 0H18.489V18.489H0z" transform="translate(213.867 15.533)"/>
            <g fill="#AAA" fill-rule="nonzero" stroke="#AAA">
                <path stroke-width=".9" d="M12.125 7.092c-.209-.453-.209-.977-.002-1.44.204-.453.242-.884.115-1.281-.13-.404-.42-.734-.86-.981-.432-.243-.737-.667-.839-1.164-.1-.488-.319-.86-.653-1.105-.35-.256-.789-.35-1.307-.278C8.1.909 7.606.76 7.223.437 6.88.147 6.512 0 6.129 0c-.407 0-.796.165-1.156.492-.365.33-.849.489-1.327.434-.492-.057-.911.04-1.246.286-.33.241-.548.606-.65 1.084-.102.484-.401.899-.82 1.138-.43.247-.714.574-.842.971-.126.391-.09.816.106 1.263.198.452.198.966-.001 1.408-.205.455-.244.888-.116 1.286.126.39.402.713.82.958.424.248.723.664.819 1.14.099.49.319.863.654 1.109.174.127.372.215.591.261v6.29c0 .143.082.273.21.334.127.06.278.042.387-.049l2.605-2.16 2.605 2.16c.067.055.149.084.232.084.053 0 .106-.012.156-.036.127-.06.208-.19.208-.332v-6.21c.204-.048.389-.132.552-.252.34-.25.561-.629.658-1.129.095-.49.4-.914.837-1.165.428-.246.71-.572.838-.969.13-.403.088-.842-.124-1.304zm-5.73 8.392c-.068-.056-.15-.084-.232-.084-.082 0-.164.028-.231.084L3.69 17.342v-5.484c.453.003.885.178 1.205.492.381.374.796.564 1.233.564.42 0 .82-.176 1.19-.522.352-.331.83-.494 1.316-.45v5.4l-2.24-1.858zm5.16-7.316c-.07.217-.24.404-.505.557-.621.357-1.056.963-1.192 1.664-.06.311-.185.538-.37.674-.134.098-.303.152-.503.16-.073.003-.15 0-.23-.01-.711-.08-1.416.153-1.933.64-.23.215-.463.325-.693.325-.24 0-.484-.12-.724-.356-.46-.451-1.08-.701-1.728-.701-.067 0-.134.002-.201.008-.048.003-.096.005-.144.004-.214-.003-.393-.057-.533-.16-.183-.134-.307-.356-.369-.66-.138-.682-.563-1.276-1.167-1.63-.258-.151-.424-.336-.493-.55-.07-.216-.04-.47.087-.752.285-.634.287-1.367.004-2.011-.121-.276-.148-.524-.08-.737.07-.217.241-.405.509-.558.6-.343 1.027-.935 1.174-1.625.062-.295.185-.51.364-.643.183-.134.43-.184.736-.15.685.08 1.376-.146 1.896-.617.222-.201.447-.303.669-.303.207 0 .417.089.625.265.54.457 1.242.665 1.924.57.325-.044.587.004.78.145.181.134.305.355.367.657.144.708.58 1.313 1.198 1.66.275.154.45.344.521.564.07.217.041.47-.085.75-.295.658-.294 1.407.004 2.054.132.288.163.546.092.766z" transform="translate(213.867 15.533) translate(2.773)"/>
                <path d="M6.163 3.345c-1.7 0-3.082 1.396-3.082 3.112 0 1.716 1.383 3.112 3.082 3.112 1.7 0 3.081-1.396 3.081-3.112 0-1.716-1.382-3.112-3.081-3.112zm0 5.707c-1.417 0-2.57-1.164-2.57-2.595 0-1.431 1.153-2.595 2.57-2.595 1.417 0 2.57 1.164 2.57 2.595 0 1.431-1.153 2.595-2.57 2.595z" transform="translate(213.867 15.533) translate(2.773)"/>
            </g>
        </g>
    </g>
</svg>
