<svg xmlns="http://www.w3.org/2000/svg" width="50" height="50" viewBox="0 0 50 50">
    <g fill="none" fill-rule="evenodd">
        <path d="M0 0H20V20H0z" transform="translate(15 15)"/>
        <g fill="#FFD600" fill-rule="nonzero" transform="translate(15 15)">
            <path stroke="#FFD600" d="M10 0C4.473 0 0 4.473 0 10s4.473 10 10 10 10-4.473 10-10S15.527 0 10 0zm0 18.438c-4.664 0-8.438-3.775-8.438-8.438 0-4.664 3.775-8.438 8.438-8.438 4.664 0 8.438 3.775 8.438 8.438 0 4.664-3.775 8.438-8.438 8.438z"/>
            <path d="M10 5.042c-.418 0-.756.348-.756.777v5.001c0 .429.338.777.756.777s.756-.348.756-.777V5.819c0-.43-.338-.777-.756-.777z"/>
            <circle cx="10" cy="13.697" r="1.092"/>
        </g>
    </g>
</svg>
