<svg xmlns="http://www.w3.org/2000/svg" xmlns:xlink="http://www.w3.org/1999/xlink" width="86" height="52" viewBox="0 0 86 52">
    <defs>
        <rect id="gh8ik981ea" width="86" height="52" x="0" y="0" rx="8"/>
    </defs>
    <g fill="none" fill-rule="evenodd">
        <g>
            <g>
                <g>
                    <g>
                        <g transform="translate(-77 -237) translate(0 24) translate(29 127) translate(7 86) translate(41)">
                            <mask id="7zjob2adrb" fill="#fff">
                                <use xlink:href="#gh8ik981ea"/>
                            </mask>
                            <use fill="#F4F4F4" xlink:href="#gh8ik981ea"/>
                            <path fill="#D8D8D8" d="M15 22H74V41H15z" mask="url(#7zjob2adrb)"/>
                            <path fill="#B7B7B7" d="M-5.168 15.372l1.86-3.51h.967l-2.378 4.37V19h-.903v-2.73L-8 11.862h.981l1.851 3.511zm9.932.049c0 1.142-.29 2.04-.867 2.695-.578.655-1.386.982-2.424.982-1.052 0-1.865-.322-2.44-.965-.574-.643-.861-1.55-.861-2.722 0-1.162.286-2.063.857-2.703.571-.64 1.389-.959 2.453-.959 1.036 0 1.841.325 2.417.974.577.65.865 1.549.865 2.698zm-5.645 0c0 .944.2 1.663.6 2.158.401.495.985.742 1.754.742.765 0 1.346-.244 1.743-.732s.596-1.211.596-2.168c0-.954-.197-1.672-.591-2.156-.394-.483-.974-.725-1.739-.725-.774 0-1.362.245-1.762.735-.4.49-.6 1.205-.6 2.146zm12.652-3.56v4.62c0 .813-.246 1.453-.738 1.918-.491.466-1.173.699-2.046.699-.862 0-1.531-.236-2.007-.706-.475-.47-.712-1.114-.712-1.931v-4.6h.903v4.63c0 .582.155 1.033.466 1.352.311.319.779.478 1.404.478.59 0 1.042-.158 1.36-.473.317-.316.476-.772.476-1.368v-4.619h.894zm2.778 3.428h1.07c.579 0 1.002-.114 1.269-.342.267-.228.4-.566.4-1.015 0-.45-.135-.778-.405-.984-.27-.207-.708-.31-1.314-.31h-1.02v2.651zm0 .762V19h-.899v-7.139h1.968c.886 0 1.54.169 1.965.506.425.337.638.844.638 1.52 0 .948-.477 1.586-1.431 1.915L18.748 19h-1.05l-1.728-2.95h-1.421zm8.818-.762h1.07c.579 0 1.002-.114 1.27-.342.266-.228.4-.566.4-1.015 0-.45-.136-.778-.406-.984-.27-.207-.708-.31-1.313-.31h-1.02v2.651zm0 .762V19h-.898v-7.139h1.968c.885 0 1.54.169 1.965.506.425.337.637.844.637 1.52 0 .948-.477 1.586-1.43 1.915L27.565 19h-1.05l-1.728-2.95h-1.42zM32.68 19h-3.99v-7.139h3.99v.791h-3.091v2.227h2.91v.781h-2.91v2.549h3.09V19zm2.47 0h-.898v-7.139h3.99v.791h-3.092v2.53h2.9v.786h-2.9V19zm5.19 0h-.898v-7.139h3.99v.791H40.34v2.53h2.9v.786h-2.9V19zm8.282 0h-3.99v-7.139h3.99v.791h-3.09v2.227h2.91v.781h-2.91v2.549h3.09V19zm2.47-3.71h1.07c.58 0 1.003-.115 1.27-.343.267-.228.4-.566.4-1.015 0-.45-.135-.778-.405-.984-.27-.207-.708-.31-1.314-.31h-1.02v2.651zm0 .76V19h-.898v-7.139h1.968c.886 0 1.54.169 1.965.506.425.337.638.844.638 1.52 0 .948-.477 1.586-1.431 1.915L55.291 19h-1.05l-1.728-2.95h-1.421zm9.8 2.95l-.859-2.212H57.2L56.35 19h-.908l2.788-7.168h.811L61.824 19h-.932zm-1.127-3.008l-.801-2.163-.342-1.07c-.098.391-.2.748-.308 1.07l-.81 2.163h2.26zM62.806 19v-7.139h.898V18.2h3.12V19h-4.018zm10.893-6.45c-.768 0-1.372.257-1.811.771-.44.515-.66 1.218-.66 2.11 0 .92.214 1.631.64 2.131.427.5 1.034.75 1.821.75.508 0 1.08-.095 1.714-.284v.782c-.302.11-.594.186-.874.227-.28.04-.602.06-.966.06-1.052 0-1.862-.32-2.43-.959-.568-.64-.852-1.545-.852-2.717 0-.736.136-1.38.408-1.934.272-.553.667-.98 1.186-1.279.52-.3 1.13-.45 1.834-.45.755 0 1.413.14 1.973.42l-.362.762c-.57-.26-1.11-.39-1.62-.39zm9.395 2.87c0 1.143-.29 2.042-.867 2.696-.578.655-1.386.982-2.424.982-1.052 0-1.865-.322-2.44-.965-.574-.643-.861-1.55-.861-2.722 0-1.162.286-2.063.857-2.703.571-.64 1.389-.959 2.454-.959 1.035 0 1.84.325 2.416.974.577.65.865 1.549.865 2.698zm-5.645 0c0 .945.2 1.664.6 2.16.401.494.986.741 1.754.741.765 0 1.346-.244 1.743-.732s.596-1.211.596-2.168c0-.954-.197-1.672-.591-2.156-.394-.483-.974-.725-1.739-.725-.774 0-1.362.245-1.762.735-.4.49-.6 1.205-.6 2.146zm12.94-.058c0 1.179-.322 2.08-.965 2.703-.643.623-1.565.935-2.766.935h-1.987v-7.139h2.197c1.11 0 1.974.306 2.593.916.618.61.928 1.472.928 2.585zm-.948.03c0-.909-.223-1.596-.671-2.063-.448-.468-1.124-.701-2.029-.701H85.57v5.6h.972c1.934 0 2.9-.945 2.9-2.836zM95.96 19h-3.99v-7.139h3.99v.791h-3.09v2.227h2.91v.781h-2.91v2.549h3.09V19z" mask="url(#7zjob2adrb)"/>
                            <path fill="#7F7F7F" d="M23.962 27.006v6.467c0 1.139-.344 2.034-1.032 2.686-.688.652-1.643.978-2.865.978-1.207 0-2.144-.33-2.81-.988-.665-.659-.997-1.56-.997-2.704v-6.44h1.264v6.481c0 .816.218 1.447.653 1.894.436.446 1.09.67 1.966.67.824 0 1.46-.221 1.903-.663.445-.442.667-1.08.667-1.914v-6.467h1.25zM30.203 37H29v-6.986c0-.62.018-1.194.055-1.723-.128.137-.265.264-.41.383-.465.387-.973.806-1.525 1.258l-.642-.828 2.707-2.098h1.018V37zm10.316 0h-6.61v-1.025l2.617-2.646c.789-.797 1.31-1.367 1.566-1.709.255-.342.445-.672.57-.991.126-.32.189-.663.189-1.032 0-.529-.158-.941-.472-1.238-.315-.296-.745-.444-1.292-.444-.41 0-.799.068-1.166.205-.366.137-.78.385-1.24.745l-.657-.827c.935-.784 1.955-1.176 3.063-1.176.93 0 1.667.238 2.211.715.545.476.817 1.124.817 1.944 0 .438-.08.86-.239 1.269-.16.407-.399.822-.718 1.244-.319.421-.854.999-1.606 1.733l-2.085 2.057v.055h5.052V37zm8.449-2.27h-1.45V37h-1.196v-2.27h-4.785v-1.045l4.703-6.734h1.279v6.672h1.449v1.107zm-2.646-1.107v-3.144c0-.625.025-1.363.075-2.215h-.061c-.05.118-.138.296-.263.533-.126.237-.238.424-.339.56l-2.994 4.266h3.582zM54.218 37h-1.203v-6.986c0-.62.018-1.194.054-1.723-.127.137-.264.264-.41.383-.465.387-.973.806-1.524 1.258l-.643-.828 2.707-2.098h1.019V37zm10.315 0h-6.61v-1.025l2.618-2.646c.788-.797 1.31-1.367 1.565-1.709.256-.342.446-.672.571-.991.126-.32.188-.663.188-1.032 0-.529-.157-.941-.471-1.238-.315-.296-.746-.444-1.292-.444-.41 0-.8.068-1.166.205-.367.137-.78.385-1.24.745l-.657-.827c.934-.784 1.955-1.176 3.063-1.176.93 0 1.666.238 2.211.715.545.476.817 1.124.817 1.944 0 .438-.08.86-.24 1.269-.159.407-.398.822-.717 1.244-.32.421-.855.999-1.607 1.733l-2.085 2.057v.055h5.052V37zm7.63-7.656c0 .638-.18 1.162-.538 1.572-.357.41-.869.684-1.534.82v.055c.797.1 1.393.355 1.787.766.395.41.592.943.592 1.6 0 .952-.33 1.687-.991 2.204-.661.517-1.61.776-2.844.776-.529 0-1.015-.039-1.46-.116-.444-.078-.874-.22-1.288-.424v-1.149c.424.21.877.372 1.36.486.483.114.95.17 1.401.17 1.687 0 2.53-.658 2.53-1.975 0-1.176-.932-1.764-2.796-1.764h-.97V31.32h.984c.783 0 1.396-.167 1.838-.502.442-.335.663-.799.663-1.391 0-.479-.16-.852-.481-1.121-.322-.27-.767-.404-1.337-.404-.442 0-.851.06-1.227.182-.376.12-.808.34-1.295.66l-.616-.842c.41-.323.883-.577 1.419-.762.535-.184 1.104-.277 1.705-.277.976 0 1.736.222 2.28.667.545.444.817 1.05.817 1.815z" mask="url(#7zjob2adrb)"/>
                        </g>
                    </g>
                </g>
            </g>
        </g>
    </g>
</svg>
