<?xml version="1.0" encoding="UTF-8"?> <svg xmlns="http://www.w3.org/2000/svg" width="468" height="111"> <g fill="#FFF" fill-rule="nonzero"> <path d="M428.9 67.6h10.2L434 55.3zM439.1.7h-10.2L434 13zM400.5 29.1v10.1l12.3-5zM467.4 39.2V29.1l-12.3 5.1zM461.2 14.1L454 6.9l-5.1 12.3zM406.7 54.2l7.2 7.2 5.1-12.3zM454 61.4l7.2-7.2-12.3-5.1zM413.9 6.9l-7.2 7.2 12.3 5.1z"></path> <path opacity=".6" d="M436.8 48.4l-2.8 6.9 5.1 12.3h3V53.7zM428.9.7h-3v13.9l5.2 5.3L434 13z"></path> <path opacity=".6" d="M448.9 49.1l-6.8-2.8v7.4l9.8 9.8 2.1-2.1zM416 4.8l-2.1 2.1 5.1 12.3 6.9 2.8v-7.4zM453.5 26.1l-5.3 5.2 6.9 2.9 12.3-5.1v-3zM412.8 34.2l-12.3 5v3h13.9l5.3-5.2zM414.4 42.2l-9.8 9.9 2.1 2.1 12.3-5.1 2.9-6.9zM461.2 14.1l-12.3 5.1-2.8 6.9h7.4l9.8-9.9zM431.1 48.4l-5.2 5.3v13.9h3l5.1-12.3zM439.1.7L434 13l2.8 6.9 5.3-5.3V.7z"></path> <path opacity=".6" d="M451.9 4.8l-9.8 9.8V22l6.8-2.8L454 6.9zM419 49.1l-5.1 12.3 2.1 2.1 9.9-9.8v-7.4z"></path> <path opacity=".4" d="M436.8 19.9L434 13l-2.9 6.9 2.9 2.8zM431.1 48.4l2.9 6.9 2.8-6.9-2.8-2.8zM421.9 42.2l-2.9 6.9 6.9-2.8v-4.1zM446.1 26.1l2.8-6.9-6.8 2.8v4.1z"></path> <path opacity=".6" d="M414.4 26.1h-13.9v3l12.3 5.1 6.9-2.9zM455.1 34.2l-6.9 2.8 5.3 5.2h13.9v-3zM453.5 42.2h-7.4l2.8 6.9 12.3 5.1 2.1-2.1zM419 19.2l-12.3-5.1-2.1 2.1 9.8 9.9h7.5z"></path> <path opacity=".4" d="M442.1 46.3l6.8 2.8-2.8-6.9h-4zM425.9 22l-6.9-2.8 2.9 6.9h4zM419.7 31.3l-6.9 2.9 6.9 2.8 2.8-2.8zM445.4 34.2l2.8 2.8 6.9-2.8-6.9-2.9z"></path> <path d="M.6 42.3h12v67H.6zM24.1 42.3H41l18.9 52.1h.2l18.4-52.1h16.7v67H83.8v-53h-.2l-19 52.9h-9.9l-19-52.9h-.2v52.9H24.1zM106.7 42.3h12v67h-12z"></path> <path d="M138 59.6v7.3h.2c3.7-5.6 9.1-8.5 16-8.5 3.1 0 5.9.6 8.4 1.9 2.5 1.3 4.3 3.5 5.3 6.5 1.7-2.7 3.9-4.8 6.6-6.2 2.7-1.5 5.7-2.2 9-2.2 2.5 0 4.8.3 6.8.8s3.7 1.4 5.2 2.5c1.4 1.2 2.6 2.6 3.4 4.5.8 1.8 1.2 4 1.2 6.6v36.4h-8.2V76.6c0-1.5-.1-3-.4-4.3-.3-1.3-.7-2.5-1.4-3.5s-1.7-1.8-2.9-2.4c-1.2-.6-2.9-.9-4.9-.9-4 0-7.2 1.2-9.5 3.5s-3.5 5.4-3.5 9.2v30.9h-8.2V76.5c0-1.6-.1-3.1-.4-4.4-.3-1.3-.8-2.5-1.5-3.5s-1.7-1.8-2.8-2.3c-1.2-.5-2.7-.8-4.6-.8-2.4 0-4.4.5-6.1 1.4-1.7 1-3.1 2.1-4.1 3.5-1.1 1.3-1.8 2.7-2.3 4.2-.5 1.4-.7 2.6-.7 3.6v30.9h-8.2V59.6h7.6zM209.2 74.2c1-3.2 2.6-5.9 4.6-8.3 2-2.3 4.6-4.2 7.6-5.5 3-1.3 6.5-2 10.4-2 4 0 7.4.7 10.4 2s5.5 3.2 7.5 5.5 3.6 5.1 4.6 8.3c1 3.2 1.5 6.6 1.5 10.2 0 3.7-.5 7-1.5 10.2-1 3.1-2.6 5.9-4.6 8.2-2.1 2.3-4.6 4.2-7.5 5.5-3 1.3-6.5 2-10.4 2-3.9 0-7.4-.7-10.4-2s-5.5-3.1-7.6-5.5c-2.1-2.3-3.6-5.1-4.6-8.2-1-3.1-1.5-6.5-1.5-10.2 0-3.6.5-7 1.5-10.2zm8.3 18.3c.8 2.3 1.9 4.3 3.3 5.9 1.4 1.6 3.1 2.8 4.9 3.6 1.9.8 3.9 1.2 6 1.2s4.1-.4 6-1.2c1.9-.8 3.5-2 4.9-3.6 1.4-1.6 2.5-3.5 3.3-5.9.8-2.3 1.2-5 1.2-8s-.4-5.7-1.2-8c-.8-2.3-1.9-4.3-3.3-5.9-1.4-1.6-3.1-2.8-4.9-3.7-1.9-.8-3.9-1.2-6-1.2s-4.1.4-6 1.2c-1.9.8-3.5 2-4.9 3.7-1.4 1.6-2.5 3.6-3.3 5.9-.8 2.3-1.2 5-1.2 8s.4 5.6 1.2 8zM272 42.3v24h.2c1.3-2.8 3.5-4.8 6.3-6 2.9-1.2 6.1-1.9 9.5-1.9 3.8 0 7.2.7 10 2.1 2.9 1.4 5.2 3.3 7.1 5.7 1.9 2.4 3.3 5.2 4.3 8.3 1 3.1 1.4 6.5 1.4 10s-.5 6.9-1.4 10c-.9 3.1-2.3 5.9-4.2 8.2-1.9 2.3-4.3 4.2-7.1 5.5-2.9 1.3-6.2 2-9.9 2-1.2 0-2.6-.1-4.1-.4-1.5-.3-3-.7-4.5-1.2-1.5-.6-2.9-1.4-4.2-2.4-1.3-1-2.4-2.2-3.3-3.7h-.1v6.6h-8.2v-67h8.2v.2zm29.4 34.9c-.6-2.2-1.5-4.2-2.8-5.9-1.3-1.7-2.8-3.1-4.8-4.1-2-1-4.2-1.5-6.9-1.5-2.8 0-5.1.5-7 1.6-1.9 1.1-3.5 2.5-4.7 4.3-1.2 1.8-2.1 3.8-2.6 6s-.8 4.5-.8 6.8c0 2.4.3 4.8.9 7.1.6 2.3 1.5 4.3 2.7 6 1.2 1.7 2.9 3.1 4.9 4.2 2 1.1 4.4 1.6 7.2 1.6s5.2-.5 7.1-1.6c1.9-1.1 3.4-2.5 4.6-4.3 1.2-1.8 2-3.8 2.5-6.2.5-2.3.8-4.7.8-7.1-.2-2.4-.5-4.7-1.1-6.9zM319.1 50.6v-8.4h8.2v8.4h-8.2zm8.2 9v49.7h-8.2V59.6h8.2zM346.7 42.3v67h-8.2v-67zM392.6 106.1c-3.7 2.8-8.4 4.2-14 4.2-4 0-7.4-.6-10.3-1.9-2.9-1.3-5.4-3.1-7.4-5.4-2-2.3-3.5-5.1-4.5-8.3-1-3.2-1.6-6.7-1.7-10.5 0-3.8.6-7.2 1.7-10.4 1.2-3.1 2.8-5.9 4.9-8.2 2.1-2.3 4.5-4.1 7.4-5.4 2.8-1.3 6-1.9 9.4-1.9 4.4 0 8.1.9 11 2.7 2.9 1.8 5.2 4.1 7 7 1.8 2.8 3 5.9 3.7 9.2.7 3.3.9 6.5.8 9.5h-37.2c-.1 2.2.2 4.2.8 6.2.6 2 1.5 3.7 2.8 5.2 1.3 1.5 2.9 2.7 4.9 3.6 2 .9 4.3 1.3 7 1.3 3.5 0 6.3-.8 8.5-2.4 2.2-1.6 3.7-4 4.4-7.3h8.1c-1.2 5.8-3.6 9.9-7.3 12.8zm-1.9-31.9c-.7-1.7-1.7-3.2-3-4.5-1.2-1.2-2.7-2.2-4.4-3-1.7-.7-3.6-1.1-5.6-1.1-2.1 0-4 .4-5.7 1.1-1.7.7-3.2 1.7-4.4 3-1.2 1.3-2.2 2.8-2.9 4.5-.7 1.7-1.1 3.5-1.2 5.4H392c-.2-1.9-.6-3.7-1.3-5.4z" opacity=".7"></path> </g> </svg> 