<?xml version="1.0" encoding="utf-8"?>
<!-- Generator: Adobe Illustrator 24.3.0, SVG Export Plug-In . SVG Version: 6.00 Build 0)  -->
<svg version="1.1" id="Layer_1" xmlns="http://www.w3.org/2000/svg" xmlns:xlink="http://www.w3.org/1999/xlink" x="0px" y="0px"
	 viewBox="0 0 50 50" style="enable-background:new 0 0 50 50;" xml:space="preserve">
<style type="text/css">
	.st0{fill:#898989;}
</style>
<g>
	<path class="st0" d="M45.5,5.8H4.6c-2.4,0-4.3,2-4.3,4.5v29.5c0,2.5,2,4.5,4.3,4.5h40.8c2.4,0,4.3-2,4.3-4.5V10.2
		C49.9,7.8,47.9,5.8,45.5,5.8z M42,10.1L25.2,27L8.1,10.1H42z M4.2,36.5V12.7l11.9,11.8L4.2,36.5z M6.5,40l13.1-13.1l4.6,4.6
		c0.5,0.5,1.4,0.5,1.9,0l4.5-4.5l13.1,13H6.5L6.5,40z M45.9,36.7L34,24.8l11.9-11.9C45.9,12.7,45.9,36.7,45.9,36.7z"/>
</g>
</svg>
