<?xml version="1.0" encoding="utf-8"?>
<!-- Generator: Adobe Illustrator 25.0.1, SVG Export Plug-In . SVG Version: 6.00 Build 0)  -->
<svg version="1.1" id="Layer_1" xmlns="http://www.w3.org/2000/svg" xmlns:xlink="http://www.w3.org/1999/xlink" x="0px" y="0px"
	 viewBox="0 0 512 512" style="enable-background:new 0 0 512 512;" xml:space="preserve">
<style type="text/css">
	.st0{fill:#898989;}
</style>
<g>
	<g>
		<path class="st0" d="M256,0C114.5,0,0,114.5,0,256c0,141.5,114.5,256,256,256c141.5,0,256-114.5,256-256C512,114.5,397.5,0,256,0z
			 M256,477.9c-122.3,0-221.9-99.5-221.9-221.9S133.7,34.1,256,34.1S477.9,133.7,477.9,256S378.3,477.9,256,477.9z"/>
	</g>
</g>
<g>
	<g>
		<path class="st0" d="M256,209.8c-9.4,0-17.1,7.6-17.1,17.1v144c0,9.4,7.6,17.1,17.1,17.1c9.4,0,17.1-7.6,17.1-17.1v-144
			C273.1,217.4,265.4,209.8,256,209.8z"/>
	</g>
</g>
<g>
	<g>
		<path class="st0" d="M256,124.1c-18.8,0-34.1,15.3-34.1,34.1s15.3,34.1,34.1,34.1s34.1-15.3,34.1-34.1S274.8,124.1,256,124.1z"/>
	</g>
</g>
</svg>
