<svg xmlns="http://www.w3.org/2000/svg" width="80" height="80" viewBox="0 0 80 80">
    <g fill="none" fill-rule="evenodd">
        <g fill="#898989" fill-rule="nonzero">
            <g>
                <path d="M39.2 40.922c-.845 0-1.588-.312-2.181-.92-.593-.607-.898-1.367-.898-2.232 0-.568.14-1.103.418-1.59.275-.482.648-.87 1.112-1.152.471-.287.993-.433 1.549-.433.554 0 1.077.144 1.554.429.473.283.853.671 1.129 1.155.278.488.418 1.023.418 1.59 0 .57-.141 1.104-.422 1.587-.276.474-.655.856-1.125 1.137-.477.285-1 .429-1.554.429zm0-1.683c.264 0 .5-.065.726-.2.23-.137.407-.316.54-.544.129-.22.192-.457.192-.725 0-.27-.064-.513-.195-.743-.133-.233-.31-.413-.537-.55-.225-.134-.462-.199-.726-.199-.262 0-.493.064-.708.196-.223.136-.398.317-.533.553-.13.23-.195.473-.195.743 0 .42.134.752.417 1.043.284.29.608.426 1.019.426zm0-8.839c1.313 0 2.53.33 3.64.992 1.084.655 1.95 1.543 2.594 2.657.643 1.131.966 2.377.966 3.72 0 1.025-.24 2.17-.713 3.446-.397 1.048-.943 2.172-1.644 3.389-.567.947-1.215 1.93-1.941 2.947-.51.72-1.048 1.425-1.62 2.119L39.2 51.2l-.624-.745-.662-.79c-.568-.69-1.107-1.394-1.613-2.11-.729-1.02-1.377-2.004-1.951-2.964-.694-1.204-1.24-2.328-1.639-3.382-.471-1.27-.711-2.415-.711-3.44 0-1.343.323-2.589.97-3.725.64-1.11 1.506-1.997 2.595-2.655 1.105-.659 2.322-.989 3.635-.989zm.03 18.18c.542-.658 1.055-1.33 1.542-2.019.703-.984 1.327-1.93 1.862-2.824.651-1.13 1.158-2.174 1.518-3.125.405-1.092.604-2.041.604-2.842 0-1.05-.247-2.002-.74-2.87-.5-.865-1.167-1.548-2.008-2.057-.852-.508-1.783-.76-2.808-.76s-1.956.252-2.804.758c-.845.51-1.512 1.194-2.009 2.054-.496.873-.743 1.826-.743 2.875 0 .8.199 1.75.602 2.836.362.957.869 2.001 1.512 3.118.543.907 1.167 1.853 1.872 2.84.485.687.998 1.358 1.537 2.01l.033.04.03-.035z" transform="translate(5 -191) translate(-5 191)"/>
            </g>
        </g>
    </g>
</svg>
