<svg xmlns="http://www.w3.org/2000/svg" xmlns:xlink="http://www.w3.org/1999/xlink" width="414" height="210" viewBox="0 0 414 210">
  <defs>
    <clipPath id="clip-path">
      <rect id="Rectangle_63661" data-name="Rectangle 63661" width="414" height="210" transform="translate(0 122)" fill="none" opacity="0"/>
    </clipPath>
    <linearGradient id="linear-gradient" x1="0.5" x2="0.5" y2="1" gradientUnits="objectBoundingBox">
      <stop offset="0" stop-color="#f2ad01"/>
      <stop offset="1" stop-color="#f2ad01" stop-opacity="0"/>
    </linearGradient>
    <clipPath id="clip-path-2">
      <rect id="Rectangle_63654" data-name="Rectangle 63654" width="57.248" height="102.345" fill="none"/>
    </clipPath>
    <clipPath id="clip-path-3">
      <rect id="Rectangle_63653" data-name="Rectangle 63653" width="57.248" height="100.345" fill="none"/>
    </clipPath>
    <clipPath id="clip-path-4">
      <rect id="Rectangle_63652" data-name="Rectangle 63652" width="12.236" height="12.089" fill="none"/>
    </clipPath>
    <clipPath id="clip-path-5">
      <rect id="Rectangle_63497" data-name="Rectangle 63497" width="57.312" height="3.713" fill="none"/>
    </clipPath>
    <clipPath id="clip-path-6">
      <rect id="Rectangle_63651" data-name="Rectangle 63651" width="54.857" height="112.624" fill="none"/>
    </clipPath>
    <clipPath id="clip-path-7">
      <rect id="Rectangle_63497-2" data-name="Rectangle 63497" width="54.327" height="3.52" fill="none"/>
    </clipPath>
    <clipPath id="clip-path-8">
      <rect id="Rectangle_63650" data-name="Rectangle 63650" width="54.857" height="109.624" fill="none"/>
    </clipPath>
    <clipPath id="clip-path-9">
      <rect id="Rectangle_63649" data-name="Rectangle 63649" width="10.126" height="10.003" fill="none"/>
    </clipPath>
    <clipPath id="clip-path-10">
      <path id="Path_83641" data-name="Path 83641" d="M0,0H76.372V178.882H0Z" fill="none"/>
    </clipPath>
    <clipPath id="clip-path-11">
      <rect id="Rectangle_63497-3" data-name="Rectangle 63497" width="76.372" height="4.948" fill="none"/>
    </clipPath>
    <clipPath id="clip-path-12">
      <rect id="Rectangle_63647" data-name="Rectangle 63647" width="76.372" height="176.386" fill="none"/>
    </clipPath>
    <clipPath id="clip-path-13">
      <rect id="Rectangle_63646" data-name="Rectangle 63646" width="21.249" height="20.993" fill="none"/>
    </clipPath>
    <clipPath id="clip-path-14">
      <rect id="Rectangle_63660" data-name="Rectangle 63660" width="52.734" height="92.311" transform="translate(0 -3)" fill="none"/>
    </clipPath>
    <clipPath id="clip-path-15">
      <rect id="Rectangle_63659" data-name="Rectangle 63659" width="51.951" height="90.099" transform="translate(0 -3)" fill="none"/>
    </clipPath>
    <clipPath id="clip-path-16">
      <rect id="Rectangle_63497-4" data-name="Rectangle 63497" width="49.056" height="3.178" fill="none"/>
    </clipPath>
    <clipPath id="clip-path-17">
      <rect id="Rectangle_63655" data-name="Rectangle 63655" width="3.737" height="5.492" fill="none"/>
    </clipPath>
    <clipPath id="clip-path-18">
      <rect id="Rectangle_63656" data-name="Rectangle 63656" width="5.095" height="4.662" fill="none"/>
    </clipPath>
    <clipPath id="clip-path-19">
      <rect id="Rectangle_63657" data-name="Rectangle 63657" width="9.098" height="8.862" fill="none"/>
    </clipPath>
    <clipPath id="clip-path-20">
      <rect id="Rectangle_63658" data-name="Rectangle 63658" width="8.57" height="8.467" fill="none"/>
    </clipPath>
  </defs>
  <g id="login_bg" transform="translate(0 -122)" clip-path="url(#clip-path)">
    <g id="Group_23752" data-name="Group 23752">
      <g id="Group_23469" data-name="Group 23469" transform="translate(0 -40.613)">
        <g id="Group_23751" data-name="Group 23751" transform="translate(0 291.121)">
          <path id="Path_82228" data-name="Path 82228" d="M0,247.8s61.866,33.147,124.322,0c70.783-38.232,210.6-60.24,289.678,50.8H0Z" transform="translate(0 -216.691)" fill="url(#linear-gradient)"/>
        </g>
      </g>
      <g id="Group_23731" data-name="Group 23731" transform="translate(237 174.654)">
        <g id="Group_23730" data-name="Group 23730" clip-path="url(#clip-path-2)">
          <g id="Group_23729" data-name="Group 23729">
            <g id="Group_23728" data-name="Group 23728" clip-path="url(#clip-path-3)">
              <path id="Path_83583" data-name="Path 83583" d="M28.655,32.337h0a.337.337,0,0,1-.448-.166L24.8,24.745a.338.338,0,1,1,.615-.282l3.405,7.426a.339.339,0,0,1-.166.448" transform="translate(-12.535 -12.279)" fill="#594a5f"/>
              <path id="Path_83584" data-name="Path 83584" d="M87.053,41.466c3.124,3.922,7.726,12,7.82,12.721.529,4.07-2.94,15.966-2.94,15.966l-1.275-.647s0-9.528,1.215-13.925c-.146-.335-4.889-4.93-5.482-5.895" transform="translate(-43.716 -20.983)" fill="#ffccb0"/>
              <path id="Path_83585" data-name="Path 83585" d="M46.881,169.444s-1.259,9.417-1.65,12.777a.5.5,0,0,1-.252.381,21,21,0,0,1-3.463,1.628c.474.153,6,2.239,5.966.156-.032-1.783,2.726-10.369,4.038-13.861" transform="translate(-21.007 -85.742)" fill="#ffccb0"/>
              <path id="Path_83586" data-name="Path 83586" d="M45.838,196.68c-.359.191-1.136.019-1.514.013s-.934-.714-1.19-.709a32.027,32.027,0,0,1-3.452,1.3,3.137,3.137,0,0,0-1.159.347,1.49,1.49,0,0,0-.521.59.506.506,0,0,0-.068.254.512.512,0,0,0,.173.311,2.356,2.356,0,0,0,1.556.595c.567.031,1.154.15,1.721.126a21.005,21.005,0,0,0,3.437-.13,1.715,1.715,0,0,0,.865-.41c.47-.469.31-1.469.151-2.291" transform="translate(-19.195 -99.172)" fill="#322c74"/>
              <path id="Path_83587" data-name="Path 83587" d="M96.493,170.548s3.6,4.492,5.6,7a.588.588,0,0,1,.106.53,20.592,20.592,0,0,1-1.281,3.553c.443-.227,5.9-2.79,4.4-4.235-1.284-1.237-2.777-5.119-4.938-8.956" transform="translate(-48.827 -85.232)" fill="#ffccb0"/>
              <path id="Path_83588" data-name="Path 83588" d="M108.241,184.757a2.53,2.53,0,0,1-1.111,1.178c-.518.282-1.165.156-1.343.34a32.078,32.078,0,0,1-1.517,3.365,3.143,3.143,0,0,0-.574,1.066,1.486,1.486,0,0,0,.049.785.413.413,0,0,0,.475.324,2.355,2.355,0,0,0,1.519-.68c.422-.38.922-.71,1.306-1.129a20.965,20.965,0,0,0,2.337-2.523,1.715,1.715,0,0,0,.322-.9c0-.664-.77-1.355-1.464-1.824" transform="translate(-52.456 -93.491)" fill="#322c74"/>
              <path id="Path_83589" data-name="Path 83589" d="M80.614,74.762a5.136,5.136,0,0,1-1.509.6c-2.086.488-7.088.968-10.3-.1a40.943,40.943,0,0,0-.768-7.932.039.039,0,0,1-.009-.026c-.021-.085-.035-.165-.048-.238a.976.976,0,0,0-.044-.191c-.03-.112-.05-.19-.061-.23a.215.215,0,0,1-.01-.039,3.5,3.5,0,0,0-.324-.764l9.512-3.388c.264.4.631.676.87,1.091.348.587.921,1.113.993,1.792.508,4.822,1.391,6.285,1.7,9.429" transform="translate(-34.177 -31.601)" fill="#ffccb0"/>
              <path id="Path_83590" data-name="Path 83590" d="M87.728,128.914a7.35,7.35,0,0,1-3.942,2.258c-3.842-4.779-9.465-11.909-9.917-13.792-.566-1.584-2.477-10.294-2.972-12.6-.865-4.061-1.391-8.673-1.672-10.9l7.166-3.809,5.046-2.691a.18.18,0,0,0,.028-.009c.186.281.347.547.5.808,3.072,5.173,1.773,7.832.889,11.974-1,4.693-2.344,10.728-2.525,16.063,3.224,2,5.578,8.521,7.394,12.7" transform="translate(-35.029 -44.21)" fill="#322c74"/>
              <path id="Path_83591" data-name="Path 83591" d="M71.2,98.087c-1.718,3.035-4.966,8.4-7.731,12.808-.889,1.409-1.725,2.727-2.446,3.832.428,3.6-3.264,13.108-5.167,17.228-1.916.742-4.472-.051-4.8-.827.457-5.643,1.239-14.486,2.166-17.881l-.006.007c.184-2.757,4.263-17.8,6.749-24.181.175-.446.341-.85.5-1.206a26.16,26.16,0,0,0,5.94.625,22.623,22.623,0,0,0,5.839-1.112.1.1,0,0,1,.026-.009c.122.3.23.617.325.925a11.968,11.968,0,0,1-1.39,9.791" transform="translate(-25.836 -44.212)" fill="#322c74"/>
              <path id="Path_83592" data-name="Path 83592" d="M59.915,8.075c-.205.446-.366.928-.6,1.36a2.636,2.636,0,0,0-.386.779,16.746,16.746,0,0,0-.356,4.84,8.209,8.209,0,0,0,.574,2.374,3.857,3.857,0,0,0,1.066,1.63c1.015.758,2.463-.22,3.223-.906a.873.873,0,0,1,.6-.319.755.755,0,0,1,.46.3,15.723,15.723,0,0,1,1.8,2.983,11.857,11.857,0,0,1,1.578-.767.6.6,0,0,0,.344-.057,19.233,19.233,0,0,0,1.96-.879,18.162,18.162,0,0,0,2.141-1.6c-1.09-.852-3.59-1.747-4-2.553a1.69,1.69,0,0,1-.041-.9A19.761,19.761,0,0,0,67.9,8.7a4.378,4.378,0,0,0-.57-1.554A3.944,3.944,0,0,0,64.565,5.7c-1.444-.22-3.18.046-3.9,1.319" transform="translate(-29.612 -2.848)" fill="#ffccb0"/>
              <path id="Path_83593" data-name="Path 83593" d="M74.88,52.42a37.686,37.686,0,0,1-6.139,1.036,31.732,31.732,0,0,1-5.053-.687c-.377-.79-.759-1.579-1.137-2.369a2.261,2.261,0,0,0-.993-1.166A6.258,6.258,0,0,1,59.5,47.616a4.011,4.011,0,0,1-.1-3.717c.49-1.2,1.285-2.239,1.862-3.395.735-1.471,1.125-3.137,2.154-4.419a7.32,7.32,0,0,1,3.112-2c1.15-.494,2.537-.275,3.737-.784,1.822,2.208,4.737,12.2,4.611,19.122M67.828,36.781a3.175,3.175,0,0,0-.471-1.075,2.682,2.682,0,0,0-1.014-.8,5.084,5.084,0,0,0-1.744.781,4.4,4.4,0,0,0-1.106,1.678q-.529.994-1.1,1.964a4.018,4.018,0,0,0-.752,1.983,2.4,2.4,0,0,0,2.34,2.174,3.988,3.988,0,0,0,3.382-1.911,6.975,6.975,0,0,0,.468-4.794" transform="translate(-29.854 -16.849)" fill="#ca7988"/>
              <path id="Path_83594" data-name="Path 83594" d="M73.175,15.116a7.617,7.617,0,0,1-.575-.734c-1.4-2.045-1.589-4.652-2.271-7.035a5.313,5.313,0,0,0-1.8-3,5,5,0,0,0-4.156-.656c-1.32.56-2.691.375-4.008,1.141a4.785,4.785,0,0,0-1.723,1.879c-.312.571-.881,1.651-.4,2.264.205.263.813.1,1.094.123a2.135,2.135,0,0,0,1.62-.36,1.25,1.25,0,0,0,.875,1c.958.316,1.353-.4,1.269.889A17.263,17.263,0,0,0,63.15,13.5c.374-.011.463-.523.7-.809a.9.9,0,0,1,1.332.116,1.471,1.471,0,0,1,.094,1.457,3.192,3.192,0,0,0-.306.756,1.743,1.743,0,0,0,.115.773,5.9,5.9,0,0,0,2.416,3.5c.539.305,1.147.466,1.7.737,1.267.614,1.141,3.984,1.8,5.228s2.142.374,2.635,1.692c.083.222.251.489.481.431a.465.465,0,0,0,.257-.249,3.424,3.424,0,0,0,.445-1.637l.309.863a8.307,8.307,0,0,0,3.711-1.709,2.649,2.649,0,0,0,.818-.969,2.349,2.349,0,0,0,.068-1.394,7.909,7.909,0,0,0-3.147-4.272,25.881,25.881,0,0,1-3.413-2.9" transform="translate(-29.377 -1.756)" fill="#212063"/>
              <path id="Path_83595" data-name="Path 83595" d="M30.924,39.307a6.125,6.125,0,0,0-1.735-1.622,3.425,3.425,0,0,1-1.243-.824,3.427,3.427,0,0,1-.578-1.412q-.342-1.4-.683-2.809c.254-.039.412.323.669.337.1.005.041-.755.094-.672.387.614.9,2.455,1.762,2.616a2.654,2.654,0,0,1,2.085,2.85" transform="translate(-13.503 -16.344)" fill="#ffccb0"/>
              <path id="Path_83596" data-name="Path 83596" d="M65.1,39c-.233-1.856-.848-3.413-2.163-3.306a4.9,4.9,0,0,0-3.854,3.055c-1.47,3-3.746,6.8-5.285,9.3,0,0-1.481,2.855.391,3.718a2.728,2.728,0,0,0,3.2-.869c1.5-2.524,3.5-6.077,5.11-6.475,2.724.054,2.822-3.673,2.6-5.419" transform="translate(-26.942 -18.058)" fill="#ffccb0"/>
              <path id="Path_83597" data-name="Path 83597" d="M42.959,52.415c.8-1.9,3.7-.516,3.7-.516-1.6-.913-2.668-1.553-2.668-1.553L33.5,42.168l-1.929.065s8.554,10.638,10.051,11.928a4.371,4.371,0,0,0,2.761,1.119s-2.221-.967-1.424-2.866" transform="translate(-15.976 -21.338)" fill="#ffccb0"/>
              <path id="Path_83598" data-name="Path 83598" d="M31.259,36.371a9.49,9.49,0,0,0-.124-.987,1.821,1.821,0,0,0-.171-.53c-.235-.444-.254-.816-.052-.891.223-.082.7.45.931,1.03a14.852,14.852,0,0,0,1.06,1.925Z" transform="translate(-15.572 -17.182)" fill="#ffccb0"/>
              <path id="Path_83599" data-name="Path 83599" d="M26.343,31.525a5.152,5.152,0,0,1-.318-1.367c.1-.139.5-.08.812.495.124.226.645,1.317.645,1.317l-.446.238Z" transform="translate(-13.162 -15.229)" fill="#ffccb0"/>
              <path id="Path_83600" data-name="Path 83600" d="M56.462,2.558S49,.06,52.18,3.353,69.924,12.8,71.942,11.8s-7.219-6.46-15.481-9.246" transform="translate(-26.006 -0.835)" fill="#ffe1bd"/>
              <path id="Path_83601" data-name="Path 83601" d="M74.1,7.114c-.026.179-.063.353-.105.527-.058.237-.116.448-.164.638a27.294,27.294,0,0,1-7.827-3.247c-.306-.19-.606-.39-.906-.6s-.6-.432-.886-.664-.579-.475-.854-.728c-.142-.126-.274-.253-.411-.385v0l.111-.142a6.378,6.378,0,0,1,.654-.754A6.117,6.117,0,0,1,70.523.546c.047.021.1.047.153.069a6.1,6.1,0,0,1,3.426,6.5" transform="translate(-31.853 0)" fill="#ffe1bd"/>
              <path id="Path_83602" data-name="Path 83602" d="M74.1,8.91c-.026.179-.063.353-.105.527-.058.237-.116.448-.164.638a27.294,27.294,0,0,1-7.827-3.247c-.306-.19-.606-.39-.906-.6s-.6-.432-.886-.664-.579-.475-.854-.728c-.142-.126-.274-.258-.411-.39L63.06,4.3a6.379,6.379,0,0,1,.654-.754A27.906,27.906,0,0,0,74.1,8.91" transform="translate(-31.853 -1.796)" fill="#c7cddb"/>
              <path id="Path_83603" data-name="Path 83603" d="M81.316,111.724c-.7,1.313-1.438,2.6-2.191,3.875s-1.545,2.532-2.321,3.8c-.81,1.242-1.607,2.494-2.447,3.717s-1.7,2.439-2.647,3.582L76.4,119.14c.81-1.241,1.6-2.5,2.414-3.734s1.639-2.472,2.5-3.682" transform="translate(-36.286 -56.534)" fill="#2c1e56"/>
              <g id="Group_23727" data-name="Group 23727" transform="translate(0 1.308)" opacity="0.5">
                <g id="Group_23726" data-name="Group 23726">
                  <g id="Group_23725" data-name="Group 23725" clip-path="url(#clip-path-4)">
                    <path id="Path_83604" data-name="Path 83604" d="M9.6,10.505a3.516,3.516,0,0,0,2.262-5.036C10.31,1.45,1.1,1.57.11,6.829c-1.047,5.564,5.64,9.02,10.62,7.58,0,0-3.865-.785-2.94-2.759A2.547,2.547,0,0,1,9.6,10.505" transform="translate(0 -2.648)" fill="#5599e8" fill-rule="evenodd"/>
                  </g>
                </g>
              </g>
              <path id="Path_83605" data-name="Path 83605" d="M8.1,8.233v3.934a.412.412,0,0,0,.618.357l3.407-1.967a.413.413,0,0,0,0-.714L8.721,7.877a.412.412,0,0,0-.618.357" transform="translate(-4.1 -3.958)" fill="#fefefe"/>
              <g id="Group_23750" data-name="Group 23750" transform="translate(0.049 96.851)" opacity="0.3">
                <g id="Group_23472" data-name="Group 23472" clip-path="url(#clip-path-5)">
                  <path id="Path_82247" data-name="Path 82247" d="M98.456,161.191c0,1.025-12.83,1.856-28.655,1.856s-28.656-.831-28.656-1.856,12.83-1.856,28.655-1.856,28.656.831,28.656,1.856" transform="translate(-41.144 -159.335)" fill="#0a1c38"/>
                </g>
              </g>
            </g>
          </g>
        </g>
      </g>
      <g id="Group_23724" data-name="Group 23724" transform="translate(57 213.377)">
        <g id="Group_23723" data-name="Group 23723" clip-path="url(#clip-path-6)">
          <g id="Group_23722" data-name="Group 23722">
            <g id="Group_23748" data-name="Group 23748" transform="translate(-1.47 106.844)" opacity="0.3">
              <g id="Group_23472-2" data-name="Group 23472" clip-path="url(#clip-path-7)">
                <path id="Path_82247-2" data-name="Path 82247" d="M95.471,161.095c0,.972-12.161,1.76-27.163,1.76s-27.164-.788-27.164-1.76,12.161-1.76,27.163-1.76,27.164.788,27.164,1.76" transform="translate(-41.144 -159.335)" fill="#0a1c38"/>
              </g>
            </g>
            <g id="Group_23721" data-name="Group 23721" clip-path="url(#clip-path-8)">
              <path id="Path_83548" data-name="Path 83548" d="M45.525,200.271s-.225,3.331-.35,4.433-2.875.074-3.325-.527c-.139-.875-.54-4.5-.54-4.5" transform="translate(-20.655 -99.839)" fill="#ffccb0"/>
              <path id="Path_83549" data-name="Path 83549" d="M41.406,208.668c1.328,1,2.285.279,3.363.164.588-.062,1.661,1.351,2.71,1.506,3.428.508,3.278,1.6,3.278,1.6-.093.679-1.418.934-2.741.934H41.986s-1.1.114-1.311-.375c-.8-1.879.554-3.966.731-3.833" transform="translate(-20.212 -104.331)" fill="#4c4051"/>
              <path id="Path_83550" data-name="Path 83550" d="M12.532,199.68l.241,4.937s.824,1.945,3.326.557l.644-5.742" transform="translate(-6.266 -99.717)" fill="#ffccb0"/>
              <path id="Path_83551" data-name="Path 83551" d="M68.865,42.734c-.25-.441-.959-.855-1.086-.565s0,1.337-.565,1.839a1.993,1.993,0,0,1-.331.237,2.118,2.118,0,0,1-.729.268c-.194.03-.331.01-.351-.05-.046-.15.251-.438.361-.745s.194-.722.043-.923-.414-.271-.571,0-.969,1.337-1.407,1.862a7.14,7.14,0,0,0-.625,2.493c-.01.08-.016.164-.02.251a4.194,4.194,0,0,1-.812,2.714c-.625.962-5.24,5.387-6.48,7.325-.562.876-.912,1.858-1.748,3.335a3.494,3.494,0,0,0,1.043,3.877c1.945,1.824,3.455.969,3.459.965.04-.063.083-.13.121-.194,4.174-6.811,5.751-14.431,7.028-16.162.461-.628,1.02-1.176,1.511-1.778l.016-.016c.157-.151,1.417-1.387,1.457-2.246a5.963,5.963,0,0,0-.314-2.486" transform="translate(-27.166 -21.036)" fill="#ffccb0"/>
              <path id="Path_83552" data-name="Path 83552" d="M43.327,59.258a93.166,93.166,0,0,0,5.951,11.657c0-.006-.13-1.737,2.352-2.717a3.5,3.5,0,0,1,3.95.715C55.039,67.764,54,60.967,51.708,55.9a77.277,77.277,0,0,1-8.381,3.36" transform="translate(-21.664 -27.949)" fill="#ffccb0"/>
              <path id="Path_83553" data-name="Path 83553" d="M26.131,24.251c-.191,1.51-.528,4.95-.528,4.95a5.089,5.089,0,0,1-1.7.7,5.882,5.882,0,0,0,6.341,2.858,5.172,5.172,0,0,0,3.373-2.5l-2.2-.985a29.28,29.28,0,0,0-.2-3.919Z" transform="translate(-11.95 -12.126)" fill="#ffccb0"/>
              <path id="Path_83554" data-name="Path 83554" d="M43.47,12.139a2.981,2.981,0,0,0,.343,2.085,1.921,1.921,0,0,0,1.067,1.037,1.116,1.116,0,0,0,1.342-.6,1.01,1.01,0,0,1,.1-.22c.1-.143.26-.088.406-.122A.815.815,0,0,0,47.182,14a1.641,1.641,0,0,0,.264-.887,3.732,3.732,0,0,0-.592-2.32,1,1,0,0,0-.348-.277c.348-.359.044-1.573-.163-1.965a1.658,1.658,0,0,0-1.462-.867" transform="translate(-21.7 -3.842)" fill="#011035"/>
              <path id="Path_83555" data-name="Path 83555" d="M34.728,3.89a11.158,11.158,0,0,1,2.2,9.2,3.355,3.355,0,0,1-2.48,2.463,8.139,8.139,0,0,1-7.232-2.031C25.476,11.611,26,7.887,26.37,5.541c.337-2.131,1.345-4.894,4.023-4.356a7.534,7.534,0,0,1,4.334,2.7" transform="translate(-12.998 -0.558)" fill="#ffccb0"/>
              <path id="Path_83556" data-name="Path 83556" d="M28.627,4.651a2.277,2.277,0,0,0,2.4.689,9.349,9.349,0,0,1,.936-.35,3.785,3.785,0,0,1,1.608.186,7.539,7.539,0,0,0,2.306.162A2.643,2.643,0,0,0,37,5.061a3.546,3.546,0,0,0,.633-.435,1.742,1.742,0,0,1,.353-.3,3.131,3.131,0,0,1,.293-.11,1.371,1.371,0,0,0,.5-2.059.661.661,0,0,0-.238-.175.95.95,0,0,0-.676.086,2.319,2.319,0,0,0-.1-1.186,1.485,1.485,0,0,0-.964-.757A3.2,3.2,0,0,0,35.556.08a7.829,7.829,0,0,0-1.28.268,1.771,1.771,0,0,1-.686.12,2.783,2.783,0,0,1-.732-.284A3.338,3.338,0,0,0,31.529,0,5.02,5.02,0,0,0,29.15.488a2.177,2.177,0,0,0-1.194,2.144" transform="translate(-13.967 0)" fill="#011035"/>
              <path id="Path_83557" data-name="Path 83557" d="M26.308,6.094A2.627,2.627,0,0,1,26.817,7.7a4.808,4.808,0,0,1-.427,2.521c-.114.217-.335.451-.564.363-.09-.035-.163-.115-.259-.116a.316.316,0,0,0-.184.083,2.832,2.832,0,0,0-.931,1.2,1.994,1.994,0,0,0-.018.974,2.176,2.176,0,0,1-.15,1.457.973.973,0,0,1-1.076.216,1.4,1.4,0,0,1-.618-.34c-.277-.321-.1-1.094-.545-1.186a1.7,1.7,0,0,1-1.233-1.362,2.557,2.557,0,0,1,.125-1.3,7.564,7.564,0,0,0,.153-1.278,5.792,5.792,0,0,1,.842-2.577,6.227,6.227,0,0,1,.9-1.007,3.686,3.686,0,0,1,1.09-.784,1.455,1.455,0,0,1,1.3.04" transform="translate(-10.386 -2.218)" fill="#011035"/>
              <path id="Path_83558" data-name="Path 83558" d="M29.459,16.295a2,2,0,0,0-.4-.676.683.683,0,0,0-.726-.176.921.921,0,0,0-.425.646A2.278,2.278,0,0,0,28.1,18a.834.834,0,0,0,.545.369.678.678,0,0,0,.564-.224,1,1,0,0,0,.242-.57" transform="translate(-13.893 -7.699)" fill="#ffccb0"/>
              <path id="Path_83559" data-name="Path 83559" d="M35.085,28.815A8.751,8.751,0,0,1,31.253,27.3a2.822,2.822,0,0,0,2.034,2.113,5.249,5.249,0,0,0,1.766.079" transform="translate(-15.627 -13.65)" fill="#e8aca0"/>
              <path id="Path_83560" data-name="Path 83560" d="M23.775,4.452a3.436,3.436,0,0,0-2.354,1.185,4.877,4.877,0,0,0-1.1,2.46c-.079.457-.131.912-.185,1.378a9.2,9.2,0,0,0-.278,1.341,1.92,1.92,0,0,0,.32,1.23,2.243,2.243,0,0,0,1.046.747l.013.005.006,0a.8.8,0,0,1,.343.589,1.283,1.283,0,0,0,.194.527,1.1,1.1,0,0,0,.451.338,2.943,2.943,0,0,0,.569.186l0,.026a2.986,2.986,0,0,1-.6-.111,1.182,1.182,0,0,1-.542-.334,1.3,1.3,0,0,1-.271-.581.577.577,0,0,0-.254-.421l.018.008a2.351,2.351,0,0,1-1.191-.821,2.086,2.086,0,0,1-.337-1.409,6.745,6.745,0,0,1,.365-1.352l.26-1.363a5.14,5.14,0,0,1,1-2.6,3.041,3.041,0,0,1,2.534-1.056Z" transform="translate(-9.803 -2.206)" fill="#011035"/>
              <path id="Path_83561" data-name="Path 83561" d="M9.558,100.964a113.842,113.842,0,0,0-.513,13.043c.146,6.8-.12,12.092.035,18.044s1.028,19.337,1.028,19.337a11.788,11.788,0,0,0,5.092.12s3.01-12.07,3.772-20.373c1.354-5.176,2.785-14.482,2.785-14.482s-.684,8.111.659,14.337.761,13.485,2.209,20.281a12.064,12.064,0,0,0,5.291-.173c.569-4.1,1.058-10.633,1.85-19.633.786-8.927,1.679-22.075.265-31.106" transform="translate(-4.512 -50.18)" fill="#7e96ba"/>
              <path id="Path_83562" data-name="Path 83562" d="M30.629,68.882c-2.473,2.544-6.878,2.042-10.1,2.006a27.38,27.38,0,0,1-9.234-1.725c-1.089-.408-3.3-.985-4.037-1.955C6.5,66.219,7,64.016,7.028,62.813q.14-5.6.284-11.2Q7.447,46.1,7.589,40.6c.036-1.437.134-3.031,1.133-4.034L13.351,35.4c.9-.936,2.3-.952,3.689-.963.274,0,.548,0,.819-.013a5.889,5.889,0,0,0,3.242.825,1.527,1.527,0,0,0,1.268-.633l.008-.011a3.045,3.045,0,0,0,.438-.812c.124-.017.25-.036.374-.053a3.486,3.486,0,0,1,1.036-.044,3.459,3.459,0,0,1,1.353.642q1.805,1.192,3.609,2.389c1.287.849,1.166,2.7,1.34,4.1.207,1.645.358,3.3.478,4.946.094,1.32.17,2.643.224,3.963.083,1.938.127,3.877.144,5.815.023,3.121,2.5,9.986-.745,13.325" transform="translate(-3.419 -16.838)" fill="#5d7ec3"/>
              <path id="Path_83563" data-name="Path 83563" d="M6.375,72.657C6.551,71.4,9.4,65.14,10.26,59.646a77.264,77.264,0,0,1-8.853-1.777A91.86,91.86,0,0,0,0,71.109a4.171,4.171,0,0,1,6.371,1.549" transform="translate(-0.002 -28.935)" fill="#ffccb0"/>
              <path id="Path_83564" data-name="Path 83564" d="M7.347,99.3c.215,1.072.188,2.184.49,3.24a1.009,1.009,0,0,0,.37.608c.219.167.38.152.537-.074.2.287.7.32.727.023.2.32.789.234.826-.075.316.341.8.091.811-.115a.777.777,0,0,0-.532-.632c-.576-.089-.608-.549-.282-.9a1.471,1.471,0,0,1,1,.3c.036-1.089.15-2.09-.822-3.053A4.2,4.2,0,0,1,9.02,96.2c-.293-1.112-.457-7.5-1.055-9.723-.27-1.006-.76-1.926-1.29-3.541C2.951,79.436,0,82.854,0,82.854-.133,84.845,6.924,97.192,7.347,99.3" transform="translate(0 -40.679)" fill="#ffccb0"/>
              <path id="Path_83565" data-name="Path 83565" d="M14.647,33.758l-.207.6-2.58,7.335a49.425,49.425,0,0,1-1.487,9.8,8.969,8.969,0,0,1-5.661.03A10.127,10.127,0,0,1,1.637,49.9c.056-1.534.458-9.751,3.059-12.846,2.292-2.73,6.552-2.674,9.811-3.553a1.1,1.1,0,0,0,.14.254" transform="translate(-0.819 -16.752)" fill="#5d7ec3"/>
              <path id="Path_83566" data-name="Path 83566" d="M50.187,47.131a8.235,8.235,0,0,1-3.415,2.359,6.108,6.108,0,0,1-2.613.311c-.755-.839-.207-3.248-2.149-5.725l-4.091-9.719a3.017,3.017,0,0,0,.438-.812.994.994,0,0,0,.061-.371v0c2.4.415,7.061,1.514,7.977,2.333,2.022,1.808,2.67,6.557,3.793,11.627" transform="translate(-18.959 -16.586)" fill="#5d7ec3"/>
              <path id="Path_83567" data-name="Path 83567" d="M20.73,55.9c-.237,1.145-.523,2.284-.857,3.4q-.25.842-.539,1.672a15.944,15.944,0,0,0-.569,1.659.07.07,0,0,0,.127.054,8.314,8.314,0,0,0,.625-1.541q.295-.859.545-1.731a33.359,33.359,0,0,0,.792-3.483c.014-.08-.106-.116-.124-.034" transform="translate(-9.381 -27.929)" fill="#4567a3"/>
              <path id="Path_83568" data-name="Path 83568" d="M35.165,116.136c-.222,1.688-.422,3.38-.639,5.068-.125.964-.254,1.928-.4,2.889-.119.79-.285,1.579-.365,2.375-.006.06.086.068.1.014a17.189,17.189,0,0,0,.442-2.433c.135-.931.257-1.863.371-2.8.209-1.7.388-3.41.583-5.116.007-.061-.088-.06-.1,0" transform="translate(-16.881 -58.046)" fill="#687fa0"/>
              <path id="Path_83569" data-name="Path 83569" d="M52.934,48.809c.284,1.505.57,3.006.782,4.524.215,1.541.37,3.084.518,4.632.008.08.128.083.128,0a33.438,33.438,0,0,0-.409-4.6A22.77,22.77,0,0,0,53,48.791a.034.034,0,0,0-.066.018" transform="translate(-26.467 -24.384)" fill="#4567a3"/>
              <path id="Path_83570" data-name="Path 83570" d="M58.407,69.156c.5-.6.878-1.306,1.321-1.948a18.531,18.531,0,0,1,2.087-2.478c.049-.049-.017-.145-.077-.1A9.851,9.851,0,0,0,59.6,66.984a13.663,13.663,0,0,0-1.25,2.131c-.014.032.027.073.053.041" transform="translate(-29.176 -32.31)" fill="#e8aca0"/>
              <path id="Path_83571" data-name="Path 83571" d="M26.932,34.012a3.856,3.856,0,0,0,1.129.876L26.206,34.7Z" transform="translate(-13.103 -17.006)" fill="#5d7ec3"/>
              <path id="Path_83572" data-name="Path 83572" d="M12.462,113.7s2,1.086,4.512-1.8,1.629,6.642,1.629,6.642l-3,1.337s-2.518-.167-2.6-.418-.543-5.765-.543-5.765" transform="translate(-6.231 -55.682)" fill="#7e96ba"/>
              <path id="Path_83573" data-name="Path 83573" d="M7.5,208.679s-.4.5-1.136,1.308S4.348,211.037,3.539,212s.155,1.463,1.377,1.687a4.484,4.484,0,0,0,3.287-.327c1.033-.6,2.823-1,3.3-1.308s.259-2.822.1-3.1-.362.327-1,.706-1.273.482-1.2.1a.952.952,0,0,0-.344-1.084c-.43-.293-1.275-.351-1.566,0" transform="translate(-1.62 -104.219)" fill="#4c4051"/>
              <path id="Path_83574" data-name="Path 83574" d="M12.176,114.555a4.079,4.079,0,0,0,1.221-.006,4.937,4.937,0,0,0,1.149-.323,6.832,6.832,0,0,0,1.062-.571c.171-.109.333-.236.506-.351s.324-.257.5-.376c-.117.175-.251.338-.381.507a6.2,6.2,0,0,1-.457.445,4.289,4.289,0,0,1-1.092.678,3.569,3.569,0,0,1-1.265.27,2.494,2.494,0,0,1-1.244-.273" transform="translate(-6.088 -56.464)" fill="#687fa0"/>
              <g id="Group_23720" data-name="Group 23720" transform="translate(44.731 5.669)" opacity="0.5">
                <g id="Group_23719" data-name="Group 23719">
                  <g id="Group_23718" data-name="Group 23718" clip-path="url(#clip-path-9)">
                    <path id="Path_83575" data-name="Path 83575" d="M91.642,17.842a2.909,2.909,0,0,1-1.871-4.167c1.287-3.326,8.907-3.227,9.727,1.124.867,4.6-4.667,7.464-8.788,6.273,0,0,3.2-.65,2.433-2.284a2.108,2.108,0,0,0-1.5-.946" transform="translate(-89.463 -11.339)" fill="#5599e8" fill-rule="evenodd"/>
                  </g>
                </g>
              </g>
              <path id="Path_83576" data-name="Path 83576" d="M93.884,18.211a.695.695,0,1,1-.695-.695.695.695,0,0,1,.695.695" transform="translate(-46.247 -8.758)" fill="#fffaf5" fill-rule="evenodd"/>
              <path id="Path_83577" data-name="Path 83577" d="M99.67,18.987a.695.695,0,1,1-.695-.695.695.695,0,0,1,.695.695" transform="translate(-49.14 -9.146)" fill="#fffaf5" fill-rule="evenodd"/>
              <path id="Path_83578" data-name="Path 83578" d="M105.423,20.054a.695.695,0,1,1-.695-.695.695.695,0,0,1,.695.695" transform="translate(-52.017 -9.68)" fill="#fffaf5" fill-rule="evenodd"/>
              <path id="Path_83579" data-name="Path 83579" d="M78.013,45.05l-1.686-.645a.49.49,0,0,1-.282-.632l2.01-5.254a.49.49,0,0,1,.632-.282l1.686.645a.489.489,0,0,1,.282.632l-2.009,5.254a.49.49,0,0,1-.632.282" transform="translate(-38.006 -19.102)" fill="#594a5f"/>
              <path id="Path_83580" data-name="Path 83580" d="M78.853,44.175l-1.307-.5a.379.379,0,0,1-.219-.49l1.559-4.075a.38.38,0,0,1,.49-.219l1.307.5a.379.379,0,0,1,.219.49l-1.558,4.074a.379.379,0,0,1-.49.219" transform="translate(-38.651 -19.433)" fill="#918796"/>
              <path id="Path_83581" data-name="Path 83581" d="M76.859,43.325s.328.112.2.794S76.33,45.164,76.2,45.5s-.376-.663-.366-.7.431-.733.431-.733" transform="translate(-37.917 -21.663)" fill="#ffccb0"/>
              <path id="Path_83582" data-name="Path 83582" d="M82.463,44.394s-.138-.736-.319-.686a5.26,5.26,0,0,0-1.072,2.206,3.787,3.787,0,0,0,.23,1.554l.923-1.253" transform="translate(-40.528 -21.853)" fill="#ffccb0"/>
            </g>
          </g>
        </g>
      </g>
      <g id="Group_23717" data-name="Group 23717" transform="translate(141.098 130.973)">
        <g id="Mask_Group_8161" data-name="Mask Group 8161" transform="translate(17.432 -8.854)" clip-path="url(#clip-path-10)">
          <g id="Group_23473" data-name="Group 23473" transform="translate(0 173.101)" opacity="0.3">
            <g id="Group_23472-3" data-name="Group 23472" clip-path="url(#clip-path-11)">
              <path id="Path_82247-3" data-name="Path 82247" d="M117.516,161.809c0,1.366-17.1,2.474-38.185,2.474s-38.186-1.108-38.186-2.474,17.1-2.474,38.185-2.474,38.186,1.108,38.186,2.474" transform="translate(-41.144 -159.335)" fill="#0a1c38"/>
            </g>
          </g>
          <g id="Group_23715" data-name="Group 23715">
            <g id="Group_23714" data-name="Group 23714" clip-path="url(#clip-path-12)">
              <path id="Path_83518" data-name="Path 83518" d="M14.585,96.188S21.6,83.346,22.964,82.619l.337,1.462s-5.359,7.781-7.522,12.795" transform="translate(-2.452 -13.888)" fill="#8e4c3a"/>
              <path id="Path_83519" data-name="Path 83519" d="M18.7,184.9s-3.893,7.763-6.047,12.089a.949.949,0,0,0,0,.831,32.92,32.92,0,0,0,2.835,5.042c-.7-.225-9.232-2.657-7.49-5.246,1.491-2.216,2.535-8.494,4.548-14.881" transform="translate(-1.304 -30.718)" fill="#ffe1bd"/>
              <path id="Path_83520" data-name="Path 83520" d="M8.3,198.95a.289.289,0,0,1,.392.068,4.246,4.246,0,0,0,1.791,1.262c.821.29,1.712-.073,2.017.159s2.4,4.646,4.239,6.155c1.345,1.106.373,1.954.2,1.994-4.969,1.149-5.645-1.4-6.208-2.043-1.156-1.319-1.934-2.081-3.04-3.321a4.533,4.533,0,0,1-1.019-1.59c-.171-.918.715-2.076,1.626-2.685" transform="translate(-1.119 -33.436)" fill="#4c4051"/>
              <path id="Path_83521" data-name="Path 83521" d="M47.954,192.582s.162,3.358.07,9.264a.877.877,0,0,0,.339.715,35.181,35.181,0,0,0,5.452,3.594c-.829.159-10.582,2.534-10.053-1.066.452-3.081-.147-5.828-1.57-12.171" transform="translate(-7.093 -32.373)" fill="#ffe1bd"/>
              <path id="Path_83522" data-name="Path 83522" d="M43.742,205.472a.357.357,0,0,1,.458-.222,11.56,11.56,0,0,0,2.21.2c.636.073,1.727-1.028,2.155-.962s3.513,2.374,5.507,3.031a5.248,5.248,0,0,1,1.869.86,2.592,2.592,0,0,1,.743,1.138.9.9,0,0,1,.057.456.889.889,0,0,1-.361.5c-.765.6-9.633.134-11.443-.3a2.646,2.646,0,0,1-1.664-.849c-.623-.835.01-2.513.468-3.854" transform="translate(-7.231 -34.374)" fill="#4c4051"/>
              <path id="Path_83523" data-name="Path 83523" d="M51.762,108.1c.372,10.053-4.646,69.233-4.646,69.233a5.259,5.259,0,0,1-2.106.317,34.349,34.349,0,0,1-3.693-.217,133.9,133.9,0,0,1-2.983-30.323c.067-2.047.2-4.095.426-6.117a35.94,35.94,0,0,0-.209-9.659c-.585-3.61-1.17-7.653-1.688-11.848-1.011-8.222-1.8-17.037-1.93-24.332-.61-34.91,14.252-6.273,14.252-6.273A110.65,110.65,0,0,1,51.762,108.1" transform="translate(-5.869 -13.083)" fill="#594a5f"/>
              <path id="Path_83524" data-name="Path 83524" d="M20.228,95.1s-4.432,9.172-3.3,18.935a127.465,127.465,0,0,0,4.055,19.111c.828,2.877-2.015,6.242-3.259,8.964-4.666,10.2-8.082,34.768-8.082,34.768s3.4,1.865,6.175,1.738c0,0,13.226-28.821,15.544-37.307,4.285-15.691,4.9-45.488,4.9-45.488Z" transform="translate(-1.62 -15.986)" fill="#594a5f"/>
              <path id="Path_83525" data-name="Path 83525" d="M44.435,12.329c.82,2.137-.4,4.463-.648,6.738a36.939,36.939,0,0,0,.144,4.714,6,6,0,0,1-1.377,4.385,5.587,5.587,0,0,1-3.668,1.41A10.532,10.532,0,0,1,27.823,17.506a12.9,12.9,0,0,1,.964-3.232,10.72,10.72,0,0,1,5.9-6.051c2.735-.959,6.21-.051,7.586,2.5" transform="translate(-4.658 -1.319)" fill="#ffe1bd"/>
              <path id="Path_83526" data-name="Path 83526" d="M22.859,6.957A9.188,9.188,0,0,0,18.008,5.1a6.739,6.739,0,0,0-5.871,2.3C10.889,9.023,10.7,11.238,9.65,13c-1.78,2.98-5.6,4.059-7.94,6.621a3.9,3.9,0,0,0-1.2,2.712c.066,1.261,1.065,2.3,1.245,3.553C2.075,28.138-.316,30.13.036,32.379c.305,1.95,2.5,2.984,4.456,3.247a11.447,11.447,0,0,0,8.41-2.033,8.686,8.686,0,0,0,3.456-7.746c-.159-1.279-.643-2.511-.688-3.8-.081-2.321,1.269-4.527,1.116-6.844-.07-1.053-.435-2.183.066-3.112A3.707,3.707,0,0,1,17.8,11.07c1.091-.913,2.565-1.877,3.818-1.205" transform="translate(0 -0.853)" fill="#2c1e56"/>
              <path id="Path_83527" data-name="Path 83527" d="M45.553,10.417a7.218,7.218,0,0,0-.827-2.644A3.763,3.763,0,0,0,40.1,6.443a4.05,4.05,0,0,0-.561-1.079C36.964,1.8,31.275,2.18,27.731,3.762a5.116,5.116,0,0,0-1.944,1.315,5.411,5.411,0,0,0-.893,3.434,3.365,3.365,0,0,0-2.116,1.719,6.731,6.731,0,0,0-.705,2.7A12.741,12.741,0,0,0,24.7,21.853a4.915,4.915,0,0,0,3.088,2.031.553.553,0,0,0,.558-.171.531.531,0,0,0,.055-.288,12.108,12.108,0,0,0-.358-1.963,2.341,2.341,0,0,1,.328-1.908c.364-.02.559.664.891.512a.4.4,0,0,0,.166-.183c.531-.955.132-2.137.191-3.228a3.6,3.6,0,0,1,.072-.43c3.343-1.994,7.71-.99,11-3.3a2.17,2.17,0,0,0,.752-.8,2.511,2.511,0,0,0,.213-1.113A5.079,5.079,0,0,1,42.5,12.55a10.772,10.772,0,0,1,.393,5.194c.656-1.223,1.474-2.224,2.131-3.448a6.11,6.11,0,0,0,.618-1.438,6.081,6.081,0,0,0-.088-2.442" transform="translate(-3.703 -0.438)" fill="#2c1e56"/>
              <path id="Path_83528" data-name="Path 83528" d="M30.631,23.311c.14-.136-.041-.357-.2-.463a3.759,3.759,0,0,0-1.048-.534,1.28,1.28,0,0,0-1.125.174,1.523,1.523,0,0,0-.473.983,3.747,3.747,0,0,0,1.4,3.467,1.876,1.876,0,0,0,1.462.447.967.967,0,0,0,.776-1.157" transform="translate(-4.663 -3.742)" fill="#f5bc8e"/>
              <path id="Path_83529" data-name="Path 83529" d="M55.06,66.52S51.254,84.98,50.955,87.9c-.238,2.343,1.68,5.017,3.269.526C55.312,85.352,62.359,70,60.466,65.156s-3.93-.54-3.93-.54Z" transform="translate(-8.562 -10.566)" fill="#ffe1bd"/>
              <path id="Path_83530" data-name="Path 83530" d="M53.954,49.7A99.368,99.368,0,0,1,59.967,62.65c1.023,2.886-3.347,7.435-5.908,2.221-2.979-6.063-5.6-11.018-5.6-11.018" transform="translate(-8.147 -8.355)" fill="#ffe1bd"/>
              <path id="Path_83531" data-name="Path 83531" d="M54.333,48.943c-.09.086-.193.173-.3.269A19.626,19.626,0,0,1,51.457,51c-.166.1-.334.2-.516.306-3.65,2.076-5.608-3.952-5.608-3.952l-.524-10.238s1.861.359,4.967,4.146a38.653,38.653,0,0,1,4.556,7.685" transform="translate(-7.532 -6.239)" fill="#f75157"/>
              <path id="Path_83532" data-name="Path 83532" d="M47.009,60.4c-2.3,6.48-.282,18.593.682,25.737a.517.517,0,0,1-.418.58c-4.976.948-14.638,2.19-21.164.773-.717-.16-1.334-.309-1.863-.458a9.715,9.715,0,0,1-2.258-.883c-.188-.115-.781-.456-.737-.671.066-.324.534-.854.6-1.214.837-4.572,1.578-11.815-1.181-22.941-1.832-7.441-2.789-16.048.1-20.639a.01.01,0,0,0,.01-.01c.279-.428-.537-.392-.1-.755,3.349-2.768,9.582-3.969,17.41-3.608a7.411,7.411,0,0,1,3.863,1.579c2.219,1.862,2.013,8.618,4.735,12.453,1.118,1.576,2.564,3.734.318,10.059" transform="translate(-3.183 -6.093)" fill="#f75157"/>
              <path id="Path_83533" data-name="Path 83533" d="M23.461,52.507,19.621,66.1c-1.384,1.761-2.269,3.12-4.106,2.561-3.2-.975-1.563-10.053-1.116-12.9.095-.629.192-1.228.279-1.784.316-1.944.568-3.422.668-3.986a2.359,2.359,0,0,0,.038-.248Z" transform="translate(-2.283 -8.361)" fill="#ffe1bd"/>
              <path id="Path_83534" data-name="Path 83534" d="M21.958,39.1c-4.836,2.292-6.544,7.559-7.373,13.114l9.078,3.59s7.1-10.809,2.7-14.9c-1.76-1.637-2.578-2.667-4.407-1.8" transform="translate(-2.452 -6.519)" fill="#f75157"/>
              <path id="Path_83535" data-name="Path 83535" d="M36.985,31.345a10.816,10.816,0,0,0,.862,3.185,1.563,1.563,0,0,0,1.271.361c0,1.811-2.454,3.354-4.495,2.994a4.7,4.7,0,0,1-3.336-2.7c1.106-.862,1.1-2.615,1.141-3.893a8.32,8.32,0,0,0-.209-3.256" transform="translate(-5.259 -4.714)" fill="#ffe1bd"/>
              <path id="Path_83536" data-name="Path 83536" d="M34.343,29.424l-5.1,1.742a.669.669,0,0,1-.85-.416L24.509,19.484a.67.67,0,0,1,.416-.85l5.1-1.742a.669.669,0,0,1,.85.417l3.885,11.266a.668.668,0,0,1-.416.85" transform="translate(-4.114 -2.833)" fill="#594a5f"/>
              <path id="Path_83537" data-name="Path 83537" d="M17.846,66.717c1.716-.037,4.625-.416,6.956-8.964,2.636-9.659,4.159-16.507,4.711-19.448,0-.017,0-.017.016-.017.191-1.071.287-1.631.287-1.631s-3.286-1.094-3.268-.672a2.188,2.188,0,0,1-.239,1.157c-1.737,3.211-6.8,12.647-9.333,19.688a.9.9,0,0,1-1.108.553c-1.862,1.031-1.548,7.163-1.548,7.163.1,1.824,2.224,2.2,3.526,2.172" transform="translate(-2.404 -6.033)" fill="#ffe1bd"/>
              <path id="Path_83538" data-name="Path 83538" d="M28.649,33.694a5.719,5.719,0,0,0-.63-3.339,12.842,12.842,0,0,1-1.214-3.912,23.5,23.5,0,0,1,.382-4.092c.27-.314.51.36.559.9s.116,2.675.205,3.26a7.9,7.9,0,0,0,.473,1.472s-.2-2.991-.2-3.861.034-1.883.27-1.851c.416.058.652,1.047.675,2.217a26.854,26.854,0,0,0,.584,3.665,29.21,29.21,0,0,1-.024-2.957,11.626,11.626,0,0,1,.317-2.394c.18-.2.654.145.654.842s.154,2.957.234,3.632a2.466,2.466,0,0,0,.482,1.161s-.1-1.008-.088-2.05c.012-1.113.14-2.265.338-2.265.69,0,.54,3.209.719,3.745.809,2.428-.491,6.654-.491,6.654a21.6,21.6,0,0,1-2.207,1.92c-.27.061-1.679.23-1.679.23Z" transform="translate(-4.506 -3.744)" fill="#ffe1bd"/>
              <path id="Path_83539" data-name="Path 83539" d="M40.162,36.476s7.779,1.58-.643,22.991-14.346,33.64-14.346,33.64-.562,1.724.848.314,4.952-9.813,9.358-20.637C39.765,62.008,47.6,45.836,43.264,37.847c0,0-1.139-2.376-3.1-1.371" transform="translate(-4.213 -6.09)" fill="#8e4c3a"/>
              <path id="Path_83540" data-name="Path 83540" d="M17.126,97.063s6.367,2.312,6.866,3.61-2.179,9.289-3.9,10.49-9.341-2.56-9.759-3.395,2.716-11.884,6.789-10.706" transform="translate(-1.731 -16.302)" fill="#8e4c3a"/>
              <path id="Path_83541" data-name="Path 83541" d="M13.732,100.5s.809,4.022,1.436,4.727,7.168-3.9,7.988-3.786c.642.086.5-.052.372-.13s-.609-.188-1.661.412a63.086,63.086,0,0,1-6.439,3.3c-.54.031-1.487-4.5-1.494-4.6-.011-.165-.263-.218-.2.075" transform="translate(-2.307 -16.859)" fill="#703325"/>
              <g id="Group_23713" data-name="Group 23713" transform="translate(55.123)" opacity="0.5">
                <g id="Group_23712" data-name="Group 23712">
                  <g id="Group_23711" data-name="Group 23711" clip-path="url(#clip-path-13)">
                    <path id="Path_83542" data-name="Path 83542" d="M70.836,13.646S64.208,11.881,66.908,4.9,85.6-1.872,87.32,7.261c1.819,9.661-9.793,15.664-18.441,13.164,0,0,6.713-1.364,5.105-4.793-.781-1.667-3.149-1.987-3.149-1.987" transform="translate(-66.261 0)" fill="#5599e8" fill-rule="evenodd"/>
                  </g>
                </g>
              </g>
              <path id="Path_83543" data-name="Path 83543" d="M73,9.25a1.458,1.458,0,1,1-1.458-1.458A1.458,1.458,0,0,1,73,9.25" transform="translate(-11.781 -1.31)" fill="#fffaf5" fill-rule="evenodd"/>
              <path id="Path_83544" data-name="Path 83544" d="M80.3,10.229a1.458,1.458,0,1,1-1.458-1.458A1.458,1.458,0,0,1,80.3,10.229" transform="translate(-13.008 -1.474)" fill="#fffaf5" fill-rule="evenodd"/>
              <path id="Path_83545" data-name="Path 83545" d="M87.556,11.574A1.458,1.458,0,1,1,86.1,10.116a1.458,1.458,0,0,1,1.458,1.458" transform="translate(-14.228 -1.701)" fill="#fffaf5" fill-rule="evenodd"/>
              <path id="Path_83546" data-name="Path 83546" d="M40.537,103.962c0,3.047-.136,6.09-.3,9.131s-.433,6.075-.7,9.109c-.329,3.028-.664,6.057-1.142,9.069a73,73,0,0,1-1.872,8.948q.177-1.131.375-2.252l.317-2.258c.205-1.506.411-3.01.57-4.521.35-3.017.69-6.036.956-9.064.334-3.021.59-6.05.886-9.077l.438-4.542Z" transform="translate(-6.139 -17.476)" fill="#4c4051"/>
              <path id="Path_83547" data-name="Path 83547" d="M16.385,60.542c1.027-2.961,2.229-5.852,3.462-8.731.641-1.428,1.278-2.859,1.967-4.266s1.4-2.806,2.2-4.15c-.659,1.422-1.294,2.849-1.925,4.28l-1.879,4.3c-1.275,2.856-2.5,5.735-3.829,8.57" transform="translate(-2.754 -7.295)" fill="#f2c599"/>
            </g>
          </g>
        </g>
      </g>
      <g id="Group_23747" data-name="Group 23747" transform="translate(320.266 230.688)">
        <g id="Mask_Group_23746" data-name="Mask Group 23746" transform="translate(-1 -1)" clip-path="url(#clip-path-14)">
          <g id="Group_23745" data-name="Group 23745" transform="translate(0.711 0.711)">
            <g id="Group_23744" data-name="Group 23744" clip-path="url(#clip-path-15)">
              <g id="Group_23749" data-name="Group 23749" transform="translate(2.659 77.606)" opacity="0.3">
                <g id="Group_23472-4" data-name="Group 23472" clip-path="url(#clip-path-16)">
                  <path id="Path_82247-4" data-name="Path 82247" d="M90.2,160.924c0,.877-10.981,1.589-24.528,1.589s-24.528-.711-24.528-1.589,10.982-1.589,24.528-1.589,24.528.711,24.528,1.589" transform="translate(-41.144 -159.335)" fill="#0a1c38"/>
                </g>
              </g>
              <g id="Group_23734" data-name="Group 23734" transform="translate(15.184 -1.947)" opacity="0.5">
                <g id="Group_23733" data-name="Group 23733" transform="translate(0)">
                  <g id="Group_23732" data-name="Group 23732" clip-path="url(#clip-path-17)">
                    <path id="Path_83606" data-name="Path 83606" d="M37.168.035,37.484,0s.511.408,1.315,1.017a1.829,1.829,0,0,1,.413,2.669c-.337.464.089-.592.055-.9s-.8-1.618-1.528-1.537l.35,3.142a1.1,1.1,0,0,1-1.081,1.09.946.946,0,0,1-1.1-1.2c.1-.574,1.221-.873,1.7-.383Z" transform="translate(-35.88)" fill="#5599e8" fill-rule="evenodd"/>
                  </g>
                </g>
              </g>
              <g id="Group_23737" data-name="Group 23737" transform="translate(41.883 -1.117)" opacity="0.5">
                <g id="Group_23736" data-name="Group 23736" transform="translate(0 0)">
                  <g id="Group_23735" data-name="Group 23735" clip-path="url(#clip-path-18)">
                    <path id="Path_83607" data-name="Path 83607" d="M103.281,1.961l.286.181s.154.68.418,1.722a1.949,1.949,0,0,1-1.432,2.5c-.589.162.468-.433.643-.711s.411-1.879-.249-2.3l-1.8,2.847a1.171,1.171,0,0,1-1.625.187,1.009,1.009,0,0,1-.122-1.73c.469-.408,1.6.087,1.672.815Z" transform="translate(-98.967 -1.961)" fill="#5599e8" fill-rule="evenodd"/>
                  </g>
                </g>
              </g>
              <g id="Group_23740" data-name="Group 23740" transform="translate(42.853 7.622)" opacity="0.5">
                <g id="Group_23739" data-name="Group 23739" transform="translate(0 0)">
                  <g id="Group_23738" data-name="Group 23738" clip-path="url(#clip-path-19)">
                    <path id="Path_83608" data-name="Path 83608" d="M107.881,22.61l-3.673,4.036c.077-1.03-1.367-2-2.12-1.546a1.423,1.423,0,0,0-.262,2.433,1.654,1.654,0,0,0,2.3.143l2.478-2.709,1.75,2.8-2.071,2.276c.077-1.03-1.368-2-2.121-1.547a1.424,1.424,0,0,0-.261,2.433,1.654,1.654,0,0,0,2.3.143l4.144-4.531Zm-.62,1.644.353-.386,1.748,2.8-.353.386Z" transform="translate(-101.259 -22.61)" fill="#5599e8" fill-rule="evenodd"/>
                  </g>
                </g>
              </g>
              <path id="Path_83609" data-name="Path 83609" d="M37.289,198.275a12.927,12.927,0,0,1-.251,1.53,7.277,7.277,0,0,1-1.991,1.16,29.86,29.86,0,0,0-2.835.963c-.145.185-.5.554.751.554h5.7c.409,0,.049-1.445,0-1.938a4.046,4.046,0,0,1,.242-1.649" transform="translate(-19.921 -123.228)" fill="#ffc5aa"/>
              <path id="Path_83610" data-name="Path 83610" d="M38.79,204.845c.094,0,.029-.67.023-.846-.015-.441-.163-.875-.169-1.308,0-.332-.3-.132-.476-.076a1.442,1.442,0,0,1-.453.124,1.655,1.655,0,0,1-.6-.119.339.339,0,0,1-.149-.1c-.069-.091-.041-.22-.069-.331a.118.118,0,0,0-.073-.092.14.14,0,0,0-.11.041c-.165.125-.326.271-.5.38-.14.088-.3.158-.447.237a6.051,6.051,0,0,1-.9.431,13.212,13.212,0,0,0-2.69.86c-.182.148-.64.808.294.808,1.252,0,5.916-.011,6.325-.011" transform="translate(-19.824 -125.603)" fill="#322c74"/>
              <path id="Path_83611" data-name="Path 83611" d="M52.428,93.442s-4.4,13.259-4.948,19.033-2.036,20.735-2.036,20.735a1.1,1.1,0,0,0,.739.466,2.478,2.478,0,0,0,.972-.078s5.737-10.947,6.3-14.409c.571-3.5-.142-5.511-.015-6.154.491-2.475,9.345-13.463,7.753-20.661" transform="translate(-28.243 -57.41)" fill="#594a5f"/>
              <path id="Path_83612" data-name="Path 83612" d="M113.818,192.934a13.032,13.032,0,0,1,.933,1.237,7.269,7.269,0,0,1-.536,2.241,29.9,29.9,0,0,0-1.261,2.715c.033.232.054.745.919-.161l3.933-4.12c.282-.3-1.011-1.034-1.4-1.335a4.051,4.051,0,0,1-1.025-1.313" transform="translate(-70.201 -119.452)" fill="#ffc5aa"/>
              <path id="Path_83613" data-name="Path 83613" d="M117.715,196.352c.065-.068-.464-.484-.6-.6-.329-.294-.745-.486-1.062-.781-.244-.226-.3.123-.384.292a1.457,1.457,0,0,1-.223.413,1.661,1.661,0,0,1-.5.355.336.336,0,0,1-.173.04c-.114-.013-.188-.123-.287-.179a.117.117,0,0,0-.117-.011.142.142,0,0,0-.047.108c-.023.206-.03.423-.071.625-.033.162-.093.326-.137.487a6.021,6.021,0,0,1-.31.949,13.236,13.236,0,0,0-1.235,2.54c-.019.234.142,1.02.787.345.865-.906,4.078-4.286,4.36-4.582" transform="translate(-69.96 -121.128)" fill="#322c74"/>
              <path id="Path_83614" data-name="Path 83614" d="M72.243,90.232s.917,12.976,2.135,18.648c1.5,6.971,14.194,18.4,14.194,18.4a2.682,2.682,0,0,0,.761-.1c.489-.121.871-.794.871-.794s-4.514-10.866-5.838-12.9c-2.515-3.865-3.648-3.737-3.826-4.84-.4-2.491,4.793-16.47.614-22.543" transform="translate(-44.899 -53.516)" fill="#594a5f"/>
              <path id="Path_83615" data-name="Path 83615" d="M57.817,57.477l-4.973-3.632c-.791,1.083-2.54,5.772-3.072,6.67L52.541,63.2a42.3,42.3,0,0,0,5.276-5.723" transform="translate(-30.933 -33.465)" fill="#ffc5aa"/>
              <path id="Path_83616" data-name="Path 83616" d="M32.366,44.052l-1.2.824c.568,1.491,4.68,9.969,5.373,10.66.131.131.269.263.4.394l3.682-3.058,0,0c-2.688-2.023-5.75-6.575-8.258-8.817" transform="translate(-19.372 -27.378)" fill="#ffc5aa"/>
              <path id="Path_83617" data-name="Path 83617" d="M42.941,68.949s2.412,4.564,3.535,4.412,3.183-2.617,3.183-2.617l-2.94-2.575-1.761-.121-1.069.486" transform="translate(-26.688 -42.291)" fill="#ffc5aa"/>
              <path id="Path_83618" data-name="Path 83618" d="M60.46,36.6a8.79,8.79,0,0,0-2.195,1.452c-.5.481-2.208,2.286-4.012,7.213,1.977.872,3.758,2.388,5.915,2.53a28.4,28.4,0,0,0,2.554-6.6" transform="translate(-33.718 -22.748)" fill="#5599e8"/>
              <path id="Path_83619" data-name="Path 83619" d="M71.832,34.385a6.8,6.8,0,0,0-2.88-.892,9.964,9.964,0,0,0-2.255.187,5.269,5.269,0,0,0-3.7,2.6,15.027,15.027,0,0,0-1.927,6.368c-.076.99-.067,1.985-.059,2.978.031,3.668.062,8.62.093,12.288a1.006,1.006,0,0,0,.126.586.9.9,0,0,0,.394.272c2.036.869,4.343.031,6.53-.31a28.511,28.511,0,0,1,7.836.234c-1.116-4.133-2.052-9.6-2.8-13.813-.6-3.366.6-7.7-1.354-10.5" transform="translate(-37.914 -20.809)" fill="#5599e8"/>
              <path id="Path_83620" data-name="Path 83620" d="M62.347,10.995q-.084,2.895.075,5.79a.952.952,0,0,0,.3.778.935.935,0,0,0,.682.057q.578-.1,1.152-.223c.288-.061.628-.283.9-.1s.306.57.364.866a4.994,4.994,0,0,1,.092,1.123.459.459,0,0,1-.019.14.484.484,0,0,1-.079.129c-.043.057-.168.165-.143.243s.176.123.238.152a2.273,2.273,0,0,0,.572.177,3.072,3.072,0,0,0,1.21-.045,7.838,7.838,0,0,0,1.936-.831.864.864,0,0,0,.4-.337A.752.752,0,0,0,70,18.345c-.138-.391-.361-.745-.528-1.124a1.838,1.838,0,0,1-.164-1.207,3.859,3.859,0,0,1,.358-.73,4.327,4.327,0,0,0,.421-1.95,3.289,3.289,0,0,0-.2-1.309,2.884,2.884,0,0,0-.411-.673,5.4,5.4,0,0,0-2.458-1.707,7.554,7.554,0,0,0-2.99-.371,1.852,1.852,0,0,0-1.193.4" transform="translate(-38.731 -5.753)" fill="#ffc5aa"/>
              <path id="Path_83621" data-name="Path 83621" d="M62.081,18.8c-.411.667-1.234,1.779-1.05,2.1s1.341.049,2.008-.016" transform="translate(-37.915 -11.683)" fill="#ffc5aa"/>
              <path id="Path_83622" data-name="Path 83622" d="M64.525,12.429a2.517,2.517,0,0,0,.169.531,1.314,1.314,0,0,0,.411.541,1.47,1.47,0,0,0,.8.226,6.923,6.923,0,0,0,.945-.048,1.466,1.466,0,0,0,.753-.214.535.535,0,0,0,.21-.573c-.079-.176-.3-.189-.081-.413a4.571,4.571,0,0,0,.49-.512.682.682,0,0,0,.1-.669c-.071-.146-.222-.284-.172-.438a.381.381,0,0,1,.12-.153,1.963,1.963,0,0,0,.573-1.391,1.25,1.25,0,0,0-.81-1.3c.279-.272.229-.7.243-1.061a1.318,1.318,0,0,0-.347-1,1.711,1.711,0,0,0-1.273-.323A1.508,1.508,0,0,0,65.4,3.958a2,2,0,0,0-1.982.626,1.937,1.937,0,0,0-2.129-.525,1.967,1.967,0,0,0-1.4,1.715,1.35,1.35,0,0,0-1.339.553,1.142,1.142,0,0,0,.136,1.407,1.511,1.511,0,0,0,1,.358,1.473,1.473,0,0,0,1.375-.624,1.046,1.046,0,0,0,1,.775,1.4,1.4,0,0,0,.63-.141c.185-.087.349-.28.529-.339a7.246,7.246,0,0,0,.022.924,1.346,1.346,0,0,0,.519.885.426.426,0,0,1,.151.134.392.392,0,0,1,.03.16,4.45,4.45,0,0,0,.4,1.27,2.67,2.67,0,0,1,.181.65c.025.226-.048.42,0,.644" transform="translate(-36.275 -2.425)" fill="#2c1e56"/>
              <path id="Path_83623" data-name="Path 83623" d="M71.6,18.268l.229-.257a.7.7,0,0,1,.5-.307.5.5,0,0,1,.338.182,1.137,1.137,0,0,1,.274.765,2.151,2.151,0,0,1-.179.806,1.053,1.053,0,0,1-.308.463.629.629,0,0,1-.87-.15" transform="translate(-44.487 -11.003)" fill="#ffc5aa"/>
              <path id="Path_83624" data-name="Path 83624" d="M80.451,48.559c.876,2.058,2.324,6.449,2.888,7.159-.753,3.292-1.273,7.927-1.415,8.944-.138.99-.829,1.452-1.3,2.671A5.083,5.083,0,0,0,83.664,68.4a6.086,6.086,0,0,0,0-2.4c.209-.528,4.827-8.17,4.827-10.37s-1.9-9.148-1.9-9.148" transform="translate(-50 -28.886)" fill="#ffc5aa"/>
              <path id="Path_83625" data-name="Path 83625" d="M84.152,36.06a15.667,15.667,0,0,1,2.768,6.567A23.714,23.714,0,0,1,80.656,44.5c-.753-1.847-1.78-4.735-1.012-7.263a3.252,3.252,0,0,1,1.832-1.936,2.978,2.978,0,0,1,2.676.754" transform="translate(-49.33 -21.893)" fill="#5599e8"/>
              <path id="Path_83626" data-name="Path 83626" d="M26.049,38.517a7.558,7.558,0,0,0,.478,1.3c.319.66,1.2.692,1.68,1.755l1.414-.944s-.615-.465-.608-.689a6.745,6.745,0,0,0,0-1.875c-.167-.29-.553-.137-.553-.137Z" transform="translate(-16.189 -23.548)" fill="#ffc5aa"/>
              <path id="Path_83627" data-name="Path 83627" d="M72.769,16.8a1.474,1.474,0,0,1-1.29,1.713,1.449,1.449,0,0,1-1.565-1.433,1.449,1.449,0,0,1,1.258-1.71,1.474,1.474,0,0,1,1.6,1.43" transform="translate(-43.446 -9.551)" fill="#928996"/>
              <path id="Path_83628" data-name="Path 83628" d="M73.845,16.684a1.474,1.474,0,0,1-1.29,1.713,1.449,1.449,0,0,1-1.565-1.433,1.449,1.449,0,0,1,1.258-1.71,1.474,1.474,0,0,1,1.6,1.43" transform="translate(-44.114 -9.475)" fill="#594a5f"/>
              <path id="Path_83629" data-name="Path 83629" d="M68.5,3.73s2.137.106,1.83,4.6l1.106.023a5.436,5.436,0,0,0-1.033-4.5,1.829,1.829,0,0,0-1.9-.119" transform="translate(-42.57 -2.191)" fill="#594a5f"/>
              <g id="Group_23743" data-name="Group 23743" transform="translate(0 -0.5)" opacity="0.5">
                <g id="Group_23742" data-name="Group 23742" transform="translate(0 0)">
                  <g id="Group_23741" data-name="Group 23741" clip-path="url(#clip-path-20)">
                    <path id="Path_83630" data-name="Path 83630" d="M6.725,8.923A2.462,2.462,0,0,0,8.309,5.4C7.221,2.58.77,2.664.077,6.348c-.733,3.9,3.95,6.318,7.438,5.31,0,0-2.708-.55-2.059-1.933a1.784,1.784,0,0,1,1.27-.8" transform="translate(0 -3.419)" fill="#5599e8" fill-rule="evenodd"/>
                  </g>
                </g>
              </g>
              <path id="Path_83631" data-name="Path 83631" d="M14.44,10.123a.526.526,0,1,0,.526-.526.526.526,0,0,0-.526.526" transform="translate(-8.974 -5.965)" fill="#fffaf5" fill-rule="evenodd"/>
              <path id="Path_83632" data-name="Path 83632" d="M8.654,10.9a.526.526,0,1,0,.526-.526.526.526,0,0,0-.526.526" transform="translate(-5.378 -6.447)" fill="#fffaf5" fill-rule="evenodd"/>
              <path id="Path_83633" data-name="Path 83633" d="M2.9,11.965a.526.526,0,1,0,.526-.526.526.526,0,0,0-.526.526" transform="translate(-1.803 -7.109)" fill="#fffaf5" fill-rule="evenodd"/>
              <path id="Path_83634" data-name="Path 83634" d="M26.377,35.468l1.276-.488a.37.37,0,0,0,.213-.478l-1.521-3.977a.371.371,0,0,0-.478-.214l-1.276.488a.371.371,0,0,0-.214.478L25.9,35.254a.371.371,0,0,0,.478.214" transform="translate(-15.135 -18.822)" fill="#594a5f"/>
              <path id="Path_83635" data-name="Path 83635" d="M26.731,34.966l.99-.378a.287.287,0,0,0,.166-.371l-1.18-3.085a.287.287,0,0,0-.371-.165l-.99.378a.287.287,0,0,0-.166.371L26.36,34.8a.287.287,0,0,0,.371.165" transform="translate(-15.638 -19.234)" fill="#918796"/>
              <path id="Path_83636" data-name="Path 83636" d="M31.545,35.406s-.248.085-.15.6.55.791.649,1.049.285-.5.277-.533S32,35.969,32,35.969" transform="translate(-19.498 -22.005)" fill="#ffc5aa"/>
              <path id="Path_83637" data-name="Path 83637" d="M26.491,38.7a2.327,2.327,0,0,0,.381-1.24,3.986,3.986,0,0,0-.812-1.67c-.137-.038-.225.377-.241.519a4.118,4.118,0,0,0,.672,2.391" transform="translate(-16.037 -22.24)" fill="#ffc5aa"/>
              <path id="Path_83638" data-name="Path 83638" d="M73.8,115.435c.185.989.334,1.982.481,2.975s.278,1.987.409,2.981.252,1.99.361,2.987l.176,1.494c.051.5.121,1,.18,1.5a29.461,29.461,0,0,1-.633-2.949c-.176-.99-.314-1.985-.445-2.981s-.24-1.994-.325-2.995-.168-2-.2-3.008" transform="translate(-45.867 -71.743)" fill="#4c4051"/>
              <path id="Path_83639" data-name="Path 83639" d="M80.135,42.778a7.629,7.629,0,0,0-.018.816c0,.271.014.541.035.81.043.539.1,1.075.189,1.609s.19,1.064.3,1.595.25,1.056.37,1.591c-.113-.249-.213-.5-.316-.758-.086-.26-.18-.518-.257-.781a12.2,12.2,0,0,1-.366-1.605,10.615,10.615,0,0,1-.129-1.643,6.252,6.252,0,0,1,.192-1.633" transform="translate(-49.684 -26.587)" fill="#48c"/>
              <path id="Path_83640" data-name="Path 83640" d="M61.145,49.6l-.084,2.384c-.028.794-.069,1.587-.085,2.38-.039.793-.053,1.587-.076,2.38l-.064,2.385c-.083-.793-.129-1.589-.146-2.385s0-1.593.014-2.389c.039-.8.075-1.591.149-2.384s.159-1.585.293-2.371" transform="translate(-37.713 -30.824)" fill="#48c"/>
            </g>
          </g>
        </g>
      </g>
    </g>
  </g>
</svg>
