<svg xmlns="http://www.w3.org/2000/svg" width="80.443" height="60.009" viewBox="0 0 80.443 60.009">
  <g id="Group_1" data-name="Group 1" transform="translate(-405.747 -174.243)">
    <path id="Path_1" data-name="Path 1" d="M454.737,174.305c.149.009.3.027.447.027a69.111,69.111,0,0,1,7.155.23,30.528,30.528,0,0,1,12,3.46,20.769,20.769,0,0,1,8.906,9.663,29.822,29.822,0,0,1,2.336,7.9,44.393,44.393,0,0,1,.55,7.392c-.007.925.01,1.85.016,2.775.124.19-.032.4-.034.617a44.062,44.062,0,0,1-.48,6.94,26.294,26.294,0,0,1-4.4,11.183,20.67,20.67,0,0,1-7.048,6.187,29.217,29.217,0,0,1-9.567,3.063,44.571,44.571,0,0,1-4.814.456c-1.3.059-2.6.051-3.9.052q-20.611.009-41.223,0c-.964,0-.964,0-.964-.946q0-3.172,0-6.345c0-.15,0-.3.011-.45a.437.437,0,0,1,.457-.447c.15-.01.3-.009.45-.009q3.248,0,6.5,0c.531,0,.546-.016.546-.549q0-3.285,0-6.57c0-.587-.017-.6-.617-.6q-3.285,0-6.57,0c-.536,0-.536,0-.536.548q0,3.285,0,6.57a4.063,4.063,0,0,1-.013.412.416.416,0,0,1-.406.413,3.606,3.606,0,0,1-.412.015H406.58a3.533,3.533,0,0,1-.412-.015.421.421,0,0,1-.406-.414,4.2,4.2,0,0,1-.013-.45q0-25.172,0-50.343c0-.8.03-.825.82-.825l47.493,0A2.974,2.974,0,0,1,454.737,174.305Z" transform="translate(0 0)" fill="#00556f"/>
    <path id="Path_2" data-name="Path 2" d="M459.268,340.654c0-1.2.011-2.4-.007-3.6,0-.32.1-.394.4-.391,1.589.014,3.177-.006,4.766.01a2.63,2.63,0,0,1,2.325.962,2.935,2.935,0,0,1,.469,1.746,18.5,18.5,0,0,1-.091,3.331,2.191,2.191,0,0,1-2.072,1.879c-1.336.115-2.674.034-4.012.057-.475.008-.951-.015-1.426.007-.28.013-.365-.074-.361-.357C459.276,343.081,459.268,341.867,459.268,340.654Z" transform="translate(-45.475 -138.021)" fill="#fcfdfd"/>
    <path id="Path_3" data-name="Path 3" d="M720.646,340.639c0-1.2.01-2.4-.007-3.6,0-.307.1-.375.386-.373,1.589.012,3.179,0,4.768.011a2.831,2.831,0,0,1,2.057.644,2.947,2.947,0,0,1,.75,2.387,3.433,3.433,0,0,1-.19,1.067,2.048,2.048,0,0,1-1.443,1.348c-.522.149-.518.14-.154.569.478.562.947,1.131,1.418,1.7.052.062.16.109.1.213-.042.077-.134.045-.206.049-.025,0-.05,0-.075,0-1.577.013-1.577.012-2.569-1.218-.157-.195-.335-.374-.473-.581a1.064,1.064,0,0,0-1.149-.569c-.207.039-.291-.051-.281-.268.015-.325.014-.651,0-.976-.007-.2.073-.254.264-.251q.976.015,1.952,0a1.328,1.328,0,0,0,1.145-2.078,1.2,1.2,0,0,0-1.122-.549h-2.29c-.363,0-.727.016-1.088-.005-.272-.016-.335.089-.334.345.01,1.914,0,3.829.014,5.743,0,.336-.092.449-.421.408s-.758.136-.979-.074-.069-.641-.073-.973C720.639,342.616,720.646,341.628,720.646,340.639Z" transform="translate(-267.561 -138.023)" fill="#fcfdfd"/>
    <path id="Path_4" data-name="Path 4" d="M560.12,340.578a10.4,10.4,0,0,1,.085-2.2,2.1,2.1,0,0,1,1.871-1.7,33.985,33.985,0,0,1,3.974-.077c.187,0,.228.1.224.266a7.974,7.974,0,0,0,0,.826c.026.306-.073.413-.394.406-.951-.021-1.9-.009-2.853-.008-1.062,0-1.447.386-1.449,1.446,0,.763,0,1.527,0,2.29a1.107,1.107,0,0,0,1.12,1.233,22.188,22.188,0,0,0,2.813,0,1.079,1.079,0,0,0,1.031-1.085c.05-.937.05-.937-.885-.938-.388,0-.776-.009-1.164,0-.216.006-.286-.076-.277-.287.014-.3.011-.6,0-.9-.007-.2.043-.294.269-.292q1.633.014,3.266,0c.207,0,.294.06.285.277-.033.874.043,1.749-.052,2.624a2.195,2.195,0,0,1-2,2.05,19.73,19.73,0,0,1-3.858,0,2.2,2.2,0,0,1-2.008-2.163C560.09,341.755,560.12,341.165,560.12,340.578Z" transform="translate(-131.17 -137.952)" fill="#fdfdfd"/>
    <path id="Path_5" data-name="Path 5" d="M789.991,339.053c-.4.873-.781,1.7-1.157,2.521q-.636,1.4-1.262,2.8a.406.406,0,0,1-.447.294,8.051,8.051,0,0,0-.975,0c-.289.015-.314-.088-.205-.326.532-1.166,1.055-2.337,1.583-3.505.58-1.282,1.171-2.56,1.737-3.849a.434.434,0,0,1,.475-.306c.853.009.849,0,1.188.767q1.515,3.414,3.036,6.826c.17.383.171.387-.232.39-.187,0-.375,0-.563,0-.686,0-.68,0-.961-.646q-1.025-2.345-2.062-4.686C790.112,339.249,790.063,339.179,789.991,339.053Z" transform="translate(-323.039 -138.034)" fill="#fdfdfd"/>
    <path id="Path_6" data-name="Path 6" d="M852.569,338.662c0-.888.007-1.776,0-2.664,0-.238.054-.339.312-.325a10.414,10.414,0,0,0,1.163,0c.275-.016.33.092.329.343-.009,1.6,0,3.2,0,4.8,0,.978.36,1.341,1.326,1.34.625,0,1.251.012,1.876-.006.268-.008.349.084.338.343-.018.4-.007.8,0,1.2,0,.139-.023.258-.2.253a15.26,15.26,0,0,1-3.289-.139,2.379,2.379,0,0,1-1.822-2.448c-.043-.9-.008-1.8-.008-2.7Z" transform="translate(-379.702 -137.181)" fill="#fdfefe"/>
    <path id="Path_7" data-name="Path 7" d="M664.494,341.4c0,.938-.017,1.877.009,2.815.01.362-.118.464-.451.432a3.48,3.48,0,0,0-.675,0c-.308.031-.374-.1-.373-.387.011-1.889,0-3.779.012-5.668,0-.327-.06-.468-.427-.444-.536.035-1.076,0-1.613.012-.205,0-.28-.064-.292-.278-.065-1.219-.071-1.218,1.155-1.218,1.539,0,3.078.007,4.617-.006.3,0,.443.071.4.394-.041.355.152.815-.091,1.043-.223.209-.67.049-1.019.061a8.835,8.835,0,0,1-.9,0c-.278-.02-.368.071-.363.357C664.5,339.474,664.493,340.438,664.494,341.4Z" transform="translate(-216.624 -138.02)" fill="#fbfcfc"/>
    <path id="Path_8" data-name="Path 8" d="M530.915,340.61c0-1.187.012-2.374-.008-3.561-.005-.327.112-.417.411-.392a4.379,4.379,0,0,0,.712,0c.291-.024.389.078.385.379-.015,1.387-.006,2.774-.006,4.16,0,1.012-.009,2.024.006,3.036,0,.3-.064.449-.392.41-.355-.042-.813.153-1.044-.093-.21-.224-.058-.668-.061-1.015C530.91,342.559,530.915,341.584,530.915,340.61Z" transform="translate(-106.327 -138.015)" fill="#fcfdfd"/>
    <path id="Path_9" data-name="Path 9" d="M633.2,340.474c0,1.213-.008,2.426.006,3.638,0,.277-.072.391-.358.357-.356-.042-.819.155-1.044-.085-.2-.217-.056-.669-.056-1.018,0-2.163,0-4.326-.01-6.489,0-.308.077-.434.393-.393.342.044.786-.153,1.006.082.2.213.056.646.058.981.007.975,0,1.95,0,2.926Z" transform="translate(-192.006 -137.842)" fill="#fcfdfc"/>
    <path id="Path_10" data-name="Path 10" d="M469.081,349.079c0-.713.009-1.426,0-2.139,0-.24.058-.331.312-.329,1.138.011,2.277-.007,3.416.008a1.1,1.1,0,0,1,1.256,1.1,13.8,13.8,0,0,1,0,2.809c-.075.744-.485,1.057-1.285,1.073-1.013.019-2.027.007-3.04.008-.656,0-.656,0-.656-.652Q469.081,350.017,469.081,349.079Z" transform="translate(-53.816 -146.477)" fill="#22536d"/>
  </g>
</svg>
