<svg xmlns="http://www.w3.org/2000/svg" xmlns:xlink="http://www.w3.org/1999/xlink" width="20" height="20" viewBox="0 0 20 20">
  <defs>
    <clipPath id="clip-path">
      <rect id="Rectangle_57855" data-name="Rectangle 57855" width="20" height="20" transform="translate(-11606 -4776)" fill="#fff"/>
    </clipPath>
  </defs>
  <g id="map_gray" transform="translate(11606 4776)" clip-path="url(#clip-path)">
    <path id="map_gray-2" data-name="map_gray" d="M7.059,9.47A2.473,2.473,0,0,0,8.32,9.134a2.538,2.538,0,0,0,.922-.9A2.359,2.359,0,0,0,9.581,7a2.429,2.429,0,0,0-.339-1.251,2.508,2.508,0,0,0-.922-.913A2.478,2.478,0,0,0,7.059,4.5a2.412,2.412,0,0,0-1.249.336,2.543,2.543,0,0,0-.909.913A2.421,2.421,0,0,0,4.56,7,2.376,2.376,0,0,0,5.288,8.75,2.422,2.422,0,0,0,7.059,9.47Zm0-9.47a7.005,7.005,0,0,1,3.565.938,7.088,7.088,0,0,1,2.548,2.523A6.853,6.853,0,0,1,14.117,7a9.561,9.561,0,0,1-.728,3.365,24.055,24.055,0,0,1-1.746,3.486q-.992,1.593-2.111,3.1-.824,1.129-1.746,2.212L7.059,20l-.728-.841q-.914-1.073-1.746-2.212-1.118-1.507-2.111-3.1A23.8,23.8,0,0,1,.729,10.36,9.539,9.539,0,0,1,0,7,6.853,6.853,0,0,1,.946,3.461,7.088,7.088,0,0,1,3.494.938,7.01,7.01,0,0,1,7.059,0Z" transform="translate(-11603.059 -4776)" fill="#aaa"/>
  </g>
</svg>
