<svg xmlns="http://www.w3.org/2000/svg" xmlns:xlink="http://www.w3.org/1999/xlink" width="22" height="21.999" viewBox="0 0 22 21.999">
  <defs>
    <clipPath id="clip-path">
      <rect id="Rectangle_5" data-name="Rectangle 5" width="20" height="20" transform="translate(162.258 -91.018)" fill="#221f20" stroke="#707070" stroke-width="1"/>
    </clipPath>
  </defs>
  <g id="Group_26511" data-name="Group 26511" transform="translate(-881 -2551)">
    <g id="bell" transform="translate(718.742 2644.018)" clip-path="url(#clip-path)">
      <path id="Notification" d="M19.124,11.417,17.543,5.728A7.756,7.756,0,0,0,2.5,6.119L1.273,11.628A4.162,4.162,0,0,0,5.335,16.7h.927a4.161,4.161,0,0,0,8.156,0h.7a4.161,4.161,0,0,0,4.01-5.275ZM10.34,18.356A2.5,2.5,0,0,1,8,16.7h4.687a2.5,2.5,0,0,1-2.343,1.66ZM17.1,14.042a2.477,2.477,0,0,1-1.988.986H5.335a2.5,2.5,0,0,1-2.5-2.5,2.47,2.47,0,0,1,.06-.541L4.122,6.483A6.093,6.093,0,0,1,15.939,6.17l1.581,5.689a2.479,2.479,0,0,1-.418,2.183Z" transform="translate(162.085 -91.048)" fill="#221f20"/>
    </g>
    <g id="Path_78550" data-name="Path 78550" transform="translate(893 2551)" fill="#fd212a">
      <path d="M 5 9.5 C 2.51869010925293 9.5 0.5 7.48130989074707 0.5 5 C 0.5 2.51869010925293 2.51869010925293 0.5 5 0.5 C 7.48130989074707 0.5 9.5 2.51869010925293 9.5 5 C 9.5 7.48130989074707 7.48130989074707 9.5 5 9.5 Z" stroke="none"/>
      <path d="M 5 1 C 2.794390201568604 1 1 2.794390201568604 1 5 C 1 7.205610275268555 2.794390201568604 9 5 9 C 7.205610275268555 9 9 7.205610275268555 9 5 C 9 2.794390201568604 7.205610275268555 1 5 1 M 5 0 C 7.761420249938965 0 10 2.238580226898193 10 5 C 10 7.761420249938965 7.761420249938965 10 5 10 C 2.238580226898193 10 0 7.761420249938965 0 5 C 0 2.238580226898193 2.238580226898193 0 5 0 Z" stroke="none" fill="#ffd345"/>
    </g>
  </g>
</svg>
