<svg xmlns="http://www.w3.org/2000/svg" width="50" height="50" viewBox="0 0 50 50">
    <g fill="none" fill-rule="evenodd">
        <path d="M0 0H20V20H0z" transform="translate(15 15)"/>
        <path fill="#FFA201" d="M17 2c.92 0 1.667.747 1.667 1.667v10c0 .92-.747 1.666-1.667 1.666H7.833L4.5 18.667v-3.334h-.833c-.92 0-1.667-.746-1.667-1.666v-10C2 2.747 2.747 2 3.667 2zm-1.667 5.833h-1.666V9.5h1.666V7.833zm-4.166 0H9.5V9.5h1.667V7.833zM7 7.833H5.333V9.5H7V7.833z" transform="translate(15 15)"/>
    </g>
</svg>
