<svg xmlns="http://www.w3.org/2000/svg" width="52" height="52" viewBox="0 0 52 52">
    <defs>
        <filter id="i7eh5qflsa" width="157.8%" height="443.3%" x="-28.9%" y="-166.7%" filterUnits="objectBoundingBox">
            <feOffset dy="-2" in="SourceAlpha" result="shadowOffsetOuter1"/>
            <feGaussianBlur in="shadowOffsetOuter1" result="shadowBlurOuter1" stdDeviation="25"/>
            <feColorMatrix in="shadowBlurOuter1" result="shadowMatrixOuter1" values="0 0 0 0 0.878431373 0 0 0 0 0.878431373 0 0 0 0 0.878431373 0 0 0 1 0"/>
            <feMerge>
                <feMergeNode in="shadowMatrixOuter1"/>
                <feMergeNode in="SourceGraphic"/>
            </feMerge>
        </filter>
    </defs>
    <g fill="none" fill-rule="evenodd">
        <g>
            <g filter="url(#i7eh5qflsa)" transform="translate(-296 -580) translate(0 580)">
                <g>
                    <g>
                        <path d="M0 0H20.8V20.8H0z" transform="translate(296) translate(15.6 15.6)"/>
                        <g fill="#ED2324">
                            <path d="M10.1 1.3h.6c.552 0 1 .448 1 1v18.8c0 .552-.448 1-1 1h-.6c-.552 0-1-.448-1-1V2.3c0-.552.448-1 1-1z" transform="translate(296) translate(15.6 15.6) translate(0 4.16) rotate(90 10.4 11.7)"/>
                            <path d="M10.1-3.9h.6c.552 0 1 .448 1 1v18.8c0 .552-.448 1-1 1h-.6c-.552 0-1-.448-1-1V-2.9c0-.552.448-1 1-1z" transform="translate(296) translate(15.6 15.6) translate(0 4.16) rotate(90 10.4 6.5)"/>
                            <path d="M10.1-9.1h.6c.552 0 1 .448 1 1v18.8c0 .552-.448 1-1 1h-.6c-.552 0-1-.448-1-1V-8.1c0-.552.448-1 1-1z" transform="translate(296) translate(15.6 15.6) translate(0 4.16) rotate(90 10.4 1.3)"/>
                        </g>
                    </g>
                </g>
            </g>
        </g>
    </g>
</svg>
