<svg xmlns="http://www.w3.org/2000/svg" width="40" height="40" viewBox="0 0 40 40">
    <g fill="none" fill-rule="evenodd">
        <g>
            <g>
                <g>
                    <g>
                        <path d="M0 0H16V16H0z" transform="translate(-287 -290) translate(165 290) translate(122) translate(12 12)"/>
                        <path fill="#ED2324" d="M15.956 7.978c0 4.406-3.572 7.978-7.978 7.978C3.57 15.956 0 12.384 0 7.978 0 3.57 3.571 0 7.978 0c4.406 0 7.978 3.571 7.978 7.978z" transform="translate(-287 -290) translate(165 290) translate(122) translate(12 12)"/>
                        <path fill="#FFF" stroke="#FFF" stroke-width=".5" d="M4.794 8.032c.209-.208.546-.208.755 0l1.507 1.509 3.395-3.394c.209-.209.546-.209.755 0 .208.208.208.546 0 .754l-3.772 3.771c-.208.208-.546.208-.754 0L4.794 8.787c-.208-.209-.208-.546 0-.755z" transform="translate(-287 -290) translate(165 290) translate(122) translate(12 12)"/>
                    </g>
                </g>
            </g>
        </g>
    </g>
</svg>
