<?xml version="1.0" encoding="UTF-8"?>
<svg width="30px" height="30px" viewBox="0 0 30 30" version="1.1" xmlns="http://www.w3.org/2000/svg" xmlns:xlink="http://www.w3.org/1999/xlink">
    <!-- Generator: sketchtool 57.1 (101010) - https://sketch.com -->
    <title>487F3141-2F52-4066-BF86-05B9375FF091</title>
    <desc>Created with sketchtool.</desc>
    <g id="Transaction-History" stroke="none" stroke-width="1" fill="none" fill-rule="evenodd">
        <g transform="translate(-230.000000, -535.000000)" id="history-card/transaction/pending">
            <g transform="translate(12.000000, 489.000000)">
                <g id="Group" transform="translate(218.000000, 24.000000)">
                    <g id="status/pending" transform="translate(0.000000, 22.000000)">
                        <g id="pending">
                            <g id="icon/system/pending">
                                <g transform="translate(9.000000, 9.000000)">
                                    <rect id="Rectangle" x="0" y="0" width="12" height="12"></rect>
                                    <path d="M10.6115287,2.56102195 L10.6115287,1.91490708 C10.6115287,0.858952703 9.75510978,0 8.70274492,0 L3.11490708,0 C2.06254222,0 1.2061233,0.858952703 1.2061233,1.91490708 L1.2061233,2.56102195 C1.2061233,3.94172297 2.54860643,5.07833616 3.52896957,5.90836151 C3.56465368,5.93855573 3.59970438,5.96832768 3.63391043,5.99725508 C3.59780405,6.02808276 3.56064189,6.05954389 3.52263514,6.09163849 C2.54248308,6.92166384 1.2,8.05827703 1.2,9.43897805 L1.2,10.0850929 C1.2,10.144848 1.20464524,10.203125 1.21393578,10.259924 C1.30240708,11.2341638 2.12124157,12 3.11490708,12 L8.70274492,12 C9.75510978,12 10.6115287,11.1410473 10.6115287,10.0850929 L10.6115287,9.43897805 C10.6115287,8.05806589 9.26883443,6.9214527 8.28868243,6.09163849 C8.25173141,6.06038854 8.21562497,6.02977195 8.18057432,6 C8.21562497,5.97001686 8.25173141,5.93961146 8.28868243,5.90836151 C9.26883443,5.0785473 10.6115287,3.94193411 10.6115287,2.56102195 L10.6115287,2.56102195 Z M8.44936654,9.43897805 L8.44936654,9.83783784 L3.36216216,9.83783784 L3.36216216,9.44108951 C3.36216216,9.43918919 3.37989865,9.24197632 3.78445946,8.791174 C4.11427362,8.42377535 4.54227195,8.06165541 4.91980573,7.74197632 C5.0177787,7.65899492 5.1115287,7.57960303 5.2,7.50316724 C5.22618243,7.48416384 5.25152027,7.46389357 5.27622465,7.44235643 C5.61490708,7.14548141 5.83661314,6.74408784 5.908826,6.31038854 C5.98103886,6.74408784 6.20274492,7.14527027 6.54163849,7.44235643 C6.64974659,7.53716216 6.76714524,7.63661319 6.89151184,7.74176519 C7.26904557,8.06144427 7.69704389,8.42377535 8.02685811,8.791174 C8.43163005,9.24197632 8.44915541,9.43897805 8.44936654,9.43897805 L8.44936654,9.43897805 Z M8.02685811,3.208826 C7.69704389,3.57622465 7.26904557,3.93855573 6.89151184,4.25823481 C6.76714524,4.36338681 6.64974659,4.46283784 6.54142735,4.5578547 C6.20274492,4.85472973 5.98103886,5.25591216 5.908826,5.68961146 C5.83661314,5.25570103 5.61490708,4.85451859 5.27622465,4.55764357 C5.16790541,4.46283784 5.05029562,4.36338681 4.92592903,4.25802368 C4.54839524,3.93834459 4.12039692,3.57622465 3.79079389,3.208826 C3.38602195,2.75802368 3.36849659,2.56102195 3.36828546,2.56102195 L3.36828546,2.16216216 L8.44936654,2.16216216 L8.44936654,2.55891049 C8.44915541,2.56081081 8.43163005,2.75781249 8.02685811,3.208826 L8.02685811,3.208826 Z" id="Shape" fill="#FFA201" fill-rule="nonzero"></path>
                                </g>
                            </g>
                        </g>
                    </g>
                </g>
            </g>
        </g>
    </g>
</svg>