<svg xmlns="http://www.w3.org/2000/svg" width="50" height="50" viewBox="0 0 50 50">
    <g fill="none" fill-rule="evenodd">
        <g>
            <g>
                <g>
                    <g>
                        <path d="M0 0H20V20H0z" transform="translate(-155 -152) translate(150 147) translate(5 5) translate(15 15)"/>
                        <path fill="#FFF" fill-rule="nonzero" d="M17.686 4.268V3.192c0-1.76-1.427-3.192-3.181-3.192H5.192C3.438 0 2.01 1.432 2.01 3.192v1.076c0 2.302 2.238 4.196 3.872 5.58l.175.147-.186.158C4.237 11.536 2 13.43 2 15.732v1.076c0 .1.008.197.023.292.148 1.624 1.512 2.9 3.169 2.9h9.313c1.754 0 3.18-1.432 3.18-3.192v-1.076c0-2.302-2.237-4.196-3.87-5.58-.062-.051-.122-.102-.18-.152l.18-.153c1.633-1.383 3.87-3.277 3.87-5.579zm-3.604 11.464v.664H5.604v-.66c0-.004.03-.333.703-1.084.55-.612 1.263-1.216 1.893-1.749.163-.138.32-.27.467-.398.043-.031.086-.065.127-.101.564-.495.934-1.164 1.054-1.887.12.723.49 1.392 1.055 1.887.18.158.376.324.583.499.63.533 1.342 1.137 1.892 1.749.675.751.704 1.08.704 1.08zm-.704-10.384c-.55.612-1.263 1.216-1.892 1.75-.207.174-.403.34-.584.498-.564.495-.934 1.164-1.054 1.887-.12-.723-.49-1.392-1.054-1.887-.18-.158-.377-.324-.584-.5-.63-.532-1.343-1.136-1.892-1.748-.675-.751-.704-1.08-.704-1.08v-.664h8.468v.66c0 .004-.03.332-.704 1.084z" transform="translate(-155 -152) translate(150 147) translate(5 5) translate(15 15)"/>
                    </g>
                </g>
            </g>
        </g>
    </g>
</svg>
