<svg xmlns="http://www.w3.org/2000/svg" width="32" height="35" viewBox="0 0 32 35">
    <g fill="none" fill-rule="evenodd">
        <g>
            <g>
                <g>
                    <g>
                        <g>
                            <path d="M9.594 10.206H22.386V23.814H9.594z" transform="translate(-78 -87) translate(0 44) translate(0 35) translate(78 11) translate(0 -3)"/>
                            <g fill="#898989" fill-rule="nonzero">
                                <path d="M12.597 12.609L9.5 9.182c.796-1.007 1.232-2.274 1.232-3.593C10.732 2.507 8.375 0 5.48 0 2.582 0 .225 2.507.225 5.59c0 3.08 2.357 5.588 5.254 5.588 1.087 0 2.123-.349 3.01-1.011l3.12 3.452c.13.145.306.224.494.224.178 0 .347-.072.475-.203.272-.28.28-.741.019-1.031zM5.479 1.458c2.14 0 3.883 1.853 3.883 4.131 0 2.278-1.742 4.131-3.883 4.131-2.142 0-3.884-1.853-3.884-4.13 0-2.279 1.742-4.132 3.884-4.132z" transform="translate(-78 -87) translate(0 44) translate(0 35) translate(78 11) translate(0 -3) translate(9.594 10.206)"/>
                            </g>
                        </g>
                    </g>
                </g>
            </g>
        </g>
    </g>
</svg>
