<?xml version="1.0" encoding="UTF-8"?>
<svg width="20px" height="20px" viewBox="0 0 20 20" version="1.1" xmlns="http://www.w3.org/2000/svg" xmlns:xlink="http://www.w3.org/1999/xlink">
    <!-- Generator: sketchtool 62 (101010) - https://sketch.com -->
    <title>BD1C98F3-8EA4-4693-A65C-04DC3F13D9F6</title>
    <desc>Created with sketchtool.</desc>
    <g id="for-developer" stroke="none" stroke-width="1" fill="none" fill-rule="evenodd">
        <g id="icon" transform="translate(-657.000000, -401.000000)">
            <g id="icon/system/clear" transform="translate(657.000000, 401.000000)">
                <rect id="Rectangle" x="0" y="0" width="20" height="20"></rect>
                <path d="M19.9445983,9.97229917 C19.9445983,15.4803324 15.4803324,19.9445983 9.97229917,19.9445983 C4.46426593,19.9445983 0,15.4803324 0,9.97229917 C0,4.46426593 4.46426593,0 9.97229917,0 C15.4803324,0 19.9445983,4.46426593 19.9445983,9.97229917 Z" id="Combined-Shape" fill="#E0E0E0"></path>
                <path d="M10,5 C10.3944891,5 10.7142857,5.31979661 10.7142857,5.71428571 L10.714,9.285 L14.2857143,9.28571429 C14.6802034,9.28571429 15,9.60551089 15,10 C15,10.3944891 14.6802034,10.7142857 14.2857143,10.7142857 L10.714,10.714 L10.7142857,14.2857143 C10.7142857,14.6802034 10.3944891,15 10,15 C9.60551089,15 9.28571429,14.6802034 9.28571429,14.2857143 L9.285,10.714 L5.71428571,10.7142857 C5.31979661,10.7142857 5,10.3944891 5,10 C5,9.60551089 5.31979661,9.28571429 5.71428571,9.28571429 L9.285,9.285 L9.28571429,5.71428571 C9.28571429,5.31979661 9.60551089,5 10,5 Z" id="Combined-Shape" stroke="#FFFFFF" stroke-width="1.5" fill="#FFFFFF" transform="translate(10.000000, 10.000000) rotate(-45.000000) translate(-10.000000, -10.000000) "></path>
            </g>
        </g>
    </g>
</svg>