<svg xmlns="http://www.w3.org/2000/svg" xmlns:xlink="http://www.w3.org/1999/xlink" width="291.435" height="131.645" viewBox="0 0 291.435 131.645">
  <defs>
    <clipPath id="clip-path">
      <rect id="Rectangle_1" data-name="Rectangle 1" width="10" height="10" transform="translate(324 65)" fill="#ffc50a"/>
    </clipPath>
  </defs>
  <g id="success_illustration" transform="translate(-59 -556.077)">
    <path id="Path_78580" data-name="Path 78580" d="M41.861,0A41.861,41.861,0,1,1,0,41.861,41.861,41.861,0,0,1,41.861,0Z" transform="translate(168.278 604)" fill="#ffe284"/>
    <g id="Group_21918" data-name="Group 21918" transform="translate(-560.5 256.077)">
      <path id="Path_78576" data-name="Path 78576" d="M877.987,307.632a7.622,7.622,0,0,1-7.632,7.632h-5.724a7.632,7.632,0,1,1,0-15.263h5.724A7.63,7.63,0,0,1,877.987,307.632Z" transform="translate(-10.934)" fill="#fff6d9"/>
      <path id="Path_78577" data-name="Path 78577" d="M923.987,363.632a7.622,7.622,0,0,1-7.632,7.632h-5.724a7.632,7.632,0,1,1,0-15.263h5.724A7.63,7.63,0,0,1,923.987,363.632Z" transform="translate(-13.052 -2.578)" fill="#fff6d9"/>
      <path id="Path_78578" data-name="Path 78578" d="M870.347,330.974a7.623,7.623,0,0,1-7.615,8.138H809.64a7.855,7.855,0,0,1-7.946-7.126,7.623,7.623,0,0,1,7.615-8.137h3.464a.039.039,0,0,0,0-.078,4.294,4.294,0,0,1,.824-8.507h-10.64a7.855,7.855,0,0,1-7.946-7.126A7.623,7.623,0,0,1,802.632,300h38.781a7.855,7.855,0,0,1,7.946,7.125,7.623,7.623,0,0,1-7.615,8.138h-13a.039.039,0,0,0,0,.078,4.294,4.294,0,0,1-.824,8.507H862.4A7.855,7.855,0,0,1,870.347,330.974Z" transform="translate(-8.08)" fill="#fff6d9"/>
      <path id="Path_78579" data-name="Path 78579" d="M884.224,363.125a7.621,7.621,0,0,1-7.632,7.632H827.94a5.728,5.728,0,0,1,5.724,5.724,5.732,5.732,0,0,1-5.724,5.724h31.481a7.632,7.632,0,1,1,0,15.263H808.346a41.516,41.516,0,0,1-40.028,30.527H627.132a7.632,7.632,0,1,1,0-15.263h56.284a6.2,6.2,0,1,1,0-12.4H661.474a7.632,7.632,0,1,1,0-15.263h65.375a41.258,41.258,0,0,1,3.062-14.309h-7.861a7.632,7.632,0,1,1,0-15.263h18.688a41.488,41.488,0,0,1,55.158,0h80.7A7.63,7.63,0,0,1,884.224,363.125Z" transform="translate(0 -2.072)" fill="#fff6d9"/>
    </g>
    <g id="Group_21917" data-name="Group 21917" transform="translate(0 -46)">
      <g id="Group_21916" data-name="Group 21916" transform="translate(-572 315)">
        <path id="Path_78571" data-name="Path 78571" d="M738,370.5q0-1.348.085-2.675a41.512,41.512,0,0,1,22.843-34.447" fill="none" stroke="#ffc50a" stroke-linecap="round" stroke-miterlimit="10" stroke-width="5"/>
        <path id="Path_78572" data-name="Path 78572" d="M808.724,399.966a41.5,41.5,0,0,1-62.988-5.331" fill="none" stroke="#ffc50a" stroke-linecap="round" stroke-miterlimit="10" stroke-width="5"/>
        <path id="Path_78573" data-name="Path 78573" d="M769.966,330.1a41.509,41.509,0,0,1,43.213,64.653" fill="none" stroke="#ffc50a" stroke-linecap="round" stroke-miterlimit="10" stroke-width="5"/>
      </g>
      <path id="Path_78575" data-name="Path 78575" d="M113.341,87.449h0a2.288,2.288,0,0,1-1.756-.8L99.531,73.559a2.373,2.373,0,0,1,3.512-3.193l10.377,11.256,28.738-28.658a2.315,2.315,0,0,1,3.353,0,2.385,2.385,0,0,1,0,3.353L115.017,86.73A2.174,2.174,0,0,1,113.341,87.449Z" transform="translate(85.12 615.875)" fill="#ffc50a"/>
    </g>
    <g id="Ellipse_1991" data-name="Ellipse 1991" transform="translate(97 580)" fill="none" stroke="#ffc50a" stroke-width="2">
      <circle cx="10" cy="10" r="10" stroke="none"/>
      <circle cx="10" cy="10" r="9" fill="none"/>
    </g>
    <g id="Ellipse_1992" data-name="Ellipse 1992" transform="translate(263 654)" fill="none" stroke="#ffc50a" stroke-width="2" opacity="0.46">
      <circle cx="5" cy="5" r="5" stroke="none"/>
      <circle cx="5" cy="5" r="4" fill="none"/>
    </g>
    <g id="Ellipse_1993" data-name="Ellipse 1993" transform="translate(184 580)" fill="none" stroke="#ffc50a" stroke-width="2" opacity="0.46">
      <circle cx="5" cy="5" r="5" stroke="none"/>
      <circle cx="5" cy="5" r="4" fill="none"/>
    </g>
    <g id="Mask_Group_7718" data-name="Mask Group 7718" transform="translate(-11 510)" clip-path="url(#clip-path)">
      <path id="fi-rr-plus-small" d="M18.986,14.084H15.718V10.817A.817.817,0,0,0,14.9,10h0a.817.817,0,0,0-.817.817v3.268H10.817A.817.817,0,0,0,10,14.9h0a.817.817,0,0,0,.817.817h3.268v3.268a.817.817,0,0,0,.817.817h0a.817.817,0,0,0,.817-.817V15.718h3.268A.817.817,0,0,0,19.8,14.9h0A.817.817,0,0,0,18.986,14.084Z" transform="translate(314 55)" fill="#ffc50a"/>
    </g>
    <g id="Mask_Group_7867" data-name="Mask Group 7867" transform="translate(-243 554)" clip-path="url(#clip-path)">
      <path id="fi-rr-plus-small-2" data-name="fi-rr-plus-small" d="M18.986,14.084H15.718V10.817A.817.817,0,0,0,14.9,10h0a.817.817,0,0,0-.817.817v3.268H10.817A.817.817,0,0,0,10,14.9h0a.817.817,0,0,0,.817.817h3.268v3.268a.817.817,0,0,0,.817.817h0a.817.817,0,0,0,.817-.817V15.718h3.268A.817.817,0,0,0,19.8,14.9h0A.817.817,0,0,0,18.986,14.084Z" transform="translate(314 55)" fill="#ffc50a"/>
    </g>
  </g>
</svg>
