<?xml version="1.0" encoding="UTF-8"?>
<svg width="180px" height="180px" viewBox="0 0 180 180" version="1.1" xmlns="http://www.w3.org/2000/svg" xmlns:xlink="http://www.w3.org/1999/xlink">
    <!-- Generator: sketchtool 57.1 (101010) - https://sketch.com -->
    <title>0045274F-93A0-454D-AB29-ED96ADDAE2F3</title>
    <desc>Created with sketchtool.</desc>
    <g id="Transaction-History" stroke="none" stroke-width="1" fill="none" fill-rule="evenodd">
        <g id="Transaction-History-empty" transform="translate(-180.000000, -50.000000)">
            <g id="small-header/2line">
                <g id="Group-4">
                    <g id="small-header/illustration/transaction-history" transform="translate(180.000000, 50.000000)">
                        <g id="Group-3" transform="translate(26.000000, 11.000000)">
                            <path d="M34,11 L114,11 C122.284271,11 129,17.7157288 129,26 L129,143 C129,151.284271 122.284271,158 114,158 L34,158 C25.7157288,158 19,151.284271 19,143 L19,26 C19,17.7157288 25.7157288,11 34,11 Z" id="Rectangle-2" fill="#FFD600"></path>
                            <g id="Group-2" transform="translate(39.000000, 60.000000)" fill="#FFEE93">
                                <path d="M4.35483871,0 L65.6451613,0 C68.0502723,4.88725879e-15 70,1.9497277 70,4.35483871 C70,6.75994972 68.0502723,8.70967742 65.6451613,8.70967742 L4.35483871,8.70967742 C1.9497277,8.70967742 2.9454115e-16,6.75994972 0,4.35483871 C-2.9454115e-16,1.9497277 1.9497277,1.32999014e-15 4.35483871,0 Z" id="Rectangle-3"></path>
                                <path d="M4.35483871,22.6451613 L65.6451613,22.6451613 C68.0502723,22.6451613 70,24.594889 70,27 C70,29.405111 68.0502723,31.3548387 65.6451613,31.3548387 L4.35483871,31.3548387 C1.9497277,31.3548387 2.9454115e-16,29.405111 0,27 C-2.9454115e-16,24.594889 1.9497277,22.6451613 4.35483871,22.6451613 Z" id="Rectangle-3"></path>
                                <path d="M4.35483871,45.2903226 L65.6451613,45.2903226 C68.0502723,45.2903226 70,47.2400503 70,49.6451613 C70,52.0502723 68.0502723,54 65.6451613,54 L4.35483871,54 C1.9497277,54 2.9454115e-16,52.0502723 0,49.6451613 C-2.9454115e-16,47.2400503 1.9497277,45.2903226 4.35483871,45.2903226 Z" id="Rectangle-3-Copy"></path>
                            </g>
                            <g id="Group">
                                <circle id="Oval" fill="#ED2324" cx="28.5" cy="28.5" r="28.5"></circle>
                                <path d="M27.6730722,9.89465032 C29.1358041,9.89465032 30.3215826,11.0804288 30.3215826,12.5431607 L30.3215618,27.7026503 L45.3514896,27.7029793 C46.8142215,27.7029793 48,28.8887577 48,30.3514896 C48,31.8142215 46.8142215,33 45.3514896,33 L27.7180235,33 C26.4507736,33 25.3913984,32.1099822 25.1308783,30.920927 C25.0615322,30.6845511 25.0245618,30.4349064 25.0245618,30.1766268 L25.0245618,12.5431607 C25.0245618,11.0804288 26.2103403,9.89465032 27.6730722,9.89465032 Z" id="Combined-Shape" fill="#FF7677"></path>
                            </g>
                        </g>
                    </g>
                </g>
            </g>
        </g>
    </g>
</svg>