<svg xmlns="http://www.w3.org/2000/svg" width="50" height="50" viewBox="0 0 50 50">
    <g fill="none" fill-rule="evenodd">
        <g>
            <g>
                <g>
                    <path d="M0 0H20V20H0z" transform="translate(-260 -208) translate(260 208) translate(15 15)"/>
                    <path fill="#898989" fill-rule="nonzero" stroke="#898989" stroke-width=".5" d="M18.223 2.878h-4.159V2.2c0-1.213-.986-2.2-2.198-2.2H7.912C6.7 0 5.714.987 5.714 2.2v.678h-4.16c-.307 0-.554.247-.554.555 0 .309.247.555.555.555h1.003v13.043C2.558 18.668 3.889 20 5.525 20h8.728c1.636 0 2.967-1.332 2.967-2.969V3.988h1.003c.308 0 .555-.246.555-.555 0-.308-.247-.555-.555-.555zM6.823 2.2c0-.6.49-1.09 1.09-1.09h3.953c.6 0 1.089.49 1.089 1.09v.678H6.823V2.2zm9.288 14.831c0 1.024-.835 1.859-1.858 1.859H5.525c-1.024 0-1.858-.835-1.858-1.859V3.988h12.448v13.043h-.004z" transform="translate(-260 -208) translate(260 208) translate(15 15)"/>
                    <path fill="#898989" fill-rule="nonzero" stroke="#898989" stroke-width=".5" d="M9.889 16.923c.285 0 .513-.247.513-.556V6.539c0-.309-.228-.556-.513-.556-.285 0-.513.247-.513.556v9.824c0 .309.228.56.513.56zM6.3 16.24c.284 0 .512-.249.512-.558V7.053c0-.31-.228-.557-.513-.557-.285 0-.513.248-.513.557v8.629c0 .31.232.557.513.557zM13.479 16.24c.285 0 .512-.249.512-.558V7.053c0-.31-.227-.557-.512-.557-.285 0-.513.248-.513.557v8.629c0 .31.228.557.513.557z" transform="translate(-260 -208) translate(260 208) translate(15 15)"/>
                </g>
            </g>
        </g>
    </g>
</svg>
