<svg xmlns="http://www.w3.org/2000/svg" width="100" height="100" viewBox="0 0 100 100">
    <g fill="none" fill-rule="evenodd">
        <g>
            <g>
                <g>
                    <path d="M0 0H40V40H0z" transform="translate(15 -573) translate(-15 573) translate(30 30)"/>
                    <path fill="#B0E01F" d="M39.89 19.945c0 11.016-8.93 19.944-19.945 19.944C8.929 39.89 0 30.961 0 19.945 0 8.929 8.929 0 19.945 0s19.944 8.929 19.944 19.945z" transform="translate(15 -573) translate(-15 573) translate(30 30)"/>
                    <path fill="#FFF" d="M16.156 11.075c.648.129 2.01 2.693 1.98 3.313-.037.762-1.958 1.787-1.958 1.787s-.595.392-.614.773c-.03.62.82 3.696 2.17 5.442 1.53 1.978 4.724 3.265 5.13 3.282.407.018 1.413-.96 1.684-1.07.831-.346 4.431.959 4.393 1.72-.03.62-2.144 3.527-3.443 3.667-1.298.141-8.92-1.05-11.882-7.006-2.727-5.475-1.272-9.13-.847-9.923.562-1.055 2.421-2.178 3.387-1.985z" transform="translate(15 -573) translate(-15 573) translate(30 30)"/>
                </g>
            </g>
        </g>
    </g>
</svg>
