<svg xmlns="http://www.w3.org/2000/svg" width="100" height="100" viewBox="0 0 100 100">
    <g fill="none" fill-rule="evenodd">
        <g>
            <g>
                <g>
                    <path d="M0 0H40V40H0z" transform="translate(15 -502) translate(-15 502) translate(30 30)"/>
                    <path fill="#2DCEF3" d="M39.89 19.945c0 11.016-8.93 19.944-19.945 19.944C8.929 39.89 0 30.961 0 19.945 0 8.929 8.929 0 19.945 0s19.944 8.929 19.944 19.945z" transform="translate(15 -502) translate(-15 502) translate(30 30)"/>
                    <g fill="#FFF" stroke="#FFF" stroke-width=".3">
                        <g>
                            <path d="M4.706.791c.299 0 .57.109.765.283.203.18.326.43.326.704h0v13.385c0 .275-.123.524-.326.704-.196.174-.466.283-.765.283-.3 0-.57-.109-.765-.283-.203-.18-.326-.43-.326-.704h0V1.778c0-.274.123-.524.326-.704.196-.174.466-.283.765-.283z" transform="translate(15 -502) translate(-15 502) translate(30 30) translate(10 10)"/>
                            <path d="M4.522.446c.28 0 .558.107.771.32.214.213.32.492.32.771 0 .28-.106.559-.32.772h0L2.631 4.971c-.213.213-.492.32-.771.32-.28 0-.559-.107-.772-.32-.213-.213-.32-.492-.32-.772 0-.279.107-.558.32-.771h0L3.75.766c.213-.213.493-.32.772-.32z" transform="translate(15 -502) translate(-15 502) translate(30 30) translate(10 10)"/>
                            <path d="M4.522.446c.28 0 .558.107.771.32h0l2.663 2.662c.213.213.32.492.32.771 0 .28-.107.559-.32.772-.214.213-.493.32-.772.32-.28 0-.559-.107-.772-.32h0L3.75 2.309c-.213-.213-.32-.492-.32-.772 0-.279.107-.558.32-.771.213-.213.493-.32.772-.32z" transform="translate(15 -502) translate(-15 502) translate(30 30) translate(10 10)"/>
                        </g>
                        <g>
                            <path d="M4.706.791c.299 0 .57.109.765.283.203.18.326.43.326.704h0v13.385c0 .275-.123.524-.326.704-.196.174-.466.283-.765.283-.3 0-.57-.109-.765-.283-.203-.18-.326-.43-.326-.704h0V1.778c0-.274.123-.524.326-.704.196-.174.466-.283.765-.283z" transform="translate(15 -502) translate(-15 502) translate(30 30) translate(10 10) matrix(1 0 0 -1 9.412 20)"/>
                            <path d="M4.522.446c.28 0 .558.107.771.32.214.213.32.492.32.771 0 .28-.106.559-.32.772h0L2.631 4.971c-.213.213-.492.32-.771.32-.28 0-.559-.107-.772-.32-.213-.213-.32-.492-.32-.772 0-.279.107-.558.32-.771h0L3.75.766c.213-.213.493-.32.772-.32z" transform="translate(15 -502) translate(-15 502) translate(30 30) translate(10 10) matrix(1 0 0 -1 9.412 20)"/>
                            <path d="M4.522.446c.28 0 .558.107.771.32h0l2.663 2.662c.213.213.32.492.32.771 0 .28-.107.559-.32.772-.214.213-.493.32-.772.32-.28 0-.559-.107-.772-.32h0L3.75 2.309c-.213-.213-.32-.492-.32-.772 0-.279.107-.558.32-.771.213-.213.493-.32.772-.32z" transform="translate(15 -502) translate(-15 502) translate(30 30) translate(10 10) matrix(1 0 0 -1 9.412 20)"/>
                        </g>
                    </g>
                </g>
            </g>
        </g>
    </g>
</svg>
