<svg xmlns="http://www.w3.org/2000/svg" width="50" height="50" viewBox="0 0 50 50">
    <g fill="none" fill-rule="evenodd">
        <path d="M0 0H20V20H0z" transform="translate(15 15)"/>
        <path fill="#B0E01F" stroke="#B0E01F" stroke-linecap="round" stroke-width="1.5" d="M5.156 1.075c.648.129 2.01 2.693 1.98 3.313-.037.762-1.958 1.787-1.958 1.787s-.595.392-.614.773c-.03.62.82 3.696 2.17 5.442 1.53 1.978 4.724 3.265 5.13 3.282.407.018 1.413-.96 1.684-1.07.831-.346 4.431.959 4.393 1.72-.03.62-2.144 3.527-3.443 3.667-1.298.141-8.92-1.05-11.882-7.006-2.727-5.475-1.272-9.13-.847-9.923C2.33 2.005 4.19.882 5.156 1.075z" transform="translate(15 15)"/>
    </g>
</svg>
