<svg xmlns="http://www.w3.org/2000/svg" xmlns:xlink="http://www.w3.org/1999/xlink" width="414" height="104" viewBox="0 0 414 104">
  <defs>
    <clipPath id="clip-path">
      <rect id="Rectangle_59950" data-name="Rectangle 59950" width="414" height="104" transform="translate(0 298)" fill="#fff" stroke="#707070" stroke-width="1"/>
    </clipPath>
  </defs>
  <g id="wave_xs" transform="translate(0 -298)" clip-path="url(#clip-path)">
    <g id="Group_21953" data-name="Group 21953" transform="translate(0 -150)">
      <path id="Path_583" data-name="Path 583" d="M2014.072,512.032s132.965-33.716,270.245-12.177,218.727-20.548,218.727-20.548,26.568-640.794,22.754-644.587-252.39,5.057-365.287,0-159.384,30.154-163.961,44.062S2027.04,169.2,2027.8,181.839,2014.072,512.032,2014.072,512.032Z" transform="translate(-2054.156 45.968)" fill="#ffc50a"/>
      <path id="Path_585" data-name="Path 585" d="M2460.01,509s-116.6-33.717-236.977-12.177-191.8-20.548-191.8-20.548-33.268-598.315-29.923-602.108,328.752-4.661,427.751-9.718,26.937,96.9,30.95,110.8-11.372,190.912-12.041,203.555S2460.01,509,2460.01,509Z" transform="translate(-2031.005 24.815)" fill="#fff" opacity="0.24"/>
    </g>
  </g>
</svg>
