<svg xmlns="http://www.w3.org/2000/svg" xmlns:xlink="http://www.w3.org/1999/xlink" width="45" height="45" viewBox="0 0 45 45">
  <defs>
    <clipPath id="clip-path">
      <rect id="Rectangle_64056" data-name="Rectangle 64056" width="45" height="45" transform="translate(0.5 0.5)" fill="#ffd345"/>
    </clipPath>
    <clipPath id="clip-path-2">
      <rect id="Rectangle_64057" data-name="Rectangle 64057" width="37.001" height="43.416" fill="#ffd345"/>
    </clipPath>
  </defs>
  <g id="yellow_music_symbol" transform="translate(-0.5 -0.5)" clip-path="url(#clip-path)">
    <g id="Group_24698" data-name="Group 24698" transform="translate(1.693 0.792)">
      <g id="Group_24697" data-name="Group 24697" transform="translate(0 0)" clip-path="url(#clip-path-2)">
        <path id="Path_86223" data-name="Path 86223" d="M30.784.167A4.951,4.951,0,0,1,37,4.953V30.136a7.272,7.272,0,0,1-14.307,1.85,7.3,7.3,0,0,1,7.04-9.135A7.148,7.148,0,0,1,34.4,24.573V4.881A2.3,2.3,0,0,0,31.509,2.66L16.392,6.674a2.5,2.5,0,0,0-1.857,2.415V36.147a7.2,7.2,0,0,1-2.6,5.563A7.268,7.268,0,1,1,7.268,28.88a7.133,7.133,0,0,1,4.666,1.7V9.2a5.254,5.254,0,0,1,3.908-5.08Z" transform="translate(0 0.001)" fill="#ffd345"/>
      </g>
    </g>
  </g>
</svg>
